solid Liquid Galaxy Voice
facet normal 1.0 2.073949494232014e-30 2.5482747436804485e-30
  outer loop
    vertex -304.2896272146536 -5.633824174205786 -0.38918142396203215
    vertex -304.2896272146536 -6.736418373051175 4.603643169157976
    vertex -304.2896272146536 -6.736418373051175 -0.38918142396203215
  endloop
endfacet
facet normal 1.0 2.073949494232014e-30 2.5482747436804485e-30
  outer loop
    vertex -304.2896272146536 -6.8924897230512085 -0.38918142396203215
    vertex -304.2896272146536 -16.93409209940131 4.605099051120792
    vertex -304.2896272146536 -16.93409209940131 -0.38918142396203215
  endloop
endfacet
facet normal 1.0 2.073949494232014e-30 2.5482747436804485e-30
  outer loop
    vertex -304.2896272146536 -16.93409209940131 4.605099051120792
    vertex -304.2896272146536 -6.8924897230512085 -0.38918142396203215
    vertex -304.2896272146536 -13.983791434895025 5.833848282480805
  endloop
endfacet
facet normal 1.0 2.073949494232014e-30 2.5482747436804485e-30
  outer loop
    vertex -304.2896272146536 -13.983791434895025 5.833848282480805
    vertex -304.2896272146536 -6.8924897230512085 -0.38918142396203215
    vertex -304.2896272146536 -9.204577480495967 5.833848282480805
  endloop
endfacet
facet normal 1.0 2.073949494232014e-30 2.5482747436804485e-30
  outer loop
    vertex -304.2896272146536 -9.204577480495967 5.833848282480805
    vertex -304.2896272146536 -6.8924897230512085 -0.38918142396203215
    vertex -304.2896272146536 -6.8924897230512085 4.603643169157976
  endloop
endfacet
facet normal 1.0 2.073949494232014e-30 2.5482747436804485e-30
  outer loop
    vertex -304.2896272146536 -9.204577480495967 5.833848282480805
    vertex -304.2896272146536 -6.8924897230512085 4.603643169157976
    vertex -304.2896272146536 -4.5833958760968905 5.833848282480805
  endloop
endfacet
facet normal 1.0 2.073949494232014e-30 2.5482747436804485e-30
  outer loop
    vertex -304.2896272146536 -4.5833958760968905 5.833848282480805
    vertex -304.2896272146536 -6.8924897230512085 4.603643169157976
    vertex -304.2896272146536 -6.736418373051175 4.603643169157976
  endloop
endfacet
facet normal 1.0 2.073949494232014e-30 2.5482747436804485e-30
  outer loop
    vertex -304.2896272146536 -4.5833958760968905 5.833848282480805
    vertex -304.2896272146536 -6.736418373051175 4.603643169157976
    vertex -304.2896272146536 -5.633824174205786 4.605099051120792
  endloop
endfacet
facet normal 1.0 2.073949494232014e-30 2.5482747436804485e-30
  outer loop
    vertex -304.2896272146536 -5.633824174205786 4.605099051120792
    vertex -304.2896272146536 -6.736418373051175 4.603643169157976
    vertex -304.2896272146536 -5.633824174205786 -0.38918142396203215
  endloop
endfacet
facet normal 1.0 2.073949494232014e-30 2.5482747436804485e-30
  outer loop
    vertex -304.2896272146536 -4.5833958760968905 5.833848282480805
    vertex -304.2896272146536 -5.633824174205786 4.605099051120792
    vertex -304.2896272146536 -4.8887831292609105 4.605099051120792
  endloop
endfacet
facet normal 1.0 2.073949494232014e-30 2.5482747436804485e-30
  outer loop
    vertex -304.2896272146536 -4.5833958760968905 5.833848282480805
    vertex -304.2896272146536 -4.8887831292609105 4.605099051120792
    vertex -304.2896272146536 -4.5833958760968905 4.8992480533683915
  endloop
endfacet
facet normal 1.0 2.073949494232014e-30 2.5482747436804485e-30
  outer loop
    vertex -304.2896272146536 -17.87897327609691 4.605099051120792
    vertex -304.2896272146536 -18.18781742609689 5.833848282480805
    vertex -304.2896272146536 -18.18781742609689 4.903315461421492
  endloop
endfacet
facet normal 1.0 2.073949494232014e-30 2.5482747436804485e-30
  outer loop
    vertex -304.2896272146536 -18.18781742609689 5.833848282480805
    vertex -304.2896272146536 -17.87897327609691 4.605099051120792
    vertex -304.2896272146536 -13.983791434895025 5.833848282480805
  endloop
endfacet
facet normal 1.0 2.073949494232014e-30 2.5482747436804485e-30
  outer loop
    vertex -304.2896272146536 -13.983791434895025 5.833848282480805
    vertex -304.2896272146536 -17.87897327609691 4.605099051120792
    vertex -304.2896272146536 -17.131695349401284 4.605099051120792
  endloop
endfacet
facet normal 1.0 2.073949494232014e-30 2.5482747436804485e-30
  outer loop
    vertex -304.2896272146536 -13.983791434895025 5.833848282480805
    vertex -304.2896272146536 -17.131695349401284 4.605099051120792
    vertex -304.2896272146536 -16.93409209940131 4.605099051120792
  endloop
endfacet
facet normal -0.00011874448202673931 0.999999992949874 1.6384732450536502e-08
  outer loop
    vertex -302.31177869370623 -6.736418370413744 2.446783336060633
    vertex -301.5795067127947 -6.73633145249324 4.603497516984429
    vertex -301.5797821120348 -6.7363314498558085 2.4466376838870953
  endloop
endfacet
facet normal -0.00011874448202673931 0.999999992949874 1.6384732450536502e-08
  outer loop
    vertex -301.5795067127947 -6.73633145249324 4.603497516984429
    vertex -302.31177869370623 -6.736418370413744 2.446783336060633
    vertex -302.3115032944658 -6.736418373051175 4.603643169157976
  endloop
endfacet
facet normal -0.0 0.5707854001469491 0.8210992796118428
  outer loop
    vertex -305.0698739643222 -13.660281357414226 1.8448142249388562
    vertex -305.1932233002946 -13.296961463338883 1.5922531811401393
    vertex -305.1932233002946 -13.660281357414226 1.8448142249388562
  endloop
endfacet
facet normal -0.0 0.5707854001469491 0.8210992796118428
  outer loop
    vertex -305.1932233002946 -13.296961463338883 1.5922531811401393
    vertex -305.0698739643222 -13.660281357414226 1.8448142249388562
    vertex -305.0698739643222 -13.296961463338883 1.5922531811401393
  endloop
endfacet
facet normal -0.0 1.0 -0.0
  outer loop
    vertex -304.40141162711785 -4.425363526096884 5.833848282480805
    vertex -304.2896272146536 -4.425363526096884 5.051464812888382
    vertex -304.40141162711785 -4.425363526096884 5.051464812888382
  endloop
endfacet
facet normal -0.0 1.0 -0.0
  outer loop
    vertex -304.2896272146536 -4.425363526096884 5.051464812888382
    vertex -304.40141162711785 -4.425363526096884 5.833848282480805
    vertex -304.2896272146536 -4.425363526096884 5.833848282480805
  endloop
endfacet
facet normal -1.0 0.0 0.0
  outer loop
    vertex -302.3119206223742 -16.93156239940134 1.0308140050635481
    vertex -302.3119206223742 -17.131695349401284 0.6069011695131444
    vertex -302.3119206223742 -17.131695349401284 1.0308140050635481
  endloop
endfacet
facet normal -1.0 0.0 0.0
  outer loop
    vertex -302.3119206223742 -17.131695349401284 0.6069011695131444
    vertex -302.3119206223742 -16.93156239940134 1.0308140050635481
    vertex -302.3119206223742 -16.934092098475624 0.6069011695131444
  endloop
endfacet
facet normal -7.924628474092397e-16 1.0 4.464182776759612e-16
  outer loop
    vertex -302.3119206223742 -6.736418373051184 0.19244655715797074
    vertex -298.53050017228753 -6.736418373051175 -0.38918142396203215
    vertex -302.3119206223742 -6.736418373051175 -0.38918142396203215
  endloop
endfacet
facet normal -7.924628474092397e-16 1.0 4.464182776759612e-16
  outer loop
    vertex -298.53050017228753 -6.736418373051175 -0.38918142396203215
    vertex -302.3119206223742 -6.736418373051184 0.19244655715797074
    vertex -298.53050017228753 -6.736418373051175 0.6218088517179693
  endloop
endfacet
facet normal -7.924628474092397e-16 1.0 4.464182776759612e-16
  outer loop
    vertex -298.53050017228753 -6.736418373051175 0.6218088517179693
    vertex -302.3119206223742 -6.736418373051184 0.19244655715797074
    vertex -302.3119206223742 -6.736418373051175 0.6218088517179693
  endloop
endfacet
facet normal -0.0 1.0 -0.0
  outer loop
    vertex -302.3119206223742 -16.93156239940134 2.028388763849232
    vertex -301.58090890300093 -16.93156239940134 1.0308140050635481
    vertex -302.3119206223742 -16.93156239940134 1.0308140050635481
  endloop
endfacet
facet normal -0.0 1.0 -0.0
  outer loop
    vertex -301.58090890300093 -16.93156239940134 1.0308140050635481
    vertex -302.3119206223742 -16.93156239940134 2.028388763849232
    vertex -301.58090890300093 -16.93156239940134 2.0301290996209858
  endloop
endfacet
facet normal -0.0 -0.45368804634691984 0.8911605672391004
  outer loop
    vertex -305.07017470370533 -10.287536669013162 1.3905845962062475
    vertex -305.1932233002946 -9.891407452052126 1.5922531811401326
    vertex -305.1932233002946 -10.287536669013162 1.3905845962062475
  endloop
endfacet
facet normal -0.0 -0.45368804634691984 0.8911605672391004
  outer loop
    vertex -305.1932233002946 -9.891407452052126 1.5922531811401326
    vertex -305.07017470370533 -10.287536669013162 1.3905845962062475
    vertex -305.07017470370533 -9.891407452052126 1.5922531811401326
  endloop
endfacet
facet normal 0.9999999901541564 6.797039379177525e-05 -0.00012276690494603083
  outer loop
    vertex -301.57976089557286 -6.892402799855806 2.446637679995783
    vertex -301.5795067127947 -6.73633145249324 4.603497516984429
    vertex -301.5795067127947 -6.892402802493274 4.603497516984429
  endloop
endfacet
facet normal 0.9999999901541564 6.797039379177525e-05 -0.00012276690494603083
  outer loop
    vertex -301.5795067127947 -6.73633145249324 4.603497516984429
    vertex -301.57976089557286 -6.892402799855806 2.446637679995783
    vertex -301.5797821120348 -6.7363314498558085 2.4466376838870953
  endloop
endfacet
facet normal -0.0 0.45368804634693194 0.8911605672390942
  outer loop
    vertex -305.0698739643222 -13.296961463338883 1.5922531811401393
    vertex -305.1932233002946 -12.900832246377847 1.3905845962062475
    vertex -305.1932233002946 -13.296961463338883 1.5922531811401393
  endloop
endfacet
facet normal -0.0 0.45368804634693194 0.8911605672390942
  outer loop
    vertex -305.1932233002946 -12.900832246377847 1.3905845962062475
    vertex -305.0698739643222 -13.296961463338883 1.5922531811401393
    vertex -305.0698739643222 -12.900832246377847 1.3905845962062475
  endloop
endfacet
facet normal 3.4182277851729313e-14 0.6937302630252689 -0.7202349076259019
  outer loop
    vertex -304.2896272146536 -4.425363526096884 5.051464812888382
    vertex -304.40141162711785 -4.8887831292609105 4.605099051120792
    vertex -304.40141162711785 -4.425363526096884 5.051464812888382
  endloop
endfacet
facet normal 3.4182277851729313e-14 0.6937302630252689 -0.7202349076259019
  outer loop
    vertex -304.40141162711785 -4.8887831292609105 4.605099051120792
    vertex -304.2896272146536 -4.425363526096884 5.051464812888382
    vertex -304.2896272146536 -4.8887831292609105 4.605099051120792
  endloop
endfacet
facet normal 3.4182277851729313e-14 0.6937302630252689 -0.7202349076259019
  outer loop
    vertex -304.2896272146536 -4.8887831292609105 4.605099051120792
    vertex -304.2896272146536 -4.425363526096884 5.051464812888382
    vertex -304.2896272146536 -4.5833958760968905 4.8992480533683915
  endloop
endfacet
facet normal -2.1582420393713263e-10 1.0 -8.369734130825988e-11
  outer loop
    vertex -304.2896272146536 -6.736418373051175 4.603643169157976
    vertex -302.3119206223742 -6.736418373051175 -0.38918142396203215
    vertex -304.2896272146536 -6.736418373051175 -0.38918142396203215
  endloop
endfacet
facet normal -2.1582420393713263e-10 1.0 -8.369734130825988e-11
  outer loop
    vertex -302.3119206223742 -6.736418373051175 -0.38918142396203215
    vertex -304.2896272146536 -6.736418373051175 4.603643169157976
    vertex -302.3119206223742 -6.736418373051184 0.19244655715797074
  endloop
endfacet
facet normal -2.1582420393713263e-10 1.0 -8.369734130825988e-11
  outer loop
    vertex -302.3119206223742 -6.736418373051184 0.19244655715797074
    vertex -304.2896272146536 -6.736418373051175 4.603643169157976
    vertex -302.3119206223742 -6.736418373051175 0.6218088517179693
  endloop
endfacet
facet normal -2.1582420393713263e-10 1.0 -8.369734130825988e-11
  outer loop
    vertex -302.3119206223742 -6.736418373051175 0.6218088517179693
    vertex -304.2896272146536 -6.736418373051175 4.603643169157976
    vertex -302.3119206223742 -6.736418373051175 1.0443075246766227
  endloop
endfacet
facet normal -2.1582420393713263e-10 1.0 -8.369734130825988e-11
  outer loop
    vertex -302.3119206223742 -6.736418373051175 1.0443075246766227
    vertex -304.2896272146536 -6.736418373051175 4.603643169157976
    vertex -302.3119206223742 -6.736418373051175 2.0436226192340614
  endloop
endfacet
facet normal -2.1582420393713263e-10 1.0 -8.369734130825988e-11
  outer loop
    vertex -302.3119206223742 -6.736418373051175 2.0436226192340614
    vertex -304.2896272146536 -6.736418373051175 4.603643169157976
    vertex -302.31177869370623 -6.736418370413744 2.446783336060633
  endloop
endfacet
facet normal -2.1582420393713263e-10 1.0 -8.369734130825988e-11
  outer loop
    vertex -302.31177869370623 -6.736418370413744 2.446783336060633
    vertex -304.2896272146536 -6.736418373051175 4.603643169157976
    vertex -302.3115032944658 -6.736418373051175 4.603643169157976
  endloop
endfacet
facet normal 0.9999999261146809 6.797039366595937e-05 -0.0003783525585515671
  outer loop
    vertex -302.3119206223742 -6.736418373051175 2.0436226192340614
    vertex -302.31175747724393 -6.892489720413741 2.446783332169334
    vertex -302.3119206223742 -6.8924897230512085 2.0436226192340614
  endloop
endfacet
facet normal 0.9999999261146809 6.797039366595937e-05 -0.0003783525585515671
  outer loop
    vertex -302.31175747724393 -6.892489720413741 2.446783332169334
    vertex -302.3119206223742 -6.736418373051175 2.0436226192340614
    vertex -302.31177869370623 -6.736418370413744 2.446783336060633
  endloop
endfacet
facet normal 0.00019897930442467628 6.01788115353043e-21 0.9999999802036181
  outer loop
    vertex -301.5795067127947 -6.892402802493274 4.603497516984429
    vertex -302.3115032944658 -6.736418373051175 4.603643169157976
    vertex -302.3115032944658 -6.8924897230512085 4.603643169157976
  endloop
endfacet
facet normal 0.00019897930442467628 6.01788115353043e-21 0.9999999802036181
  outer loop
    vertex -302.3115032944658 -6.736418373051175 4.603643169157976
    vertex -301.5795067127947 -6.892402802493274 4.603497516984429
    vertex -301.5795067127947 -6.73633145249324 4.603497516984429
  endloop
endfacet
facet normal 0.0 -1.0 0.0
  outer loop
    vertex -301.58090890300093 -6.8924897230512085 2.0436226192340614
    vertex -302.3119206223742 -6.8924897230512085 1.0443075246766227
    vertex -301.58090890300093 -6.8924897230512085 1.0443075246766227
  endloop
endfacet
facet normal 0.0 -1.0 0.0
  outer loop
    vertex -302.3119206223742 -6.8924897230512085 1.0443075246766227
    vertex -301.58090890300093 -6.8924897230512085 2.0436226192340614
    vertex -302.3119206223742 -6.8924897230512085 2.0436226192340614
  endloop
endfacet
facet normal 0.0 0.0 -1.0
  outer loop
    vertex -301.58090890300093 -16.93156239940134 1.0308140050635481
    vertex -302.3119206223742 -17.131695349401284 1.0308140050635481
    vertex -302.3119206223742 -16.93156239940134 1.0308140050635481
  endloop
endfacet
facet normal 0.0 0.0 -1.0
  outer loop
    vertex -302.3119206223742 -17.131695349401284 1.0308140050635481
    vertex -301.58090890300093 -16.93156239940134 1.0308140050635481
    vertex -301.58090890300093 -17.131695349401284 1.0308140050635481
  endloop
endfacet
facet normal 0.0 -1.0 0.0
  outer loop
    vertex -304.2896272146536 -18.3412464760969 5.833848282480805
    vertex -304.40141162711785 -18.3412464760969 5.051464812888382
    vertex -304.2896272146536 -18.3412464760969 5.051464812888382
  endloop
endfacet
facet normal 0.0 -1.0 0.0
  outer loop
    vertex -304.40141162711785 -18.3412464760969 5.051464812888382
    vertex -304.2896272146536 -18.3412464760969 5.833848282480805
    vertex -304.40141162711785 -18.3412464760969 5.833848282480805
  endloop
endfacet
facet normal 0.9999999999332692 4.000973123884512e-06 -1.0837626317006018e-05
  outer loop
    vertex -305.06982276518187 -11.416339938819357 -0.3891814527553242
    vertex -305.0698739643222 -13.983791434895025 2.1434013494407953
    vertex -305.06982276518187 -15.895966438819356 -0.3891814527553242
  endloop
endfacet
facet normal 0.9999999999332692 4.000973123884512e-06 -1.0837626317006018e-05
  outer loop
    vertex -305.0698739643222 -13.983791434895025 2.1434013494407953
    vertex -305.06982276518187 -11.416339938819357 -0.3891814527553242
    vertex -305.0698739643222 -13.660281357414226 1.8448142249388562
  endloop
endfacet
facet normal 0.9999999999332692 4.000973123884512e-06 -1.0837626317006018e-05
  outer loop
    vertex -305.0698739643222 -13.660281357414226 1.8448142249388562
    vertex -305.06982276518187 -11.416339938819357 -0.3891814527553242
    vertex -305.0698739643222 -13.296961463338883 1.5922531811401393
  endloop
endfacet
facet normal 0.9999999999332692 4.000973123884512e-06 -1.0837626317006018e-05
  outer loop
    vertex -305.0698739643222 -13.296961463338883 1.5922531811401393
    vertex -305.06982276518187 -11.416339938819357 -0.3891814527553242
    vertex -305.0698739643222 -12.900832246377847 1.3905845962062475
  endloop
endfacet
facet normal 0.9999999999332692 4.000973123884512e-06 -1.0837626317006018e-05
  outer loop
    vertex -305.0698739643222 -12.900832246377847 1.3905845962062475
    vertex -305.06982276518187 -11.416339938819357 -0.3891814527553242
    vertex -305.0698739643222 -12.479526374426332 1.243694245959309
  endloop
endfacet
facet normal 0.9999999999332692 4.000973123884512e-06 -1.0837626317006018e-05
  outer loop
    vertex -305.0698739643222 -12.479526374426332 1.243694245959309
    vertex -305.06982276518187 -11.416339938819357 -0.3891814527553242
    vertex -305.0698739643222 -12.041161622354903 1.1544124322615557
  endloop
endfacet
facet normal 0.9999999999332692 4.000973123884512e-06 -1.0837626317006018e-05
  outer loop
    vertex -305.0698739643222 -12.041161622354903 1.1544124322615557
    vertex -305.06982276518187 -11.416339938819357 -0.3891814527553242
    vertex -305.0698208147836 -11.594184457695514 1.1244594484007926
  endloop
endfacet
facet normal 0.9999999999332692 4.000973123884512e-06 -1.0837626317006018e-05
  outer loop
    vertex -305.0698208147836 -11.594184457695514 1.1244594484007926
    vertex -305.06982276518187 -11.416339938819357 -0.3891814527553242
    vertex -305.07017470370533 -11.147207293036107 1.1544124322615557
  endloop
endfacet
facet normal 0.9999999999332692 4.000973123884512e-06 -1.0837626317006018e-05
  outer loop
    vertex -305.07017470370533 -11.147207293036107 1.1544124322615557
    vertex -305.06982276518187 -11.416339938819357 -0.3891814527553242
    vertex -305.06982276518187 -5.95832173881935 -0.3891814527553242
  endloop
endfacet
facet normal 0.9999999999332692 4.000973123884512e-06 -1.0837626317006018e-05
  outer loop
    vertex -305.07017470370533 -11.147207293036107 1.1544124322615557
    vertex -305.06982276518187 -5.95832173881935 -0.3891814527553242
    vertex -305.07017470370533 -10.708842540964678 1.243694245959309
  endloop
endfacet
facet normal 0.9999999999332692 4.000973123884512e-06 -1.0837626317006018e-05
  outer loop
    vertex -305.07017470370533 -10.708842540964678 1.243694245959309
    vertex -305.06982276518187 -5.95832173881935 -0.3891814527553242
    vertex -305.07017470370533 -10.287536669013162 1.3905845962062475
  endloop
endfacet
facet normal 0.9999999999332692 4.000973123884512e-06 -1.0837626317006018e-05
  outer loop
    vertex -305.07017470370533 -10.287536669013162 1.3905845962062475
    vertex -305.06982276518187 -5.95832173881935 -0.3891814527553242
    vertex -305.07017470370533 -9.891407452052126 1.5922531811401326
  endloop
endfacet
facet normal 0.9999999999332692 4.000973123884512e-06 -1.0837626317006018e-05
  outer loop
    vertex -305.07017470370533 -9.891407452052126 1.5922531811401326
    vertex -305.06982276518187 -5.95832173881935 -0.3891814527553242
    vertex -305.07017470370533 -9.528087557976784 1.844814224938854
  endloop
endfacet
facet normal 0.9999999999332692 4.000973123884512e-06 -1.0837626317006018e-05
  outer loop
    vertex -305.07017470370533 -9.528087557976784 1.844814224938854
    vertex -305.06982276518187 -5.95832173881935 -0.3891814527553242
    vertex -305.0698208147836 -9.204577480495967 2.1434013494407917
  endloop
endfacet
facet normal 0.9999999999332692 4.000973123884512e-06 -1.0837626317006018e-05
  outer loop
    vertex -305.0698208147836 -9.204577480495967 2.1434013494407917
    vertex -305.06982276518187 -5.95832173881935 -0.3891814527553242
    vertex -305.0698208147836 -9.204577480495967 5.833848282480805
  endloop
endfacet
facet normal 0.9999999999332692 4.000973123884512e-06 -1.0837626317006018e-05
  outer loop
    vertex -305.0698208147836 -9.204577480495967 5.833848282480805
    vertex -305.06982276518187 -5.95832173881935 -0.3891814527553242
    vertex -305.0698208147836 -8.894234672719897 5.833848282480805
  endloop
endfacet
facet normal 0.9999999999332692 4.000973123884512e-06 -1.0837626317006018e-05
  outer loop
    vertex -305.0698208147836 -8.894234672719897 5.833848282480805
    vertex -305.06982276518187 -5.95832173881935 -0.3891814527553242
    vertex -305.0698208147836 -4.5833958760968905 5.833848282480805
  endloop
endfacet
facet normal 0.9999999999332692 4.000973123884512e-06 -1.0837626317006018e-05
  outer loop
    vertex -305.0698208147836 -4.5833958760968905 5.833848282480805
    vertex -305.06982276518187 -5.95832173881935 -0.3891814527553242
    vertex -305.06982276518187 -4.823315538819354 -0.3891814527553242
  endloop
endfacet
facet normal 0.9999999999332692 4.000973123884512e-06 -1.0837626317006018e-05
  outer loop
    vertex -305.0698208147836 -4.5833958760968905 5.833848282480805
    vertex -305.06982276518187 -4.823315538819354 -0.3891814527553242
    vertex -305.06991494802236 -4.5833958760968905 -0.38918142396203187
  endloop
endfacet
facet normal 0.9999999999332692 4.000973123884512e-06 -1.0837626317006018e-05
  outer loop
    vertex -305.06982276518187 -15.895966438819356 -0.3891814527553242
    vertex -305.0698208147836 -18.18781742609689 5.833848282480805
    vertex -305.06982178998277 -18.18781742609689 -0.3891814527553239
  endloop
endfacet
facet normal 0.9999999999332692 4.000973123884512e-06 -1.0837626317006018e-05
  outer loop
    vertex -305.0698208147836 -18.18781742609689 5.833848282480805
    vertex -305.06982276518187 -15.895966438819356 -0.3891814527553242
    vertex -305.0698208147836 -13.983791434895025 5.833848282480805
  endloop
endfacet
facet normal 0.9999999999332692 4.000973123884512e-06 -1.0837626317006018e-05
  outer loop
    vertex -305.0698208147836 -13.983791434895025 5.833848282480805
    vertex -305.06982276518187 -15.895966438819356 -0.3891814527553242
    vertex -305.0698739643222 -13.983791434895025 2.1434013494407953
  endloop
endfacet
facet normal -0.0 -0.0 1.0
  outer loop
    vertex -301.58090890300093 -6.8924897230512085 2.0436226192340614
    vertex -302.3119206223742 -6.736418373051175 2.0436226192340614
    vertex -302.3119206223742 -6.8924897230512085 2.0436226192340614
  endloop
endfacet
facet normal -0.0 -0.0 1.0
  outer loop
    vertex -302.3119206223742 -6.736418373051175 2.0436226192340614
    vertex -301.58090890300093 -6.8924897230512085 2.0436226192340614
    vertex -301.58090890300093 -6.736418373051175 2.0436226192340614
  endloop
endfacet
facet normal -0.0 -0.0 1.0
  outer loop
    vertex -304.4413133585274 -8.894234672719897 5.9997018831208
    vertex -305.0698208147836 -6.895825085206314 5.9997018831208
    vertex -305.0698208147836 -8.894234672719897 5.9997018831208
  endloop
endfacet
facet normal -0.0 -0.0 1.0
  outer loop
    vertex -305.0698208147836 -6.895825085206314 5.9997018831208
    vertex -304.4413133585274 -8.894234672719897 5.9997018831208
    vertex -304.2896272146536 -8.243050682285897 5.9997018831208
  endloop
endfacet
facet normal -0.0 0.6782340328820053 0.734845967969214
  outer loop
    vertex -305.0698739643222 -13.983791434895025 2.1434013494407953
    vertex -305.1932233002946 -13.660281357414226 1.8448142249388562
    vertex -305.1932233002946 -13.983791434895025 2.1434013494407953
  endloop
endfacet
facet normal -0.0 0.6782340328820053 0.734845967969214
  outer loop
    vertex -305.1932233002946 -13.660281357414226 1.8448142249388562
    vertex -305.0698739643222 -13.983791434895025 2.1434013494407953
    vertex -305.0698739643222 -13.660281357414226 1.8448142249388562
  endloop
endfacet
facet normal -7.745426367163633e-18 -0.0668623761128338 0.9977622074725752
  outer loop
    vertex -305.0698208147836 -11.594184457695514 1.1244594484007926
    vertex -305.1932233002946 -11.147207293036107 1.1544124322615557
    vertex -305.1932233002946 -11.594184457695514 1.1244594484007926
  endloop
endfacet
facet normal -7.745426367163633e-18 -0.0668623761128338 0.9977622074725752
  outer loop
    vertex -305.1932233002946 -11.147207293036107 1.1544124322615557
    vertex -305.0698208147836 -11.594184457695514 1.1244594484007926
    vertex -305.07017470370533 -11.147207293036107 1.1544124322615557
  endloop
endfacet
facet normal -3.4453287391222135e-18 0.06686237611283648 0.9977622074725749
  outer loop
    vertex -305.0698739643222 -12.041161622354903 1.1544124322615557
    vertex -305.1932233002946 -11.594184457695514 1.1244594484007926
    vertex -305.1932233002946 -12.041161622354903 1.1544124322615557
  endloop
endfacet
facet normal -3.4453287391222135e-18 0.06686237611283648 0.9977622074725749
  outer loop
    vertex -305.1932233002946 -11.594184457695514 1.1244594484007926
    vertex -305.0698739643222 -12.041161622354903 1.1544124322615557
    vertex -305.0698208147836 -11.594184457695514 1.1244594484007926
  endloop
endfacet
facet normal -0.0001492235363399626 -0.00018427347908826628 -0.9999999718878102
  outer loop
    vertex -301.57992404070285 -16.934005176205964 2.4485907725630978
    vertex -302.3119206223742 -17.131695349401284 2.4487364247366386
    vertex -302.3119206223742 -16.9340920967639 2.4487364247366386
  endloop
endfacet
facet normal -0.0001492235363399626 -0.00018427347908826628 -0.9999999718878102
  outer loop
    vertex -302.3119206223742 -17.131695349401284 2.4487364247366386
    vertex -301.57992404070285 -16.934005176205964 2.4485907725630978
    vertex -301.57992404070285 -17.131695349401284 2.4486635986498726
  endloop
endfacet
facet normal -2.6597867949304932e-12 -1.5539183905415967e-14 1.0
  outer loop
    vertex -305.0698208147836 -8.894234672719897 5.9997018831208
    vertex -305.1932233002936 -7.894171857155911 5.999701883119819
    vertex -305.1932233002946 -8.894234672719897 5.9997018831208
  endloop
endfacet
facet normal -2.6597867949304932e-12 -1.5539183905415967e-14 1.0
  outer loop
    vertex -305.1932233002936 -7.894171857155911 5.999701883119819
    vertex -305.0698208147836 -6.895825085206314 5.9997018831208
    vertex -305.1932233002946 -6.682735683811659 5.9997018831208
  endloop
endfacet
facet normal -2.6597867949304932e-12 -1.5539183905415967e-14 1.0
  outer loop
    vertex -305.0698208147836 -6.895825085206314 5.9997018831208
    vertex -305.1932233002936 -7.894171857155911 5.999701883119819
    vertex -305.0698208147836 -8.894234672719897 5.9997018831208
  endloop
endfacet
facet normal -0.00019897930417177344 -2.1165406729017187e-09 -0.9999999802036181
  outer loop
    vertex -301.5797821120348 -6.7363314498558085 2.4466376838870953
    vertex -302.31175747724393 -6.892489720413741 2.446783332169334
    vertex -302.31177869370623 -6.736418370413744 2.446783336060633
  endloop
endfacet
facet normal -0.00019897930417177344 -2.1165406729017187e-09 -0.9999999802036181
  outer loop
    vertex -302.31175747724393 -6.892489720413741 2.446783332169334
    vertex -301.5797821120348 -6.7363314498558085 2.4466376838870953
    vertex -301.57976089557286 -6.892402799855806 2.446637679995783
  endloop
endfacet
facet normal -1.0 0.0 0.0
  outer loop
    vertex -304.2896272146536 -18.18781742609689 5.833848282480805
    vertex -304.2896272146536 -18.3412464760969 5.051464812888382
    vertex -304.2896272146536 -18.3412464760969 5.833848282480805
  endloop
endfacet
facet normal -1.0 0.0 0.0
  outer loop
    vertex -304.2896272146536 -18.3412464760969 5.051464812888382
    vertex -304.2896272146536 -18.18781742609689 5.833848282480805
    vertex -304.2896272146536 -18.18781742609689 4.903315461421492
  endloop
endfacet
facet normal -0.0 0.19957291090385684 0.9798829793569034
  outer loop
    vertex -305.0698739643222 -12.479526374426332 1.243694245959309
    vertex -305.1932233002946 -12.041161622354903 1.1544124322615557
    vertex -305.1932233002946 -12.479526374426332 1.243694245959309
  endloop
endfacet
facet normal -0.0 0.19957291090385684 0.9798829793569034
  outer loop
    vertex -305.1932233002946 -12.041161622354903 1.1544124322615557
    vertex -305.0698739643222 -12.479526374426332 1.243694245959309
    vertex -305.0698739643222 -12.041161622354903 1.1544124322615557
  endloop
endfacet
facet normal -0.0 0.3292186683877094 0.9442537097544408
  outer loop
    vertex -305.0698739643222 -12.900832246377847 1.3905845962062475
    vertex -305.1932233002946 -12.479526374426332 1.243694245959309
    vertex -305.1932233002946 -12.900832246377847 1.3905845962062475
  endloop
endfacet
facet normal -0.0 0.3292186683877094 0.9442537097544408
  outer loop
    vertex -305.1932233002946 -12.479526374426332 1.243694245959309
    vertex -305.0698739643222 -12.900832246377847 1.3905845962062475
    vertex -305.0698739643222 -12.479526374426332 1.243694245959309
  endloop
endfacet
facet normal -0.0 -0.0 1.0
  outer loop
    vertex -302.3115032944658 -6.8924897230512085 4.603643169157976
    vertex -304.2896272146536 -6.736418373051175 4.603643169157976
    vertex -304.2896272146536 -6.8924897230512085 4.603643169157976
  endloop
endfacet
facet normal -0.0 -0.0 1.0
  outer loop
    vertex -304.2896272146536 -6.736418373051175 4.603643169157976
    vertex -302.3115032944658 -6.8924897230512085 4.603643169157976
    vertex -302.3115032944658 -6.736418373051175 4.603643169157976
  endloop
endfacet
facet normal 4.3504346348392894e-14 -0.6946211043402094 -0.7193757859458351
  outer loop
    vertex -304.2896272146536 -17.87897327609691 4.605099051120792
    vertex -304.40141162711785 -18.3412464760969 5.051464812888382
    vertex -304.40141162711785 -17.87897327609691 4.605099051120792
  endloop
endfacet
facet normal 4.3504346348392894e-14 -0.6946211043402094 -0.7193757859458351
  outer loop
    vertex -304.40141162711785 -18.3412464760969 5.051464812888382
    vertex -304.2896272146536 -17.87897327609691 4.605099051120792
    vertex -304.2896272146536 -18.3412464760969 5.051464812888382
  endloop
endfacet
facet normal 4.3504346348392894e-14 -0.6946211043402094 -0.7193757859458351
  outer loop
    vertex -304.2896272146536 -18.3412464760969 5.051464812888382
    vertex -304.2896272146536 -17.87897327609691 4.605099051120792
    vertex -304.2896272146536 -18.18781742609689 4.903315461421492
  endloop
endfacet
facet normal -0.0 -0.5707854001469559 0.821099279611838
  outer loop
    vertex -305.07017470370533 -9.891407452052126 1.5922531811401326
    vertex -305.1932233002946 -9.528087557976784 1.844814224938854
    vertex -305.1932233002946 -9.891407452052126 1.5922531811401326
  endloop
endfacet
facet normal -0.0 -0.5707854001469559 0.821099279611838
  outer loop
    vertex -305.1932233002946 -9.528087557976784 1.844814224938854
    vertex -305.07017470370533 -9.891407452052126 1.5922531811401326
    vertex -305.07017470370533 -9.528087557976784 1.844814224938854
  endloop
endfacet
facet normal -3.4353545809014596e-12 -7.783493148914635e-15 1.0
  outer loop
    vertex -305.0698208147836 -18.3412464760969 5.9997018831208
    vertex -305.193223300294 -17.821450082461343 5.999701883119702
    vertex -305.1932233002946 -18.3412464760969 5.9997018831208
  endloop
endfacet
facet normal -3.4353545809014596e-12 -7.783493148914635e-15 1.0
  outer loop
    vertex -305.193223300294 -17.821450082461343 5.999701883119702
    vertex -305.0698208147836 -18.3412464760969 5.9997018831208
    vertex -305.1932233002933 -14.802637581256507 5.999701883119783
  endloop
endfacet
facet normal -3.4353545809014596e-12 -7.783493148914635e-15 1.0
  outer loop
    vertex -305.1932233002933 -14.802637581256507 5.999701883119783
    vertex -305.0698208147836 -14.435100601096888 5.9997018831208
    vertex -305.1932233002946 -14.435100601096888 5.9997018831208
  endloop
endfacet
facet normal -3.4353545809014596e-12 -7.783493148914635e-15 1.0
  outer loop
    vertex -305.0698208147836 -14.435100601096888 5.9997018831208
    vertex -305.1932233002933 -14.802637581256507 5.999701883119783
    vertex -305.0698208147836 -18.3412464760969 5.9997018831208
  endloop
endfacet
facet normal -3.4353545809014596e-12 -7.783493148914635e-15 1.0
  outer loop
    vertex -305.1932233002933 -14.802637581256507 5.999701883119783
    vertex -305.1932233002946 -16.08387431838211 5.9997018831208
    vertex -305.193223300294 -17.821450082461343 5.999701883119702
  endloop
endfacet
facet normal -0.0 1.0 -0.0
  outer loop
    vertex -302.3119206223742 -6.736418373051175 2.0436226192340614
    vertex -301.58090890300093 -6.736418373051175 1.0443075246766227
    vertex -302.3119206223742 -6.736418373051175 1.0443075246766227
  endloop
endfacet
facet normal -0.0 1.0 -0.0
  outer loop
    vertex -301.58090890300093 -6.736418373051175 1.0443075246766227
    vertex -302.3119206223742 -6.736418373051175 2.0436226192340614
    vertex -301.58090890300093 -6.736418373051175 2.0436226192340614
  endloop
endfacet
facet normal -0.0 1.0 -0.0
  outer loop
    vertex -305.1932233002946 -13.983791434895025 5.9997018831208
    vertex -305.0698739643222 -13.983791434895025 2.1434013494407953
    vertex -305.1932233002946 -13.983791434895025 2.1434013494407953
  endloop
endfacet
facet normal -0.0 1.0 -0.0
  outer loop
    vertex -305.0698739643222 -13.983791434895025 2.1434013494407953
    vertex -305.1932233002946 -13.983791434895025 5.9997018831208
    vertex -305.0698208147836 -13.983791434895025 5.833848282480805
  endloop
endfacet
facet normal -0.0 1.0 -0.0
  outer loop
    vertex -305.0698208147836 -13.983791434895025 5.833848282480805
    vertex -305.1932233002946 -13.983791434895025 5.9997018831208
    vertex -305.0698208147836 -13.983791434895025 5.9997018831208
  endloop
endfacet
facet normal 0.0 -1.0 0.0
  outer loop
    vertex -305.0698208147836 -9.204577480495967 5.833848282480805
    vertex -305.1932233002946 -9.204577480495967 2.1434013494407917
    vertex -305.0698208147836 -9.204577480495967 2.1434013494407917
  endloop
endfacet
facet normal 0.0 -1.0 0.0
  outer loop
    vertex -305.1932233002946 -9.204577480495967 2.1434013494407917
    vertex -305.0698208147836 -9.204577480495967 5.833848282480805
    vertex -305.1932233002946 -9.204577480495967 5.9997018831208
  endloop
endfacet
facet normal 0.0 -1.0 0.0
  outer loop
    vertex -305.1932233002946 -9.204577480495967 5.9997018831208
    vertex -305.0698208147836 -9.204577480495967 5.833848282480805
    vertex -305.0698208147836 -9.204577480495967 5.9997018831208
  endloop
endfacet
facet normal -4.154402335745149e-12 8.426920770026955e-14 1.0
  outer loop
    vertex -305.0698208147836 -6.895825085206314 5.9997018831208
    vertex -305.1932233002938 -4.920371871658453 5.999701883118581
    vertex -305.1932233002946 -6.682735683811659 5.9997018831208
  endloop
endfacet
facet normal -4.154402335745149e-12 8.426920770026955e-14 1.0
  outer loop
    vertex -305.1932233002938 -4.920371871658453 5.999701883118581
    vertex -305.1932233002946 -4.425363526096884 5.9997018831208
    vertex -305.1932233002946 -4.605778576096885 5.9997018831208
  endloop
endfacet
facet normal -4.154402335745149e-12 8.426920770026955e-14 1.0
  outer loop
    vertex -305.1932233002946 -4.425363526096884 5.9997018831208
    vertex -305.1932233002938 -4.920371871658453 5.999701883118581
    vertex -305.0698208147836 -4.425363526096884 5.9997018831208
  endloop
endfacet
facet normal -4.154402335745149e-12 8.426920770026955e-14 1.0
  outer loop
    vertex -305.0698208147836 -4.425363526096884 5.9997018831208
    vertex -305.1932233002938 -4.920371871658453 5.999701883118581
    vertex -305.0698208147836 -6.895825085206314 5.9997018831208
  endloop
endfacet
facet normal -0.0 -0.19957291090385684 0.9798829793569034
  outer loop
    vertex -305.07017470370533 -11.147207293036107 1.1544124322615557
    vertex -305.1932233002946 -10.708842540964678 1.243694245959309
    vertex -305.1932233002946 -11.147207293036107 1.1544124322615557
  endloop
endfacet
facet normal -0.0 -0.19957291090385684 0.9798829793569034
  outer loop
    vertex -305.1932233002946 -10.708842540964678 1.243694245959309
    vertex -305.07017470370533 -11.147207293036107 1.1544124322615557
    vertex -305.07017470370533 -10.708842540964678 1.243694245959309
  endloop
endfacet
facet normal -1.0 0.0 0.0
  outer loop
    vertex -298.53050017228753 -16.93409209893846 0.6069011695131444
    vertex -298.53050017228753 -17.131695349401284 -0.38918142396203215
    vertex -298.53050017228753 -17.131695349401284 0.6069011695131444
  endloop
endfacet
facet normal -1.0 0.0 0.0
  outer loop
    vertex -298.53050017228753 -17.131695349401284 -0.38918142396203215
    vertex -298.53050017228753 -16.93409209893846 0.6069011695131444
    vertex -298.53050017228753 -16.93409209940131 -0.38918142396203215
  endloop
endfacet
facet normal -0.0 -0.0 1.0
  outer loop
    vertex -305.0698208147836 -14.435100601096888 5.9997018831208
    vertex -305.1932233002946 -13.983791434895025 5.9997018831208
    vertex -305.1932233002946 -14.435100601096888 5.9997018831208
  endloop
endfacet
facet normal -0.0 -0.0 1.0
  outer loop
    vertex -305.1932233002946 -13.983791434895025 5.9997018831208
    vertex -305.0698208147836 -14.435100601096888 5.9997018831208
    vertex -305.0698208147836 -13.983791434895025 5.9997018831208
  endloop
endfacet
facet normal 1.0 -0.0 -0.0
  outer loop
    vertex -304.2896272146536 -13.983791434895025 5.833848282480805
    vertex -304.2896272146536 -18.18781742609689 5.9997018831208
    vertex -304.2896272146536 -18.18781742609689 5.833848282480805
  endloop
endfacet
facet normal 1.0 -0.0 -0.0
  outer loop
    vertex -304.2896272146536 -18.18781742609689 5.9997018831208
    vertex -304.2896272146536 -13.983791434895025 5.833848282480805
    vertex -304.2896272146536 -14.435100601096888 5.9997018831208
  endloop
endfacet
facet normal 1.0 -0.0 -0.0
  outer loop
    vertex -304.2896272146536 -16.93409209940131 -0.38918142396203215
    vertex -304.2896272146536 -17.131695349401284 4.605099051120792
    vertex -304.2896272146536 -17.131695349401284 -0.38918142396203215
  endloop
endfacet
facet normal 1.0 -0.0 -0.0
  outer loop
    vertex -304.2896272146536 -17.131695349401284 4.605099051120792
    vertex -304.2896272146536 -16.93409209940131 -0.38918142396203215
    vertex -304.2896272146536 -16.93409209940131 4.605099051120792
  endloop
endfacet
facet normal -0.0 -0.0 1.0
  outer loop
    vertex -304.2896272146536 -8.243050682285897 5.9997018831208
    vertex -304.4413133585274 -8.894234672719897 5.9997018831208
    vertex -304.2896272146536 -8.894234672719897 5.9997018831208
  endloop
endfacet
facet normal -1.0 0.0 0.0
  outer loop
    vertex -302.3119206223742 -16.9340920967639 2.4487364247366386
    vertex -302.3119206223742 -17.131695349401284 2.0301290996209858
    vertex -302.3119206223742 -17.131695349401284 2.4487364247366386
  endloop
endfacet
facet normal -1.0 0.0 0.0
  outer loop
    vertex -302.3119206223742 -17.131695349401284 2.0301290996209858
    vertex -302.3119206223742 -16.9340920967639 2.4487364247366386
    vertex -302.3119206223742 -16.934092097152885 2.0301290996209858
  endloop
endfacet
facet normal -0.0 1.0 -0.0
  outer loop
    vertex -304.2896272146536 -17.131695349401284 4.605099051120792
    vertex -302.3119206223742 -17.131695349401284 -0.38918142396203215
    vertex -304.2896272146536 -17.131695349401284 -0.38918142396203215
  endloop
endfacet
facet normal -0.0 1.0 -0.0
  outer loop
    vertex -302.3119206223742 -17.131695349401284 -0.38918142396203215
    vertex -304.2896272146536 -17.131695349401284 4.605099051120792
    vertex -302.3119206223742 -17.131695349401284 0.19244655715797074
  endloop
endfacet
facet normal -0.0 1.0 -0.0
  outer loop
    vertex -302.3119206223742 -17.131695349401284 0.19244655715797074
    vertex -304.2896272146536 -17.131695349401284 4.605099051120792
    vertex -302.3119206223742 -17.131695349401284 0.6069011695131444
  endloop
endfacet
facet normal -0.0 1.0 -0.0
  outer loop
    vertex -302.3119206223742 -17.131695349401284 0.6069011695131444
    vertex -304.2896272146536 -17.131695349401284 4.605099051120792
    vertex -302.3119206223742 -17.131695349401284 1.0308140050635481
  endloop
endfacet
facet normal -0.0 1.0 -0.0
  outer loop
    vertex -302.3119206223742 -17.131695349401284 1.0308140050635481
    vertex -304.2896272146536 -17.131695349401284 4.605099051120792
    vertex -302.3119206223742 -17.131695349401284 2.0301290996209858
  endloop
endfacet
facet normal -0.0 1.0 -0.0
  outer loop
    vertex -302.3119206223742 -17.131695349401284 2.0301290996209858
    vertex -304.2896272146536 -17.131695349401284 4.605099051120792
    vertex -302.3119206223742 -17.131695349401284 2.4487364247366386
  endloop
endfacet
facet normal -0.0 1.0 -0.0
  outer loop
    vertex -302.3119206223742 -17.131695349401284 2.4487364247366386
    vertex -301.57992404070285 -17.131695349401284 4.605099051120792
    vertex -301.57992404070285 -17.131695349401284 2.4486635986498726
  endloop
endfacet
facet normal -0.0 1.0 -0.0
  outer loop
    vertex -301.57992404070285 -17.131695349401284 4.605099051120792
    vertex -302.3119206223742 -17.131695349401284 2.4487364247366386
    vertex -304.2896272146536 -17.131695349401284 4.605099051120792
  endloop
endfacet
facet normal -1.0 0.0 0.0
  outer loop
    vertex -302.3119206223742 -16.934092097152885 2.0301290996209858
    vertex -302.3119206223742 -17.131695349401284 1.0308140050635481
    vertex -302.3119206223742 -17.131695349401284 2.0301290996209858
  endloop
endfacet
facet normal -1.0 0.0 0.0
  outer loop
    vertex -302.3119206223742 -17.131695349401284 1.0308140050635481
    vertex -302.3119206223742 -16.934092097152885 2.0301290996209858
    vertex -302.3119206223742 -16.93156239940134 1.0308140050635481
  endloop
endfacet
facet normal -1.0 0.0 0.0
  outer loop
    vertex -302.3119206223742 -16.93156239940134 1.0308140050635481
    vertex -302.3119206223742 -16.934092097152885 2.0301290996209858
    vertex -302.3119206223742 -16.93156239940134 2.028388763849232
  endloop
endfacet
facet normal -4.0756183038660227e-17 -0.6782340328819835 0.7348459679692342
  outer loop
    vertex -305.07017470370533 -9.528087557976784 1.844814224938854
    vertex -305.1932233002946 -9.204577480495967 2.1434013494407917
    vertex -305.1932233002946 -9.528087557976784 1.844814224938854
  endloop
endfacet
facet normal -4.0756183038660227e-17 -0.6782340328819835 0.7348459679692342
  outer loop
    vertex -305.1932233002946 -9.204577480495967 2.1434013494407917
    vertex -305.07017470370533 -9.528087557976784 1.844814224938854
    vertex -305.0698208147836 -9.204577480495967 2.1434013494407917
  endloop
endfacet
facet normal -0.0 -0.32921866838770947 0.9442537097544408
  outer loop
    vertex -305.07017470370533 -10.708842540964678 1.243694245959309
    vertex -305.1932233002946 -10.287536669013162 1.3905845962062475
    vertex -305.1932233002946 -10.708842540964678 1.243694245959309
  endloop
endfacet
facet normal -0.0 -0.32921866838770947 0.9442537097544408
  outer loop
    vertex -305.1932233002946 -10.287536669013162 1.3905845962062475
    vertex -305.07017470370533 -10.708842540964678 1.243694245959309
    vertex -305.07017470370533 -10.287536669013162 1.3905845962062475
  endloop
endfacet
facet normal -1.0 4.3582810275492664e-14 1.1967587989013226e-13
  outer loop
    vertex -305.1932233002946 -8.894234672719897 5.9997018831208
    vertex -305.1932233002946 -9.204577480495967 2.1434013494407917
    vertex -305.1932233002946 -9.204577480495967 5.9997018831208
  endloop
endfacet
facet normal -1.0 4.3582810275492664e-14 1.1967587989013226e-13
  outer loop
    vertex -305.193223300294 -17.821450082461343 5.999701883119702
    vertex -305.1932233002946 -18.3412464760969 0.1963608574779709
    vertex -305.1932233002946 -18.3412464760969 5.9997018831208
  endloop
endfacet
facet normal -1.0 4.3582810275492664e-14 1.1967587989013226e-13
  outer loop
    vertex -305.1932233002946 -18.3412464760969 0.1963608574779709
    vertex -305.193223300294 -17.821450082461343 5.999701883119702
    vertex -305.19322330029763 -18.341246476095346 -0.389181423961967
  endloop
endfacet
facet normal -1.0 4.3582810275492664e-14 1.1967587989013226e-13
  outer loop
    vertex -305.19322330029763 -18.341246476095346 -0.389181423961967
    vertex -305.193223300294 -17.821450082461343 5.999701883119702
    vertex -305.1932233002946 -13.983791434895025 2.1434013494407953
  endloop
endfacet
facet normal -1.0 4.3582810275492664e-14 1.1967587989013226e-13
  outer loop
    vertex -305.19322330029763 -18.341246476095346 -0.389181423961967
    vertex -305.1932233002946 -13.983791434895025 2.1434013494407953
    vertex -305.1932233002946 -13.660281357414226 1.8448142249388562
  endloop
endfacet
facet normal -1.0 4.3582810275492664e-14 1.1967587989013226e-13
  outer loop
    vertex -305.19322330029763 -18.341246476095346 -0.389181423961967
    vertex -305.1932233002946 -13.660281357414226 1.8448142249388562
    vertex -305.1932233002946 -13.296961463338883 1.5922531811401393
  endloop
endfacet
facet normal -1.0 4.3582810275492664e-14 1.1967587989013226e-13
  outer loop
    vertex -305.19322330029763 -18.341246476095346 -0.389181423961967
    vertex -305.1932233002946 -13.296961463338883 1.5922531811401393
    vertex -305.1932233002946 -12.900832246377847 1.3905845962062475
  endloop
endfacet
facet normal -1.0 4.3582810275492664e-14 1.1967587989013226e-13
  outer loop
    vertex -305.19322330029763 -18.341246476095346 -0.389181423961967
    vertex -305.1932233002946 -12.900832246377847 1.3905845962062475
    vertex -305.1932233002946 -12.479526374426332 1.243694245959309
  endloop
endfacet
facet normal -1.0 4.3582810275492664e-14 1.1967587989013226e-13
  outer loop
    vertex -305.19322330029763 -18.341246476095346 -0.389181423961967
    vertex -305.1932233002946 -12.479526374426332 1.243694245959309
    vertex -305.19322330029456 -4.605778576096885 -0.3891814239620313
  endloop
endfacet
facet normal -1.0 4.3582810275492664e-14 1.1967587989013226e-13
  outer loop
    vertex -305.1932233002946 -13.983791434895025 2.1434013494407953
    vertex -305.193223300294 -17.821450082461343 5.999701883119702
    vertex -305.1932233002946 -16.08387431838211 5.9997018831208
  endloop
endfacet
facet normal -1.0 4.3582810275492664e-14 1.1967587989013226e-13
  outer loop
    vertex -305.1932233002946 -13.983791434895025 2.1434013494407953
    vertex -305.1932233002946 -16.08387431838211 5.9997018831208
    vertex -305.1932233002933 -14.802637581256507 5.999701883119783
  endloop
endfacet
facet normal -1.0 4.3582810275492664e-14 1.1967587989013226e-13
  outer loop
    vertex -305.1932233002946 -13.983791434895025 2.1434013494407953
    vertex -305.1932233002933 -14.802637581256507 5.999701883119783
    vertex -305.1932233002946 -14.435100601096888 5.9997018831208
  endloop
endfacet
facet normal -1.0 4.3582810275492664e-14 1.1967587989013226e-13
  outer loop
    vertex -305.1932233002946 -13.983791434895025 2.1434013494407953
    vertex -305.1932233002946 -14.435100601096888 5.9997018831208
    vertex -305.1932233002946 -13.983791434895025 5.9997018831208
  endloop
endfacet
facet normal -1.0 4.3582810275492664e-14 1.1967587989013226e-13
  outer loop
    vertex -305.19322330029456 -4.605778576096885 -0.3891814239620313
    vertex -305.1932233002946 -12.479526374426332 1.243694245959309
    vertex -305.1932233002946 -12.041161622354903 1.1544124322615557
  endloop
endfacet
facet normal -1.0 4.3582810275492664e-14 1.1967587989013226e-13
  outer loop
    vertex -305.19322330029456 -4.605778576096885 -0.3891814239620313
    vertex -305.1932233002946 -12.041161622354903 1.1544124322615557
    vertex -305.1932233002946 -11.594184457695514 1.1244594484007926
  endloop
endfacet
facet normal -1.0 4.3582810275492664e-14 1.1967587989013226e-13
  outer loop
    vertex -305.19322330029456 -4.605778576096885 -0.3891814239620313
    vertex -305.1932233002946 -11.594184457695514 1.1244594484007926
    vertex -305.1932233002946 -11.147207293036107 1.1544124322615557
  endloop
endfacet
facet normal -1.0 4.3582810275492664e-14 1.1967587989013226e-13
  outer loop
    vertex -305.19322330029456 -4.605778576096885 -0.3891814239620313
    vertex -305.1932233002946 -11.147207293036107 1.1544124322615557
    vertex -305.1932233002946 -10.708842540964678 1.243694245959309
  endloop
endfacet
facet normal -1.0 4.3582810275492664e-14 1.1967587989013226e-13
  outer loop
    vertex -305.19322330029456 -4.605778576096885 -0.3891814239620313
    vertex -305.1932233002946 -10.708842540964678 1.243694245959309
    vertex -305.1932233002946 -10.287536669013162 1.3905845962062475
  endloop
endfacet
facet normal -1.0 4.3582810275492664e-14 1.1967587989013226e-13
  outer loop
    vertex -305.19322330029456 -4.605778576096885 -0.3891814239620313
    vertex -305.1932233002946 -10.287536669013162 1.3905845962062475
    vertex -305.1932233002946 -9.891407452052126 1.5922531811401326
  endloop
endfacet
facet normal -1.0 4.3582810275492664e-14 1.1967587989013226e-13
  outer loop
    vertex -305.19322330029456 -4.605778576096885 -0.3891814239620313
    vertex -305.1932233002946 -9.891407452052126 1.5922531811401326
    vertex -305.1932233002946 -9.528087557976784 1.844814224938854
  endloop
endfacet
facet normal -1.0 4.3582810275492664e-14 1.1967587989013226e-13
  outer loop
    vertex -305.19322330029456 -4.605778576096885 -0.3891814239620313
    vertex -305.1932233002946 -9.528087557976784 1.844814224938854
    vertex -305.1932233002946 -9.204577480495967 2.1434013494407917
  endloop
endfacet
facet normal -1.0 4.3582810275492664e-14 1.1967587989013226e-13
  outer loop
    vertex -305.19322330029456 -4.605778576096885 -0.3891814239620313
    vertex -305.1932233002946 -9.204577480495967 2.1434013494407917
    vertex -305.1932233002946 -8.894234672719897 5.9997018831208
  endloop
endfacet
facet normal -1.0 4.3582810275492664e-14 1.1967587989013226e-13
  outer loop
    vertex -305.19322330029456 -4.605778576096885 -0.3891814239620313
    vertex -305.1932233002946 -8.894234672719897 5.9997018831208
    vertex -305.1932233002936 -7.894171857155911 5.999701883119819
  endloop
endfacet
facet normal -1.0 4.3582810275492664e-14 1.1967587989013226e-13
  outer loop
    vertex -305.19322330029456 -4.605778576096885 -0.3891814239620313
    vertex -305.1932233002936 -7.894171857155911 5.999701883119819
    vertex -305.1932233002946 -6.682735683811659 5.9997018831208
  endloop
endfacet
facet normal -1.0 4.3582810275492664e-14 1.1967587989013226e-13
  outer loop
    vertex -305.19322330029456 -4.605778576096885 -0.3891814239620313
    vertex -305.1932233002946 -6.682735683811659 5.9997018831208
    vertex -305.1932233002938 -4.920371871658453 5.999701883118581
  endloop
endfacet
facet normal -1.0 4.3582810275492664e-14 1.1967587989013226e-13
  outer loop
    vertex -305.19322330029456 -4.605778576096885 -0.3891814239620313
    vertex -305.1932233002938 -4.920371871658453 5.999701883118581
    vertex -305.1932233002946 -4.605778576096885 5.9997018831208
  endloop
endfacet
facet normal 0.0 -1.0 0.0
  outer loop
    vertex -304.2896272146536 -18.3412464760969 5.9997018831208
    vertex -304.40141162711785 -18.3412464760969 5.833848282480805
    vertex -304.2896272146536 -18.3412464760969 5.833848282480805
  endloop
endfacet
facet normal 0.0 -1.0 0.0
  outer loop
    vertex -304.40141162711785 -18.3412464760969 5.833848282480805
    vertex -304.2896272146536 -18.3412464760969 5.9997018831208
    vertex -305.0698208147836 -18.3412464760969 5.833848282480805
  endloop
endfacet
facet normal 0.0 -1.0 0.0
  outer loop
    vertex -305.0698208147836 -18.3412464760969 5.833848282480805
    vertex -304.2896272146536 -18.3412464760969 5.9997018831208
    vertex -305.0698208147836 -18.3412464760969 5.9997018831208
  endloop
endfacet
facet normal 1.0 -0.0 -0.0
  outer loop
    vertex -305.0698208147836 -13.983791434895025 5.9997018831208
    vertex -305.0698208147836 -14.435100601096888 5.9997018831208
    vertex -305.0698208147836 -13.983791434895025 5.833848282480805
  endloop
endfacet
facet normal 1.0 -0.0 -0.0
  outer loop
    vertex -302.3119206223742 -6.736418373051175 0.6218088517179693
    vertex -302.3119206223742 -6.8924897230512085 1.0443075246766227
    vertex -302.3119206223742 -6.8924897230512085 0.6218088517179693
  endloop
endfacet
facet normal 1.0 -0.0 -0.0
  outer loop
    vertex -302.3119206223742 -6.8924897230512085 1.0443075246766227
    vertex -302.3119206223742 -6.736418373051175 0.6218088517179693
    vertex -302.3119206223742 -6.736418373051175 1.0443075246766227
  endloop
endfacet
facet normal 1.0 -0.0 -0.0
  outer loop
    vertex -305.0698208147836 -4.5833958760968905 5.833848282480805
    vertex -305.0698208147836 -8.894234672719897 5.9997018831208
    vertex -305.0698208147836 -8.894234672719897 5.833848282480805
  endloop
endfacet
facet normal 1.0 -0.0 -0.0
  outer loop
    vertex -305.0698208147836 -8.894234672719897 5.9997018831208
    vertex -305.0698208147836 -4.5833958760968905 5.833848282480805
    vertex -305.0698208147836 -6.895825085206314 5.9997018831208
  endloop
endfacet
facet normal 1.0 -0.0 -0.0
  outer loop
    vertex -305.0698208147836 -6.895825085206314 5.9997018831208
    vertex -305.0698208147836 -4.5833958760968905 5.833848282480805
    vertex -305.0698208147836 -4.425363526096884 5.9997018831208
  endloop
endfacet
facet normal 1.0 -0.0 -0.0
  outer loop
    vertex -305.0698208147836 -4.425363526096884 5.9997018831208
    vertex -305.0698208147836 -4.5833958760968905 5.833848282480805
    vertex -305.0698208147836 -4.425363526096884 5.833848282480805
  endloop
endfacet
facet normal 1.0 -0.0 -0.0
  outer loop
    vertex -301.58090890300093 -16.93156239940134 1.0308140050635481
    vertex -301.58090890300093 -17.131695349401284 2.0301290996209858
    vertex -301.58090890300093 -17.131695349401284 1.0308140050635481
  endloop
endfacet
facet normal 1.0 -0.0 -0.0
  outer loop
    vertex -301.58090890300093 -17.131695349401284 2.0301290996209858
    vertex -301.58090890300093 -16.93156239940134 1.0308140050635481
    vertex -301.58090890300093 -16.93156239940134 2.0301290996209858
  endloop
endfacet
facet normal -1.6917118426412664e-06 -0.9999999999985683 4.165754680742221e-08
  outer loop
    vertex -305.0698208147836 -18.3412464760969 4.4987501593979635
    vertex -305.19322330029763 -18.341246476095346 -0.389181423961967
    vertex -305.06982276518187 -18.341246969526924 -0.3891814527553242
  endloop
endfacet
facet normal -1.6917118426412664e-06 -0.9999999999985683 4.165754680742221e-08
  outer loop
    vertex -305.19322330029763 -18.341246476095346 -0.389181423961967
    vertex -305.0698208147836 -18.3412464760969 4.4987501593979635
    vertex -305.1932233002946 -18.3412464760969 0.1963608574779709
  endloop
endfacet
facet normal -1.6917118426412664e-06 -0.9999999999985683 4.165754680742221e-08
  outer loop
    vertex -305.1932233002946 -18.3412464760969 0.1963608574779709
    vertex -305.0698208147836 -18.3412464760969 4.4987501593979635
    vertex -305.1932233002946 -18.3412464760969 5.9997018831208
  endloop
endfacet
facet normal -1.6917118426412664e-06 -0.9999999999985683 4.165754680742221e-08
  outer loop
    vertex -305.1932233002946 -18.3412464760969 5.9997018831208
    vertex -305.0698208147836 -18.3412464760969 4.4987501593979635
    vertex -305.0698208147836 -18.3412464760969 5.833848282480805
  endloop
endfacet
facet normal -1.6917118426412664e-06 -0.9999999999985683 4.165754680742221e-08
  outer loop
    vertex -305.1932233002946 -18.3412464760969 5.9997018831208
    vertex -305.0698208147836 -18.3412464760969 5.833848282480805
    vertex -305.0698208147836 -18.3412464760969 5.9997018831208
  endloop
endfacet
facet normal 1.0 -0.0 -0.0
  outer loop
    vertex -304.2896272146536 -4.425363526096884 5.833848282480805
    vertex -304.2896272146536 -4.5833958760968905 5.9997018831208
    vertex -304.2896272146536 -4.5833958760968905 5.833848282480805
  endloop
endfacet
facet normal 1.0 -0.0 -0.0
  outer loop
    vertex -304.2896272146536 -4.5833958760968905 5.9997018831208
    vertex -304.2896272146536 -4.425363526096884 5.833848282480805
    vertex -304.2896272146536 -4.425363526096884 5.9997018831208
  endloop
endfacet
facet normal -1.6402864973099178e-17 0.344939430848303 0.9386249458894904
  outer loop
    vertex -304.2896272146536 -14.435100601096888 5.9997018831208
    vertex -305.0698208147836 -13.983791434895025 5.833848282480805
    vertex -305.0698208147836 -14.435100601096888 5.9997018831208
  endloop
endfacet
facet normal -1.6402864973099178e-17 0.344939430848303 0.9386249458894904
  outer loop
    vertex -305.0698208147836 -13.983791434895025 5.833848282480805
    vertex -304.2896272146536 -14.435100601096888 5.9997018831208
    vertex -304.40141162711785 -13.983791434895025 5.833848282480805
  endloop
endfacet
facet normal -1.6402864973099178e-17 0.344939430848303 0.9386249458894904
  outer loop
    vertex -304.40141162711785 -13.983791434895025 5.833848282480805
    vertex -304.2896272146536 -14.435100601096888 5.9997018831208
    vertex -304.2896272146536 -13.983791434895025 5.833848282480805
  endloop
endfacet
facet normal 1.2330080088299422e-18 -0.47133465515856626 0.8819544448816818
  outer loop
    vertex -304.40141162711785 -9.204577480495967 5.833848282480805
    vertex -305.0698208147836 -8.894234672719897 5.9997018831208
    vertex -305.0698208147836 -9.204577480495967 5.833848282480805
  endloop
endfacet
facet normal 1.2330080088299422e-18 -0.47133465515856626 0.8819544448816818
  outer loop
    vertex -305.0698208147836 -8.894234672719897 5.9997018831208
    vertex -304.40141162711785 -9.204577480495967 5.833848282480805
    vertex -304.4413133585274 -8.894234672719897 5.9997018831208
  endloop
endfacet
facet normal 1.2330080088299422e-18 -0.47133465515856626 0.8819544448816818
  outer loop
    vertex -304.4413133585274 -8.894234672719897 5.9997018831208
    vertex -304.40141162711785 -9.204577480495967 5.833848282480805
    vertex -304.2896272146536 -8.894234672719897 5.9997018831208
  endloop
endfacet
facet normal 1.2330080088299422e-18 -0.47133465515856626 0.8819544448816818
  outer loop
    vertex -304.2896272146536 -8.894234672719897 5.9997018831208
    vertex -304.40141162711785 -9.204577480495967 5.833848282480805
    vertex -304.2896272146536 -9.204577480495967 5.833848282480805
  endloop
endfacet
facet normal 1.0 -0.0 -0.0
  outer loop
    vertex -304.2896272146536 -4.425363526096884 5.051464812888382
    vertex -304.2896272146536 -4.5833958760968905 5.833848282480805
    vertex -304.2896272146536 -4.5833958760968905 4.8992480533683915
  endloop
endfacet
facet normal 1.0 -0.0 -0.0
  outer loop
    vertex -304.2896272146536 -4.5833958760968905 5.833848282480805
    vertex -304.2896272146536 -4.425363526096884 5.051464812888382
    vertex -304.2896272146536 -4.425363526096884 5.833848282480805
  endloop
endfacet
facet normal 0.9999997554069294 -0.0006964973773006343 -6.385518489401097e-05
  outer loop
    vertex -301.57992404070285 -16.934005176205964 2.4485907725630978
    vertex -301.57992404070285 -17.131695349401284 4.605099051120792
    vertex -301.57992404070285 -17.131695349401284 2.4486635986498726
  endloop
endfacet
facet normal 0.9999997554069294 -0.0006964973773006343 -6.385518489401097e-05
  outer loop
    vertex -301.57992404070285 -17.131695349401284 4.605099051120792
    vertex -301.57992404070285 -16.934005176205964 2.4485907725630978
    vertex -301.57964864146294 -16.93400517884336 4.605450605660441
  endloop
endfacet
facet normal -1.0 -1.0903449973431713e-13 -8.7848628553281e-15
  outer loop
    vertex -305.1932233002946 -4.425363526096884 5.9997018831208
    vertex -305.19322330029456 -4.605778576096885 -0.3891814239620313
    vertex -305.1932233002946 -4.605778576096885 5.9997018831208
  endloop
endfacet
facet normal -1.0 -1.0903449973431713e-13 -8.7848628553281e-15
  outer loop
    vertex -305.19322330029456 -4.605778576096885 -0.3891814239620313
    vertex -305.1932233002946 -4.425363526096884 5.9997018831208
    vertex -305.19322330029456 -4.425363526096884 -0.38918142396203215
  endloop
endfacet
facet normal -1.0 -1.0903449973431713e-13 -8.7848628553281e-15
  outer loop
    vertex -305.19322330029456 -4.425363526096884 -0.38918142396203215
    vertex -305.1932233002946 -4.425363526096884 5.9997018831208
    vertex -305.1932233002946 -4.425363526096884 0.1963608574779709
  endloop
endfacet
facet normal 6.485527299866531e-05 0.0008895008073491252 -0.9999996022909746
  outer loop
    vertex -301.57964864146294 -16.93400517884336 4.605450605660441
    vertex -304.2896272146536 -17.131695349401284 4.605099051120792
    vertex -304.2896272146536 -16.93409209940131 4.605099051120792
  endloop
endfacet
facet normal 6.485527299866531e-05 0.0008895008073491252 -0.9999996022909746
  outer loop
    vertex -304.2896272146536 -17.131695349401284 4.605099051120792
    vertex -301.57964864146294 -16.93400517884336 4.605450605660441
    vertex -301.57992404070285 -17.131695349401284 4.605099051120792
  endloop
endfacet
facet normal -0.0 -0.0 1.0
  outer loop
    vertex -298.53050017228753 -6.8924897230512085 0.6218088517179693
    vertex -302.3119206223742 -6.736418373051175 0.6218088517179693
    vertex -302.3119206223742 -6.8924897230512085 0.6218088517179693
  endloop
endfacet
facet normal -0.0 -0.0 1.0
  outer loop
    vertex -302.3119206223742 -6.736418373051175 0.6218088517179693
    vertex -298.53050017228753 -6.8924897230512085 0.6218088517179693
    vertex -298.53050017228753 -6.736418373051175 0.6218088517179693
  endloop
endfacet
facet normal 0.0 0.0 -1.0
  outer loop
    vertex -304.40141162711785 -4.5833958760968905 5.833848282480805
    vertex -305.0698208147836 -8.894234672719897 5.833848282480805
    vertex -305.0698208147836 -4.5833958760968905 5.833848282480805
  endloop
endfacet
facet normal 0.0 0.0 -1.0
  outer loop
    vertex -305.0698208147836 -8.894234672719897 5.833848282480805
    vertex -304.40141162711785 -4.5833958760968905 5.833848282480805
    vertex -305.0698208147836 -9.204577480495967 5.833848282480805
  endloop
endfacet
facet normal 0.0 0.0 -1.0
  outer loop
    vertex -305.0698208147836 -9.204577480495967 5.833848282480805
    vertex -304.40141162711785 -4.5833958760968905 5.833848282480805
    vertex -304.40141162711785 -9.204577480495967 5.833848282480805
  endloop
endfacet
facet normal -0.0006808694320198403 0.0025340100963350404 0.999996557598899
  outer loop
    vertex -301.58090890300093 -17.131695349401284 2.0301290996209858
    vertex -302.3119206223742 -16.934092097152885 2.0301290996209858
    vertex -302.3119206223742 -17.131695349401284 2.0301290996209858
  endloop
endfacet
facet normal -0.0006808694320198403 0.0025340100963350404 0.999996557598899
  outer loop
    vertex -302.3119206223742 -16.934092097152885 2.0301290996209858
    vertex -301.58090890300093 -17.131695349401284 2.0301290996209858
    vertex -302.3119206223742 -16.93156239940134 2.028388763849232
  endloop
endfacet
facet normal -0.0006808694320198403 0.0025340100963350404 0.999996557598899
  outer loop
    vertex -302.3119206223742 -16.93156239940134 2.028388763849232
    vertex -301.58090890300093 -17.131695349401284 2.0301290996209858
    vertex -301.58090890300093 -16.93156239940134 2.0301290996209858
  endloop
endfacet
facet normal 1.0 -0.0 -0.0
  outer loop
    vertex -301.58090890300093 -6.736418373051175 1.0443075246766227
    vertex -301.58090890300093 -6.8924897230512085 2.0436226192340614
    vertex -301.58090890300093 -6.8924897230512085 1.0443075246766227
  endloop
endfacet
facet normal 1.0 -0.0 -0.0
  outer loop
    vertex -301.58090890300093 -6.8924897230512085 2.0436226192340614
    vertex -301.58090890300093 -6.736418373051175 1.0443075246766227
    vertex -301.58090890300093 -6.736418373051175 2.0436226192340614
  endloop
endfacet
facet normal -0.0 -0.0 1.0
  outer loop
    vertex -304.2896272146536 -8.243050682285897 5.9997018831208
    vertex -305.0698208147836 -4.425363526096884 5.9997018831208
    vertex -305.0698208147836 -6.895825085206314 5.9997018831208
  endloop
endfacet
facet normal -0.0 -0.0 1.0
  outer loop
    vertex -305.0698208147836 -4.425363526096884 5.9997018831208
    vertex -304.2896272146536 -8.243050682285897 5.9997018831208
    vertex -304.2896272146536 -4.425363526096884 5.9997018831208
  endloop
endfacet
facet normal -0.0 -0.0 1.0
  outer loop
    vertex -304.2896272146536 -4.425363526096884 5.9997018831208
    vertex -304.2896272146536 -8.243050682285897 5.9997018831208
    vertex -304.2896272146536 -4.5833958760968905 5.9997018831208
  endloop
endfacet
facet normal 0.0 -1.0 0.0
  outer loop
    vertex -301.58090890300093 -17.131695349401284 2.0301290996209858
    vertex -302.3119206223742 -17.131695349401284 1.0308140050635481
    vertex -301.58090890300093 -17.131695349401284 1.0308140050635481
  endloop
endfacet
facet normal 0.0 -1.0 0.0
  outer loop
    vertex -302.3119206223742 -17.131695349401284 1.0308140050635481
    vertex -301.58090890300093 -17.131695349401284 2.0301290996209858
    vertex -302.3119206223742 -17.131695349401284 2.0301290996209858
  endloop
endfacet
facet normal 0.0 0.0 -1.0
  outer loop
    vertex -304.40141162711785 -4.425363526096884 5.833848282480805
    vertex -305.0698208147836 -4.5833958760968905 5.833848282480805
    vertex -305.0698208147836 -4.425363526096884 5.833848282480805
  endloop
endfacet
facet normal 0.0 0.0 -1.0
  outer loop
    vertex -305.0698208147836 -4.5833958760968905 5.833848282480805
    vertex -304.40141162711785 -4.425363526096884 5.833848282480805
    vertex -304.40141162711785 -4.5833958760968905 5.833848282480805
  endloop
endfacet
facet normal 0.0 0.0 -1.0
  outer loop
    vertex -304.40141162711785 -18.18781742609689 5.833848282480805
    vertex -305.0698208147836 -18.3412464760969 5.833848282480805
    vertex -305.0698208147836 -18.18781742609689 5.833848282480805
  endloop
endfacet
facet normal 0.0 0.0 -1.0
  outer loop
    vertex -305.0698208147836 -18.3412464760969 5.833848282480805
    vertex -304.40141162711785 -18.18781742609689 5.833848282480805
    vertex -304.40141162711785 -18.3412464760969 5.833848282480805
  endloop
endfacet
facet normal 1.0 -0.0 -0.0
  outer loop
    vertex -305.0698208147836 -8.894234672719897 5.9997018831208
    vertex -305.0698208147836 -9.204577480495967 5.833848282480805
    vertex -305.0698208147836 -8.894234672719897 5.833848282480805
  endloop
endfacet
facet normal -0.0 -0.0 1.0
  outer loop
    vertex -298.53050017228753 -17.131695349401284 0.6069011695131444
    vertex -302.3119206223742 -16.934092098475624 0.6069011695131444
    vertex -302.3119206223742 -17.131695349401284 0.6069011695131444
  endloop
endfacet
facet normal -0.0 -0.0 1.0
  outer loop
    vertex -302.3119206223742 -16.934092098475624 0.6069011695131444
    vertex -298.53050017228753 -17.131695349401284 0.6069011695131444
    vertex -298.53050017228753 -16.93409209893846 0.6069011695131444
  endloop
endfacet
facet normal 0.0 0.0 -1.0
  outer loop
    vertex -304.2896272146536 -13.983791434895025 5.833848282480805
    vertex -304.40141162711785 -18.18781742609689 5.833848282480805
    vertex -304.40141162711785 -13.983791434895025 5.833848282480805
  endloop
endfacet
facet normal 0.0 0.0 -1.0
  outer loop
    vertex -304.40141162711785 -18.18781742609689 5.833848282480805
    vertex -304.2896272146536 -13.983791434895025 5.833848282480805
    vertex -304.40141162711785 -18.3412464760969 5.833848282480805
  endloop
endfacet
facet normal 0.0 0.0 -1.0
  outer loop
    vertex -304.40141162711785 -18.3412464760969 5.833848282480805
    vertex -304.2896272146536 -13.983791434895025 5.833848282480805
    vertex -304.2896272146536 -18.3412464760969 5.833848282480805
  endloop
endfacet
facet normal 0.0 0.0 -1.0
  outer loop
    vertex -304.2896272146536 -18.3412464760969 5.833848282480805
    vertex -304.2896272146536 -13.983791434895025 5.833848282480805
    vertex -304.2896272146536 -18.18781742609689 5.833848282480805
  endloop
endfacet
facet normal 0.0 0.0 -1.0
  outer loop
    vertex -304.40141162711785 -13.983791434895025 5.833848282480805
    vertex -305.0698208147836 -18.18781742609689 5.833848282480805
    vertex -305.0698208147836 -13.983791434895025 5.833848282480805
  endloop
endfacet
facet normal 0.0 0.0 -1.0
  outer loop
    vertex -305.0698208147836 -18.18781742609689 5.833848282480805
    vertex -304.40141162711785 -13.983791434895025 5.833848282480805
    vertex -304.40141162711785 -18.18781742609689 5.833848282480805
  endloop
endfacet
facet normal -0.0 1.0 -0.0
  outer loop
    vertex -305.0698208147836 -4.425363526096884 5.9997018831208
    vertex -304.40141162711785 -4.425363526096884 5.833848282480805
    vertex -305.0698208147836 -4.425363526096884 5.833848282480805
  endloop
endfacet
facet normal -0.0 1.0 -0.0
  outer loop
    vertex -304.40141162711785 -4.425363526096884 5.833848282480805
    vertex -305.0698208147836 -4.425363526096884 5.9997018831208
    vertex -304.2896272146536 -4.425363526096884 5.833848282480805
  endloop
endfacet
facet normal -0.0 1.0 -0.0
  outer loop
    vertex -304.2896272146536 -4.425363526096884 5.833848282480805
    vertex -305.0698208147836 -4.425363526096884 5.9997018831208
    vertex -304.2896272146536 -4.425363526096884 5.9997018831208
  endloop
endfacet
facet normal 0.0 -1.0 0.0
  outer loop
    vertex -298.53050017228753 -17.131695349401284 0.6069011695131444
    vertex -302.3119206223742 -17.131695349401284 -0.38918142396203215
    vertex -298.53050017228753 -17.131695349401284 -0.38918142396203215
  endloop
endfacet
facet normal 0.0 -1.0 0.0
  outer loop
    vertex -302.3119206223742 -17.131695349401284 -0.38918142396203215
    vertex -298.53050017228753 -17.131695349401284 0.6069011695131444
    vertex -302.3119206223742 -17.131695349401284 0.19244655715797074
  endloop
endfacet
facet normal 0.0 -1.0 0.0
  outer loop
    vertex -302.3119206223742 -17.131695349401284 0.19244655715797074
    vertex -298.53050017228753 -17.131695349401284 0.6069011695131444
    vertex -302.3119206223742 -17.131695349401284 0.6069011695131444
  endloop
endfacet
facet normal 0.0 0.0 -1.0
  outer loop
    vertex -298.53050017228753 -16.93409209940131 -0.38918142396203215
    vertex -302.3119206223742 -17.131695349401284 -0.38918142396203215
    vertex -302.3119206223742 -16.93409209940131 -0.38918142396203215
  endloop
endfacet
facet normal 0.0 0.0 -1.0
  outer loop
    vertex -302.3119206223742 -17.131695349401284 -0.38918142396203215
    vertex -298.53050017228753 -16.93409209940131 -0.38918142396203215
    vertex -298.53050017228753 -17.131695349401284 -0.38918142396203215
  endloop
endfacet
facet normal 0.0 0.0 -1.0
  outer loop
    vertex -304.2896272146536 -9.204577480495967 5.833848282480805
    vertex -304.40141162711785 -13.983791434895025 5.833848282480805
    vertex -304.40141162711785 -9.204577480495967 5.833848282480805
  endloop
endfacet
facet normal 0.0 0.0 -1.0
  outer loop
    vertex -304.40141162711785 -13.983791434895025 5.833848282480805
    vertex -304.2896272146536 -9.204577480495967 5.833848282480805
    vertex -304.2896272146536 -13.983791434895025 5.833848282480805
  endloop
endfacet
facet normal 1.0 -0.0 -0.0
  outer loop
    vertex -298.53050017228753 -6.736418373051175 -0.38918142396203215
    vertex -298.53050017228753 -6.8924897230512085 0.6218088517179693
    vertex -298.53050017228753 -6.8924897230512085 -0.38918142396203215
  endloop
endfacet
facet normal 1.0 -0.0 -0.0
  outer loop
    vertex -298.53050017228753 -6.8924897230512085 0.6218088517179693
    vertex -298.53050017228753 -6.736418373051175 -0.38918142396203215
    vertex -298.53050017228753 -6.736418373051175 0.6218088517179693
  endloop
endfacet
facet normal 1.0 -0.0 -0.0
  outer loop
    vertex -305.0698208147836 -18.18781742609689 5.833848282480805
    vertex -305.0698208147836 -18.3412464760969 5.9997018831208
    vertex -305.0698208147836 -18.3412464760969 5.833848282480805
  endloop
endfacet
facet normal 1.0 -0.0 -0.0
  outer loop
    vertex -305.0698208147836 -18.3412464760969 5.9997018831208
    vertex -305.0698208147836 -18.18781742609689 5.833848282480805
    vertex -305.0698208147836 -14.435100601096888 5.9997018831208
  endloop
endfacet
facet normal 1.0 -0.0 -0.0
  outer loop
    vertex -305.0698208147836 -14.435100601096888 5.9997018831208
    vertex -305.0698208147836 -18.18781742609689 5.833848282480805
    vertex -305.0698208147836 -13.983791434895025 5.833848282480805
  endloop
endfacet
facet normal -0.0 -0.0 1.0
  outer loop
    vertex -304.2896272146536 -18.3412464760969 5.9997018831208
    vertex -305.0698208147836 -14.435100601096888 5.9997018831208
    vertex -305.0698208147836 -18.3412464760969 5.9997018831208
  endloop
endfacet
facet normal -0.0 -0.0 1.0
  outer loop
    vertex -305.0698208147836 -14.435100601096888 5.9997018831208
    vertex -304.2896272146536 -18.3412464760969 5.9997018831208
    vertex -304.2896272146536 -14.435100601096888 5.9997018831208
  endloop
endfacet
facet normal -0.0 -0.0 1.0
  outer loop
    vertex -304.2896272146536 -14.435100601096888 5.9997018831208
    vertex -304.2896272146536 -18.3412464760969 5.9997018831208
    vertex -304.2896272146536 -18.18781742609689 5.9997018831208
  endloop
endfacet
facet normal 0.9999999999979101 -2.028954688889547e-06 -2.512362538995491e-07
  outer loop
    vertex -305.06982178998277 -18.18781742609689 -0.3891814527553239
    vertex -305.0698208147836 -18.3412464760969 4.4987501593979635
    vertex -305.06982276518187 -18.341246969526924 -0.3891814527553242
  endloop
endfacet
facet normal 0.9999999999979101 -2.028954688889547e-06 -2.512362538995491e-07
  outer loop
    vertex -305.0698208147836 -18.3412464760969 4.4987501593979635
    vertex -305.06982178998277 -18.18781742609689 -0.3891814527553239
    vertex -305.0698208147836 -18.3412464760969 5.833848282480805
  endloop
endfacet
facet normal 0.9999999999979101 -2.028954688889547e-06 -2.512362538995491e-07
  outer loop
    vertex -305.0698208147836 -18.3412464760969 5.833848282480805
    vertex -305.06982178998277 -18.18781742609689 -0.3891814527553239
    vertex -305.0698208147836 -18.18781742609689 5.833848282480805
  endloop
endfacet
facet normal 0.0 0.0 -1.0
  outer loop
    vertex -304.2896272146536 -4.425363526096884 5.833848282480805
    vertex -304.40141162711785 -4.5833958760968905 5.833848282480805
    vertex -304.40141162711785 -4.425363526096884 5.833848282480805
  endloop
endfacet
facet normal 0.0 0.0 -1.0
  outer loop
    vertex -304.40141162711785 -4.5833958760968905 5.833848282480805
    vertex -304.2896272146536 -4.425363526096884 5.833848282480805
    vertex -304.40141162711785 -9.204577480495967 5.833848282480805
  endloop
endfacet
facet normal 0.0 0.0 -1.0
  outer loop
    vertex -304.40141162711785 -9.204577480495967 5.833848282480805
    vertex -304.2896272146536 -4.425363526096884 5.833848282480805
    vertex -304.2896272146536 -9.204577480495967 5.833848282480805
  endloop
endfacet
facet normal 0.0 0.0 -1.0
  outer loop
    vertex -304.2896272146536 -9.204577480495967 5.833848282480805
    vertex -304.2896272146536 -4.425363526096884 5.833848282480805
    vertex -304.2896272146536 -4.5833958760968905 5.833848282480805
  endloop
endfacet
facet normal 0.0 0.0 -1.0
  outer loop
    vertex -302.3119206223742 -16.93409209940131 -0.38918142396203215
    vertex -304.2896272146536 -17.131695349401284 -0.38918142396203215
    vertex -304.2896272146536 -16.93409209940131 -0.38918142396203215
  endloop
endfacet
facet normal 0.0 0.0 -1.0
  outer loop
    vertex -304.2896272146536 -17.131695349401284 -0.38918142396203215
    vertex -302.3119206223742 -16.93409209940131 -0.38918142396203215
    vertex -302.3119206223742 -17.131695349401284 -0.38918142396203215
  endloop
endfacet
facet normal -0.0 -0.0 1.0
  outer loop
    vertex -305.0698208147836 -9.204577480495967 5.9997018831208
    vertex -305.1932233002946 -8.894234672719897 5.9997018831208
    vertex -305.1932233002946 -9.204577480495967 5.9997018831208
  endloop
endfacet
facet normal -0.0 -0.0 1.0
  outer loop
    vertex -305.1932233002946 -8.894234672719897 5.9997018831208
    vertex -305.0698208147836 -9.204577480495967 5.9997018831208
    vertex -305.0698208147836 -8.894234672719897 5.9997018831208
  endloop
endfacet
facet normal 4.405852180614508e-06 -0.9999999999534608 8.582947487750954e-06
  outer loop
    vertex -301.5795067127947 -6.892402802493274 4.603497516984429
    vertex -302.31175747724393 -6.892489720413741 2.446783332169334
    vertex -301.57976089557286 -6.892402799855806 2.446637679995783
  endloop
endfacet
facet normal 4.405852180614508e-06 -0.9999999999534608 8.582947487750954e-06
  outer loop
    vertex -298.53050017228753 -6.8924897230512085 0.6218088517179693
    vertex -304.2896272146536 -6.8924897230512085 -0.38918142396203215
    vertex -298.53050017228753 -6.8924897230512085 -0.38918142396203215
  endloop
endfacet
facet normal 4.405852180614508e-06 -0.9999999999534608 8.582947487750954e-06
  outer loop
    vertex -304.2896272146536 -6.8924897230512085 -0.38918142396203215
    vertex -298.53050017228753 -6.8924897230512085 0.6218088517179693
    vertex -302.3119206223742 -6.8924897230512085 0.6218088517179693
  endloop
endfacet
facet normal 4.405852180614508e-06 -0.9999999999534608 8.582947487750954e-06
  outer loop
    vertex -304.2896272146536 -6.8924897230512085 -0.38918142396203215
    vertex -302.3119206223742 -6.8924897230512085 0.6218088517179693
    vertex -304.2896272146536 -6.8924897230512085 4.603643169157976
  endloop
endfacet
facet normal 4.405852180614508e-06 -0.9999999999534608 8.582947487750954e-06
  outer loop
    vertex -304.2896272146536 -6.8924897230512085 4.603643169157976
    vertex -302.3119206223742 -6.8924897230512085 0.6218088517179693
    vertex -302.3119206223742 -6.8924897230512085 1.0443075246766227
  endloop
endfacet
facet normal 4.405852180614508e-06 -0.9999999999534608 8.582947487750954e-06
  outer loop
    vertex -304.2896272146536 -6.8924897230512085 4.603643169157976
    vertex -302.3119206223742 -6.8924897230512085 1.0443075246766227
    vertex -302.3119206223742 -6.8924897230512085 2.0436226192340614
  endloop
endfacet
facet normal 4.405852180614508e-06 -0.9999999999534608 8.582947487750954e-06
  outer loop
    vertex -304.2896272146536 -6.8924897230512085 4.603643169157976
    vertex -302.3119206223742 -6.8924897230512085 2.0436226192340614
    vertex -302.31175747724393 -6.892489720413741 2.446783332169334
  endloop
endfacet
facet normal 4.405852180614508e-06 -0.9999999999534608 8.582947487750954e-06
  outer loop
    vertex -304.2896272146536 -6.8924897230512085 4.603643169157976
    vertex -302.31175747724393 -6.892489720413741 2.446783332169334
    vertex -301.5795067127947 -6.892402802493274 4.603497516984429
  endloop
endfacet
facet normal 4.405852180614508e-06 -0.9999999999534608 8.582947487750954e-06
  outer loop
    vertex -304.2896272146536 -6.8924897230512085 4.603643169157976
    vertex -301.5795067127947 -6.892402802493274 4.603497516984429
    vertex -302.3115032944658 -6.8924897230512085 4.603643169157976
  endloop
endfacet
facet normal 0.0 0.0 -1.0
  outer loop
    vertex -301.58090890300093 -6.736418373051175 1.0443075246766227
    vertex -302.3119206223742 -6.8924897230512085 1.0443075246766227
    vertex -302.3119206223742 -6.736418373051175 1.0443075246766227
  endloop
endfacet
facet normal 0.0 0.0 -1.0
  outer loop
    vertex -302.3119206223742 -6.8924897230512085 1.0443075246766227
    vertex -301.58090890300093 -6.736418373051175 1.0443075246766227
    vertex -301.58090890300093 -6.8924897230512085 1.0443075246766227
  endloop
endfacet
facet normal -1.0 8.491168940662023e-31 -7.697096259505607e-30
  outer loop
    vertex -304.40141162711785 -18.18781742609689 5.833848282480805
    vertex -304.40141162711785 -18.3412464760969 5.051464812888382
    vertex -304.40141162711785 -18.3412464760969 5.833848282480805
  endloop
endfacet
facet normal -1.0 8.491168940662023e-31 -7.697096259505607e-30
  outer loop
    vertex -304.40141162711785 -18.3412464760969 5.051464812888382
    vertex -304.40141162711785 -18.18781742609689 5.833848282480805
    vertex -304.40141162711785 -17.87897327609691 4.605099051120792
  endloop
endfacet
facet normal -1.0 8.491168940662023e-31 -7.697096259505607e-30
  outer loop
    vertex -304.40141162711785 -17.87897327609691 4.605099051120792
    vertex -304.40141162711785 -18.18781742609689 5.833848282480805
    vertex -304.40141162711785 -13.983791434895025 5.833848282480805
  endloop
endfacet
facet normal -1.0 8.491168940662023e-31 -7.697096259505607e-30
  outer loop
    vertex -304.40141162711785 -17.87897327609691 4.605099051120792
    vertex -304.40141162711785 -13.983791434895025 5.833848282480805
    vertex -304.40141162711785 -4.8887831292609105 4.605099051120792
  endloop
endfacet
facet normal -1.0 8.491168940662023e-31 -7.697096259505607e-30
  outer loop
    vertex -304.40141162711785 -4.8887831292609105 4.605099051120792
    vertex -304.40141162711785 -13.983791434895025 5.833848282480805
    vertex -304.40141162711785 -9.204577480495967 5.833848282480805
  endloop
endfacet
facet normal -1.0 8.491168940662023e-31 -7.697096259505607e-30
  outer loop
    vertex -304.40141162711785 -4.8887831292609105 4.605099051120792
    vertex -304.40141162711785 -9.204577480495967 5.833848282480805
    vertex -304.40141162711785 -4.5833958760968905 5.833848282480805
  endloop
endfacet
facet normal -1.0 8.491168940662023e-31 -7.697096259505607e-30
  outer loop
    vertex -304.40141162711785 -4.8887831292609105 4.605099051120792
    vertex -304.40141162711785 -4.5833958760968905 5.833848282480805
    vertex -304.40141162711785 -4.425363526096884 5.051464812888382
  endloop
endfacet
facet normal -1.0 8.491168940662023e-31 -7.697096259505607e-30
  outer loop
    vertex -304.40141162711785 -4.425363526096884 5.051464812888382
    vertex -304.40141162711785 -4.5833958760968905 5.833848282480805
    vertex -304.40141162711785 -4.425363526096884 5.833848282480805
  endloop
endfacet
facet normal 1.0 -0.0 -0.0
  outer loop
    vertex -305.0698208147836 -8.894234672719897 5.9997018831208
    vertex -305.0698208147836 -9.204577480495967 5.9997018831208
    vertex -305.0698208147836 -9.204577480495967 5.833848282480805
  endloop
endfacet
facet normal 0.999999999810594 9.92018037226947e-06 -1.6745211695815737e-05
  outer loop
    vertex -305.07000908126116 -4.425363526096884 -0.38918142396203215
    vertex -305.0698208147836 -4.5833958760968905 5.833848282480805
    vertex -305.06991494802236 -4.5833958760968905 -0.38918142396203187
  endloop
endfacet
facet normal 0.999999999810594 9.92018037226947e-06 -1.6745211695815737e-05
  outer loop
    vertex -305.0698208147836 -4.5833958760968905 5.833848282480805
    vertex -305.07000908126116 -4.425363526096884 -0.38918142396203215
    vertex -305.0698208147836 -4.425363526096884 5.833848282480805
  endloop
endfacet
facet normal 0.999999999810594 9.92018037226947e-06 -1.6745211695815737e-05
  outer loop
    vertex -305.0698208147836 -4.425363526096884 5.833848282480805
    vertex -305.07000908126116 -4.425363526096884 -0.38918142396203215
    vertex -305.0698208147836 -4.425363526096884 0.19244655715797074
  endloop
endfacet
facet normal -1.660249987033207e-07 8.49911015010356e-10 -0.9999999999999862
  outer loop
    vertex -305.07000908126116 -4.425363526096884 -0.38918142396203215
    vertex -305.19322330029456 -4.605778576096885 -0.3891814239620313
    vertex -305.19322330029456 -4.425363526096884 -0.38918142396203215
  endloop
endfacet
facet normal -1.660249987033207e-07 8.49911015010356e-10 -0.9999999999999862
  outer loop
    vertex -305.19322330029456 -4.605778576096885 -0.3891814239620313
    vertex -305.06982276518187 -18.341246969526924 -0.3891814527553242
    vertex -305.19322330029763 -18.341246476095346 -0.389181423961967
  endloop
endfacet
facet normal -1.660249987033207e-07 8.49911015010356e-10 -0.9999999999999862
  outer loop
    vertex -305.06982276518187 -18.341246969526924 -0.3891814527553242
    vertex -305.19322330029456 -4.605778576096885 -0.3891814239620313
    vertex -305.07000908126116 -4.425363526096884 -0.38918142396203215
  endloop
endfacet
facet normal -1.660249987033207e-07 8.49911015010356e-10 -0.9999999999999862
  outer loop
    vertex -305.06982276518187 -18.341246969526924 -0.3891814527553242
    vertex -305.07000908126116 -4.425363526096884 -0.38918142396203215
    vertex -305.06991494802236 -4.5833958760968905 -0.38918142396203187
  endloop
endfacet
facet normal -1.660249987033207e-07 8.49911015010356e-10 -0.9999999999999862
  outer loop
    vertex -305.06982276518187 -18.341246969526924 -0.3891814527553242
    vertex -305.06991494802236 -4.5833958760968905 -0.38918142396203187
    vertex -305.06982276518187 -4.823315538819354 -0.3891814527553242
  endloop
endfacet
facet normal -1.660249987033207e-07 8.49911015010356e-10 -0.9999999999999862
  outer loop
    vertex -305.06982276518187 -18.341246969526924 -0.3891814527553242
    vertex -305.06982276518187 -4.823315538819354 -0.3891814527553242
    vertex -305.06982276518187 -5.95832173881935 -0.3891814527553242
  endloop
endfacet
facet normal -1.660249987033207e-07 8.49911015010356e-10 -0.9999999999999862
  outer loop
    vertex -305.06982276518187 -18.341246969526924 -0.3891814527553242
    vertex -305.06982276518187 -5.95832173881935 -0.3891814527553242
    vertex -305.06982276518187 -11.416339938819357 -0.3891814527553242
  endloop
endfacet
facet normal -1.660249987033207e-07 8.49911015010356e-10 -0.9999999999999862
  outer loop
    vertex -305.06982276518187 -18.341246969526924 -0.3891814527553242
    vertex -305.06982276518187 -11.416339938819357 -0.3891814527553242
    vertex -305.06982276518187 -15.895966438819356 -0.3891814527553242
  endloop
endfacet
facet normal -1.660249987033207e-07 8.49911015010356e-10 -0.9999999999999862
  outer loop
    vertex -305.06982276518187 -18.341246969526924 -0.3891814527553242
    vertex -305.06982276518187 -15.895966438819356 -0.3891814527553242
    vertex -305.06982178998277 -18.18781742609689 -0.3891814527553239
  endloop
endfacet
facet normal 1.0 -0.0 -0.0
  outer loop
    vertex -304.2896272146536 -4.5833958760968905 5.833848282480805
    vertex -304.2896272146536 -8.894234672719897 5.9997018831208
    vertex -304.2896272146536 -9.204577480495967 5.833848282480805
  endloop
endfacet
facet normal 1.0 -0.0 -0.0
  outer loop
    vertex -304.2896272146536 -8.894234672719897 5.9997018831208
    vertex -304.2896272146536 -4.5833958760968905 5.833848282480805
    vertex -304.2896272146536 -8.243050682285897 5.9997018831208
  endloop
endfacet
facet normal 1.0 -0.0 -0.0
  outer loop
    vertex -304.2896272146536 -8.243050682285897 5.9997018831208
    vertex -304.2896272146536 -4.5833958760968905 5.833848282480805
    vertex -304.2896272146536 -4.5833958760968905 5.9997018831208
  endloop
endfacet
facet normal 1.0 -0.0 -0.0
  outer loop
    vertex -304.2896272146536 -18.18781742609689 5.833848282480805
    vertex -304.2896272146536 -18.3412464760969 5.9997018831208
    vertex -304.2896272146536 -18.3412464760969 5.833848282480805
  endloop
endfacet
facet normal 1.0 -0.0 -0.0
  outer loop
    vertex -304.2896272146536 -18.3412464760969 5.9997018831208
    vertex -304.2896272146536 -18.18781742609689 5.833848282480805
    vertex -304.2896272146536 -18.18781742609689 5.9997018831208
  endloop
endfacet
facet normal -0.0 1.0 -0.0
  outer loop
    vertex -305.1932233002946 -4.425363526096884 0.1963608574779709
    vertex -305.07000908126116 -4.425363526096884 -0.38918142396203215
    vertex -305.19322330029456 -4.425363526096884 -0.38918142396203215
  endloop
endfacet
facet normal -0.0 1.0 -0.0
  outer loop
    vertex -305.07000908126116 -4.425363526096884 -0.38918142396203215
    vertex -305.1932233002946 -4.425363526096884 0.1963608574779709
    vertex -305.0698208147836 -4.425363526096884 0.19244655715797074
  endloop
endfacet
facet normal -0.0 1.0 -0.0
  outer loop
    vertex -305.0698208147836 -4.425363526096884 0.19244655715797074
    vertex -305.1932233002946 -4.425363526096884 0.1963608574779709
    vertex -305.0698208147836 -4.425363526096884 5.833848282480805
  endloop
endfacet
facet normal -0.0 1.0 -0.0
  outer loop
    vertex -305.0698208147836 -4.425363526096884 5.833848282480805
    vertex -305.1932233002946 -4.425363526096884 0.1963608574779709
    vertex -305.1932233002946 -4.425363526096884 5.9997018831208
  endloop
endfacet
facet normal -0.0 1.0 -0.0
  outer loop
    vertex -305.0698208147836 -4.425363526096884 5.833848282480805
    vertex -305.1932233002946 -4.425363526096884 5.9997018831208
    vertex -305.0698208147836 -4.425363526096884 5.9997018831208
  endloop
endfacet
endsolid Liquid Galaxy Voice
