# Alias OBJ Model File
# Exported from SketchUp, (c) 2000-2012 Trimble Navigation Limited
# File units = millimeters

mtllib Liquid Galaxy Voice Inside v2 Object.mtl

g Mesh1 Model

usemtl FrontColor
v -3042.9 46.051 171.317
vt -6.74476 1.81303
vn 1 0 -0
v -3042.9 -3.89181 171.317
vt -6.74476 -0.153221
v -3042.9 -3.89181 169.341
vt -6.66697 -0.153221
v -3042.9 46.051 169.341
vt -6.66697 1.81303
f 1/1/1 2/2/1 3/3/1 4/4/1 

v -3023.12 1.92447 171.317
vt 119.02 0.0757664
vn 0 0 -1
v -3023.12 -3.89181 171.317
vt 119.02 -0.153221
vt 119.799 -0.153221
vt 119.799 1.81303
v -3015.8 46.051 171.317
vt 118.732 1.81303
v -3015.8 24.4866 171.317
vt 118.732 0.964041
v -3023.12 24.4874 171.317
vt 119.02 0.964069
v -3023.12 20.3013 171.317
vt 119.02 0.799263
v -3023.12 10.3081 171.317
vt 119.02 0.405832
v -3023.12 6.06901 171.317
vt 119.02 0.238937
f 5/5/2 6/6/2 2/7/2 1/8/2 7/9/2 8/10/2 9/11/2 10/12/2 11/13/2 12/14/2 

usemtl Color_F07
vt -119.02 0.0757664
vn 0 0 1
vt -119.02 -0.153221
v -2985.31 -3.89181 171.317
vt -117.532 -0.153221
v -2985.31 6.06901 171.317
vt -117.532 0.238937
vt -119.02 0.238937
f 5/15/3 6/16/3 13/17/3 14/18/3 12/19/3 

usemtl FrontColor
vt 117.532 -6.74476
vn 0 -1 -0
vt 119.02 -6.74476
v -3023.12 -3.89181 169.341
vt 119.02 -6.66697
v -2985.31 -3.89181 169.341
vt 117.532 -6.66697
f 13/20/4 6/21/4 15/22/4 16/23/4 

vt 119.799 -6.74476
vt 119.799 -6.66697
f 2/24/4 3/25/4 15/22/4 6/21/4 

vt 6.74476 -0.153221
vn -1 0 -0
vt 6.74476 0.238937
v -2985.31 6.06901 169.341
vt 6.66697 0.238937
vt 6.66697 -0.153221
f 13/26/5 14/27/5 17/28/5 16/29/5 

usemtl Color_F07
vt -119.02 -6.74476
vn 0 1 -0
vt -117.532 -6.74476
vt -117.532 -6.66697
v -3023.12 6.06901 169.341
vt -119.02 -6.66697
f 12/30/6 14/31/6 17/32/6 18/33/6 

usemtl FrontColor
v -3023.12 10.3081 169.316
vt 6.66597 0.405832
vt 6.74476 0.405832
f 19/34/5 18/28/5 12/27/5 11/35/5 

usemtl Color_F07
v -3015.81 10.3081 171.317
vt 118.733 -6.74476
vt 119.02 -6.66597
v -3015.81 10.3081 169.316
vt 118.733 -6.66597
f 20/36/4 11/21/4 19/37/4 21/38/4 

vt -118.733 0.405832
v -3015.81 20.3013 171.317
vt -118.733 0.799263
vt -119.02 0.799263
vt -119.02 0.405832
f 20/39/3 22/40/3 10/41/3 11/42/3 

vt -6.74476 0.799263
vt -6.74476 0.405832
vt -6.66597 0.405832
v -3015.81 20.3013 169.316
vt -6.66597 0.799263
f 22/43/1 20/44/1 21/45/1 23/46/1 

vt 118.733 0.799263
vt 118.733 0.405832
v -3023.12 20.2839 169.316
vt 119.02 0.798578
f 23/47/2 21/48/2 19/13/2 24/49/2 

usemtl FrontColor
vt 6.66597 0.798578
vt 6.74476 0.799263
v -3023.12 20.3013 169.341
vt 6.66697 0.799263
f 24/50/5 19/34/5 11/35/5 10/51/5 25/52/5 

usemtl Color_F07
vt 116.694 -24.3686
vn -0.000680869 0.999997 -0.00253401
vt 116.416 -24.2939
vt 116.395 -24.37
vt 116.673 -24.4446
vt 116.674 -24.4437
f 10/53/7 22/54/7 23/55/7 24/56/7 25/57/7 

usemtl FrontColor
v -3023.12 24.4874 169.341
vt 6.66697 0.964069
vt 6.74476 0.964069
f 26/58/5 25/52/5 10/51/5 9/59/5 

usemtl Color_F07
vt 119.021 -6.66714
vn -0.000149224 -1 0.000184273
v -3015.8 24.4859 169.34
vt 118.732 -6.66711
vt 118.732 -6.74494
vt 119.021 -6.74494
f 26/60/8 27/61/8 8/62/8 9/63/8 

v -3015.8 46.0545 169.34
vt -6.74963 1.80559
vn 1 -6.38552e-05 0.000696497
vt -6.82746 1.80545
vt -6.82746 0.956459
vt -6.74963 0.956431
f 28/64/9 7/65/9 8/66/9 27/67/9 

usemtl FrontColor
vt 119.799 -6.66534
vn 6.48553e-05 -1 -0.000889501
vt 118.732 -6.66531
vt 118.732 -6.74314
vt 119.799 -6.74314
f 4/68/10 28/69/10 7/70/10 1/71/10 

usemtl Color_F07
v -3042.9 46.0364 67.3642
vt -2.65213 1.81246
vn 1 2.54827e-30 -2.07395e-30
v -3042.9 -3.89181 67.3642
vt -2.65213 -0.153221
v -3042.9 -3.89181 56.3382
vt -2.21804 -0.153221
v -3042.9 46.051 56.3382
vt -2.21804 1.81303
v -3042.9 46.051 48.8878
vt -1.92472 1.81303
v -3042.9 48.9925 45.834
vt -1.80449 1.92884
v -3042.9 58.3385 45.834
vt -1.80449 2.29679
v -3042.9 58.3385 92.0458
vt -3.62385 2.29679
v -3042.9 58.3385 139.838
vt -5.50543 2.29679
v -3042.9 58.3385 181.878
vt -7.16056 2.29679
v -3042.9 49.0332 181.878
vt -7.16056 1.93044
v -3042.9 46.051 178.79
vt -7.03897 1.81303
v -3042.9 -3.89181 68.9249
vt -2.71358 -0.153221
v -3042.9 46.0364 68.9249
vt -2.71358 1.81246
f 29/72/11 30/73/11 31/74/11 32/75/11 33/76/11 34/77/11 35/78/11 36/79/11 37/80/11 38/81/11 39/82/11 40/83/11 1/1/11 4/4/11 3/3/11 41/84/11 42/85/11 

v -3023.12 1.92447 67.3642
vn -2.15824e-10 -8.36973e-11 -1
v -3023.12 -3.89181 67.3642
vt 119.799 1.81246
v -3023.12 46.0364 67.3642
vt 119.02 1.81246
v -3023.12 24.4678 67.3642
vt 119.02 0.963301
v -3023.12 20.4362 67.3642
vt 119.02 0.804576
v -3023.12 10.4431 67.3642
vt 119.02 0.411145
v -3023.12 6.21809 67.3642
vt 119.02 0.244807
f 43/5/12 44/6/12 30/7/12 29/86/12 45/87/12 46/88/12 47/89/12 48/90/12 49/91/12 

v -2985.31 6.21809 67.3642
vt 117.532 0.244807
vn -7.92463e-16 4.46418e-16 -1
v -2985.31 -3.89181 67.3642
vt 117.532 -0.153221
f 50/92/13 51/93/13 44/6/13 43/5/13 49/91/13 

usemtl FrontColor
v -2985.31 6.21809 68.9249
vt -2.71358 0.244807
v -2985.31 -3.89181 68.9249
vt -2.65213 0.244807
f 52/94/1 53/84/1 51/73/1 50/95/1 

usemtl Color_F07
vt -119.799 1.81243
vn 4.40585e-06 8.58295e-06 1
vt -119.799 -0.153244
vt -117.532 -0.153244
vt -117.532 0.244783
v -3023.12 6.21809 68.9249
vt -119.02 0.244783
v -3023.12 10.4431 68.9249
vt -119.02 0.411121
v -3023.12 20.4362 68.9249
vt -119.02 0.804553
v -3023.12 24.4678 68.9249
vt -119.02 0.963277
v -3015.8 24.4664 68.924
vt -118.732 0.96322
v -3015.8 46.035 68.924
vt -118.732 1.81238
v -3023.12 46.0364 68.9249
vt -119.02 1.81243
f 42/96/14 41/97/14 53/98/14 52/99/14 54/100/14 55/101/14 56/102/14 57/103/14 58/104/14 59/105/14 60/106/14 

vt -117.532 -2.71358
vt -117.532 -2.65213
vt -119.02 -2.65213
vt -119.02 -2.71358
f 52/107/6 50/108/6 49/109/6 54/110/6 

vt -2.65213 0.411145
vt -2.71358 0.411145
f 49/95/1 48/111/1 55/112/1 54/94/1 

vt 119.02 -2.71358
vt 119.02 -2.65213
v -3015.81 10.4431 67.3642
vt 118.733 -2.65213
v -3015.81 10.4431 68.9249
vt 118.733 -2.71358
f 55/113/4 48/114/4 61/115/4 62/116/4 

vt 118.733 0.411145
v -3015.81 20.4362 67.3642
vt 118.733 0.804576
f 61/117/2 48/90/2 47/89/2 63/118/2 

v -3015.81 20.4362 68.9249
vt -118.733 -2.71358
vt -118.733 -2.65213
f 64/119/6 63/120/6 47/109/6 56/110/6 

vt -2.65213 0.804576
vt -2.71358 0.804576
f 61/111/1 63/121/1 64/122/1 62/112/1 

vt -118.733 0.411145
vt -118.733 0.804576
vt -119.02 0.804576
vt -119.02 0.411145
f 62/123/3 64/124/3 56/125/3 55/126/3 

vt -2.64404 0.918269
vn 1 -0.000378353 -6.79704e-05
vt -2.70549 0.918269
vt -2.70549 0.759544
vt -2.64404 0.759544
f 46/127/15 57/128/15 56/129/15 47/130/15 

vt 119.021 -2.71358
vn -0.000198979 -1 2.11654e-09
vt 119.021 -2.65213
v -3015.8 24.4664 67.3633
vt 118.732 -2.6521
vt 118.732 -2.71354
f 57/131/16 46/132/16 65/133/16 58/134/16 

vt 119.021 0.963301
vn -0.000118744 1.63847e-08 -1
vt 119.021 1.81246
v -3015.8 46.035 67.3633
vt 118.732 1.8124
vt 118.733 0.963243
f 46/135/17 45/136/17 66/137/17 65/138/17 

vt -119.021 -2.65213
vn 0.000198979 1 -6.01788e-21
vt -119.021 -2.71358
vt -118.732 -2.71354
vt -118.732 -2.6521
f 45/139/18 60/140/18 59/141/18 66/142/18 

vt -119.799 -2.65213
vt -119.799 -2.71358
f 29/143/6 42/144/6 60/110/6 45/109/6 

vt -2.70547 1.79782
vn 1 -0.000122767 -6.79704e-05
vt -2.70547 0.948667
vt -2.64403 0.948667
vt -2.64403 1.79782
f 59/145/19 58/146/19 65/147/19 66/148/19 

v -3042.9 50.5146 44.2536
vt 119.799 0.124824
vn 3.41823e-14 -0.720235 -0.69373
vt 119.799 0.038439
vt 119.799 -0.128494
v -3044.01 46.051 48.8878
vt 119.843 -0.128494
v -3044.01 50.5146 44.2536
vt 119.843 0.124824
f 67/149/20 34/150/20 33/151/20 68/152/20 69/153/20 

v -3042.9 58.3385 44.2536
vt -1.74227 2.29679
vt -1.74227 1.98877
f 70/154/1 35/78/1 34/77/1 67/155/1 

usemtl FrontColor
vt 119.799 -1.80449
vt 119.799 -3.62385
v -3044.01 58.3385 92.0458
vt 119.843 -3.62385
v -3044.01 58.3385 45.834
vt 119.843 -1.80449
v -3044.01 58.3385 44.2536
vt 119.843 -1.74227
vt 119.799 -1.74227
f 35/156/4 36/157/4 71/158/4 72/159/4 73/160/4 70/161/4 

usemtl Color_F07
v -3042.9 59.997 45.834
vt -1.80449 2.36209
v -3042.9 59.997 82.4305
vt -3.2453 2.36209
v -3042.9 59.997 88.9423
vt -3.50167 2.36209
f 36/79/1 35/78/1 74/162/1 75/163/1 76/164/1 

v -3042.9 59.997 44.2536
vt -1.74227 2.36209
f 77/165/1 74/162/1 35/78/1 70/154/1 

v -3050.7 59.997 44.2536
vt -120.106 -1.74227
v -3050.7 59.997 68.9583
vt -120.106 -2.71489
vt -119.799 -3.2453
vt -119.799 -1.80449
vt -119.799 -1.74227
f 78/166/6 79/167/6 75/168/6 74/169/6 77/170/6 

usemtl FrontColor
vt -2.71489 2.36209
v -3050.7 59.997 88.9423
v -3050.7 58.3385 88.9423
vt -3.50167 2.29679
v -3050.7 58.3385 45.834
v -3050.7 58.3385 44.2536
f 79/171/1 80/164/1 81/172/1 82/78/1 83/154/1 78/165/1 

usemtl Color_F07
vt -120.106 -3.50167
v -3044.41 59.997 88.9423
vt -119.859 -3.50167
f 80/173/6 84/174/6 75/168/6 79/167/6 

vt -120.106 -1.97498
vn 1.23301e-18 0.881954 0.471335
v -3050.7 58.3385 92.0458
vt -120.106 -2.11351
vt -119.843 -2.11351
vt -119.799 -2.11351
vt -119.799 -1.97498
vt -119.859 -1.97498
f 80/175/21 85/176/21 71/177/21 36/178/21 76/179/21 84/180/21 

usemtl FrontColor
f 81/172/1 80/164/1 85/79/1

usemtl Color_F07
v -3050.7 59.997 92.0458
vt -3.62385 2.36209
f 80/164/1 86/181/1 85/79/1

v -3051.93 59.997 88.9423
vt -120.155 -3.50167
v -3051.93 59.997 92.0458
vt -120.155 -3.62385
vt -120.106 -3.62385
f 87/182/6 88/183/6 86/184/6 80/173/6 

v -3051.93 59.997 46.0578
vt 1.8133 2.36209
vn -1 1.19676e-13 -4.35828e-14
v -3051.93 -3.89181 46.0578
vt 1.8133 -0.153221
v -3051.93 -3.89181 183.412
vt 7.22096 -0.153221
v -3051.93 1.96361 183.412
vt 7.22096 0.0773074
v -3051.93 59.997 183.412
vt 7.22096 2.36209
v -3051.93 59.997 178.215
vt 7.01632 2.36209
v -3051.93 59.997 160.839
vt 6.33223 2.36209
v -3051.93 59.997 148.026
vt 5.82781 2.36209
v -3051.93 59.997 144.351
vt 5.68311 2.36209
v -3051.93 59.997 139.838
vt 5.50543 2.36209
v -3051.93 21.434 139.838
vt 5.50543 0.843859
v -3051.93 18.4481 136.603
vt 5.37806 0.726305
v -3051.93 15.9225 132.97
vt 5.23502 0.626871
v -3051.93 13.9058 129.008
vt 5.07907 0.547474
v -3051.93 12.4369 124.795
vt 4.9132 0.489643
v -3051.93 11.5441 120.412
vt 4.74061 0.454493
v -3051.93 11.2446 115.942
vt 4.56464 0.442701
v -3051.93 11.5441 111.472
vt 4.38866 0.454493
v -3051.93 12.4369 107.088
vt 4.21608 0.489643
v -3051.93 13.9058 102.875
vt 4.05021 0.547474
v -3051.93 15.9225 98.9141
vt 3.89425 0.626871
v -3051.93 18.4481 95.2809
vt 3.75122 0.726305
v -3051.93 21.434 92.0458
vt 3.62385 0.843859
vt 3.62385 2.36209
vt 3.50167 2.36209
v -3051.93 59.997 78.9417
vt 3.10794 2.36209
v -3051.93 59.997 66.8274
vt 2.631 2.36209
v -3051.93 59.997 49.2037
vt 1.93715 2.36209
f 89/185/22 90/186/22 91/187/22 92/188/22 93/189/22 94/190/22 95/191/22 96/192/22 97/193/22 98/194/22 99/195/22 100/196/22 101/197/22 102/198/22 103/199/22 104/200/22 105/201/22 106/202/22 107/203/22 108/204/22 109/205/22 110/206/22 111/207/22 88/208/22 87/209/22 112/210/22 113/211/22 114/212/22 

v -3051.93 1.96361 44.2536
vt 1.74227 0.0773074
vn -1 -8.78486e-15 1.09034e-13
v -3051.93 -3.89181 44.2536
vt 1.74227 -0.153221
v -3051.93 59.997 44.2536
vt 1.74227 2.36209
f 115/213/23 116/214/23 90/186/23 89/185/23 117/215/23 

vt 120.106 2.29679
v -3050.7 1.92447 44.2536
vt 120.106 0.0757664
v -3050.7 -3.89181 44.2536
vt 120.106 -0.153221
vt 120.155 -0.153221
vt 120.155 0.0773074
vt 120.155 2.36209
vt 120.106 2.36209
f 83/216/2 118/217/2 119/218/2 116/219/2 115/220/2 117/221/2 78/222/2 

usemtl FrontColor
v -3050.7 -3.89181 45.834
vt -1.8033 -0.155232
vn 1 -1.67452e-05 -9.92018e-06
vt -1.74108 -0.155232
vt -1.74108 0.0737552
vt -1.74108 2.29478
vt -1.8033 2.29478
f 120/223/24 119/224/24 118/225/24 83/226/24 82/227/24 

vt 120.106 -1.80449
vn -1.66025e-07 -1 -8.49911e-10
v -3050.7 -3.89181 48.2332
vt 120.106 -1.89894
v -3050.7 -3.89181 59.5832
vt 120.106 -2.3458
v -3050.7 -3.89181 114.163
vt 120.106 -4.49462
v -3050.7 -3.89181 158.96
vt 120.106 -6.25825
v -3050.7 -3.89181 181.878
vt 120.106 -7.16056
v -3050.7 -3.89181 183.412
vt 120.106 -7.22096
vt 120.155 -7.22096
vt 120.155 -1.8133
vt 120.155 -1.74227
vt 120.106 -1.74227
f 120/228/25 121/229/25 122/230/25 123/231/25 124/232/25 125/233/25 126/234/25 91/235/25 90/236/25 116/237/25 119/238/25 

usemtl Color_F07
v -3050.7 58.3385 181.878
vt -7.16008 2.29549
vn 1 -1.08376e-05 -4.00097e-06
vt -7.16008 -0.154523
vt -6.25777 -0.154523
vt -4.49414 -0.154523
vt -2.34532 -0.154523
vt -1.89846 -0.154523
vt -1.80401 -0.154523
vt -1.80401 2.29549
vt -3.50119 2.29549
vt -3.62337 2.29549
v -3050.7 21.434 92.0458
vt -3.62337 0.842557
v -3050.7 18.4481 95.2809
vt -3.75074 0.725003
v -3050.7 15.9225 98.9141
vt -3.89377 0.62557
v -3050.7 13.9058 102.875
vt -4.04973 0.546173
v -3050.7 12.4369 107.088
vt -4.2156 0.488342
v -3050.7 11.5441 111.472
vt -4.38818 0.453191
v -3050.7 11.2446 115.942
vt -4.56416 0.441399
v -3050.7 11.5441 120.412
vt -4.74013 0.453191
v -3050.7 12.4369 124.795
vt -4.91272 0.488342
v -3050.7 13.9058 129.008
vt -5.07859 0.546173
v -3050.7 15.9225 132.97
vt -5.23454 0.62557
v -3050.7 18.4481 136.603
vt -5.37758 0.725003
v -3050.7 21.434 139.838
vt -5.50495 0.842557
v -3050.7 58.3385 139.838
vt -5.50495 2.29549
f 127/239/26 125/240/26 124/241/26 123/242/26 122/243/26 121/244/26 120/245/26 82/246/26 81/247/26 85/248/26 128/249/26 129/250/26 130/251/26 131/252/26 132/253/26 133/254/26 134/255/26 135/256/26 136/257/26 137/258/26 138/259/26 139/260/26 140/261/26 141/262/26 

usemtl FrontColor
v -3050.7 44.9875 183.412
vt -7.22121 1.77113
vn 1 -2.51236e-07 2.02895e-06
vt -7.22121 -0.153251
vt -7.1608 -0.153251
vt -7.1608 2.29676
v -3050.7 58.3385 183.412
vt -7.22121 2.29676
f 142/263/27 126/264/27 125/265/27 127/266/27 143/267/27 

usemtl Color_F07
vt -120.155 0.0773071
vn -1.69171e-06 4.16575e-08 1
vt -120.155 -0.153221
vt -120.106 -0.153221
vt -120.106 1.77116
vt -120.106 2.29679
v -3050.7 59.997 183.412
vt -120.106 2.36209
vt -120.155 2.36209
f 92/268/28 91/269/28 126/270/28 142/271/28 143/272/28 144/273/28 93/274/28 

usemtl FrontColor
vt -7.22096 2.29679
v -3050.7 59.997 144.351
vt -5.68311 2.36209
vt -7.22096 2.36209
f 143/275/1 127/81/1 141/80/1 145/276/1 144/277/1 

v -3044.01 58.3385 181.878
vt 119.843 -7.16056
v -3044.01 58.3385 183.412
vt 119.843 -7.22096
f 143/234/4 127/233/4 146/278/4 147/279/4 

usemtl Color_F07
v -3044.01 58.3385 139.838
vt 119.843 -5.50543
vt 120.106 -5.50543
f 148/280/4 146/278/4 127/233/4 141/281/4 

usemtl FrontColor
vt 119.799 -5.50543
vt 119.799 -7.16056
v -3042.9 58.3385 183.412
vt 119.799 -7.22096
f 147/279/4 146/278/4 148/280/4 37/282/4 38/283/4 149/284/4 

usemtl Color_F07
vt 1.92472 1.81303
vn -1 -7.6971e-30 -8.49117e-31
v -3044.01 46.051 178.79
vt 7.03897 1.81303
v -3044.01 50.5146 183.412
vt 7.22096 1.98877
vt 7.22096 2.29679
vt 7.16056 2.29679
vt 5.50543 2.29679
vt 3.62385 2.29679
vt 1.80449 2.29679
vt 1.74227 2.29679
vt 1.74227 1.98877
f 68/285/29 150/286/29 151/287/29 147/288/29 146/289/29 148/290/29 71/291/29 72/292/29 73/293/29 69/294/29 

vt -119.843 6.57602
vn 4.35043e-14 -0.719376 0.694621
vt -119.843 6.32303
vt -119.799 6.32303
vt -119.799 6.49206
v -3042.9 50.5146 183.412
vt -119.799 6.57602
f 151/295/30 150/296/30 40/297/30 39/298/30 152/299/30 

usemtl FrontColor
vt 7.16056 1.93044
f 39/300/5 152/287/5 149/288/5 38/289/5 

usemtl Color_F07
vt -119.843 2.29679
vt -119.843 1.98877
vt -119.799 1.98877
vt -119.799 2.29679
f 147/301/3 151/302/3 152/303/3 149/304/3 

v -3042.9 59.997 183.412
vt -119.799 2.36209
f 153/305/3 144/273/3 143/272/3 147/301/3 149/304/3 

vt -119.799 -7.22096
v -3042.9 59.997 181.878
vt -119.799 -7.16056
v -3042.9 59.997 144.351
vt -119.799 -5.68311
vt -120.106 -5.68311
vt -120.106 -7.22096
f 153/306/6 154/307/6 155/308/6 145/309/6 144/310/6 

vt -7.16056 2.36209
f 149/275/1 38/81/1 154/311/1 153/277/1 

f 155/276/1 154/311/1 38/81/1 37/80/1 

vt 120.106 5.95979
vn -1.64029e-17 0.938625 -0.344939
vt 120.106 6.14909
vt 119.799 6.14909
vt 119.799 5.95979
vt 119.843 5.95979
f 141/312/31 145/313/31 155/314/31 37/315/31 148/316/31 

v -3050.7 59.997 139.838
vt -5.50543 2.36209
f 145/276/1 141/80/1 156/317/1

vt 120.106 0.843859
vt 120.155 0.843859
f 156/222/2 141/216/2 140/318/2 99/319/2 98/221/2 

vt 120.155 4.44465
vn 0 0.779825 -0.625997
vt 120.155 4.61798
vn 0 0.734846 -0.678234
vt 120.106 4.61798
vt 120.106 4.44465
f 100/320/32 99/321/33 140/322/33 139/323/32 

vt 120.155 4.65628
vn 0 0.85813 -0.513433
vt 120.155 4.83049
vt 120.106 4.83049
vt 120.106 4.65628
f 101/324/34 100/325/32 139/326/32 138/327/34 

vt 120.155 4.77465
vn 0 0.919815 -0.392352
vt 120.155 4.94965
vt 120.106 4.94965
vt 120.106 4.77465
f 102/328/35 101/329/34 138/330/34 137/331/35 

vt 120.155 4.80051
vn 0 0.96425 -0.264995
vt 120.155 4.97617
vt 120.106 4.97617
vt 120.106 4.80051
f 103/332/36 102/333/35 137/334/35 136/335/36 

vt 120.155 4.73595
vn -1.72654e-18 0.991046 -0.133517
vt 120.155 4.91208
vt 120.106 4.91208
vt 120.106 4.73595
f 104/336/37 103/337/36 136/338/36 135/339/37 

vt 120.155 4.58402
vn -3.44533e-18 0.997762 -0.0668624
vt 120.155 4.76039
vt 120.106 4.76039
vt 120.106 4.58402
f 105/340/38 104/341/37 135/342/37 134/343/38 

vt -120.155 -4.34845
vn -3.88142e-18 0.991046 0.133517
vt -120.155 -4.52482
vn -7.74543e-18 0.997762 0.0668624
vt -120.106 -4.52482
vt -120.106 -4.34845
f 106/344/39 105/345/40 134/346/40 133/347/39 

vt -120.155 -4.03355
vn 0 0.96425 0.264995
vt -120.155 -4.20967
vt -120.106 -4.20967
vt -120.106 -4.03355
f 107/348/41 106/349/39 133/350/39 132/351/41 

vt -120.155 -3.64419
vn 0 0.919815 0.392352
vt -120.155 -3.81985
vt -120.106 -3.81985
vt -120.106 -3.64419
f 108/352/42 107/353/41 132/354/41 131/355/42 

vt -120.155 -3.186
vn 0 0.85813 0.513433
vt -120.155 -3.36101
vt -120.106 -3.36101
vt -120.106 -3.186
f 109/356/43 108/357/42 131/358/42 130/359/43 

vt -120.155 -2.66556
vn -2.04266e-17 0.779825 0.625997
vt -120.155 -2.83976
vt -120.106 -2.83976
vt -120.106 -2.66556
f 110/360/44 109/361/43 130/362/43 129/363/44 

vt -120.155 -2.09064
vn -4.07562e-17 0.734846 0.678234
vt -120.155 -2.26396
vt -120.106 -2.26396
vt -120.106 -2.09064
f 111/364/45 110/365/44 129/366/44 128/367/45 

vt -120.155 0.843859
vt -120.106 0.843859
f 88/274/3 111/368/3 128/369/3 85/272/3 86/273/3 

vt -120.106 -5.50543
vt -120.155 -5.50543
vt -120.155 -5.68311
f 145/309/6 156/370/6 98/371/6 97/372/6 

vn -3.43535e-12 1 7.78349e-15
vt -120.155 -5.82781
vt -120.155 -6.33223
vt -120.155 -7.01632
vt -120.155 -7.22096
f 144/310/46 145/309/46 97/372/46 96/373/46 95/374/46 94/375/46 93/376/46 

usemtl FrontColor
f 148/280/4 71/158/4 36/157/4 37/282/4 

usemtl Color_F07
vt 120.106 -3.62385
vt 120.106 -3.50167
f 72/159/4 71/158/4 85/377/4 81/378/4 82/228/4 

f 83/238/4 73/160/4 72/159/4 82/228/4 

vt 119.799 2.36209
vt 119.799 2.29679
vt 119.843 2.29679
f 78/222/2 77/379/2 70/380/2 73/381/2 83/216/2 

vt 119.799 1.98877
vt 119.843 1.98877
f 70/380/2 67/382/2 69/383/2 73/381/2 

vt -120.155 -1.74227
vn -4.1544e-12 1 -8.42692e-14
vt -120.155 -1.8133
vt -120.155 -1.93715
vt -120.155 -2.631
f 117/384/47 89/385/47 114/386/47 113/387/47 79/167/47 78/166/47 

vn -2.65979e-12 1 1.55392e-14
vt -120.155 -3.10794
f 80/173/48 79/167/48 113/387/48 112/388/48 87/182/48 

vt -119.799 -3.50167
f 76/389/6 75/168/6 84/174/6

