solid Liquid Galaxy Voice
facet normal 0.0 0.0 1.0
  outer loop
    vertex -207.33690071180231 -49.80945841248963 16.478218910720148
    vertex -209.39933066811867 -42.17408410011163 16.478218910720148
    vertex -209.39933066811867 -47.11500721833049 16.478218910720148
  endloop
endfacet
facet normal 0.0 0.0 1.0
  outer loop
    vertex -209.39933066811867 -42.17408410011163 16.478218910720148
    vertex -207.33690071180231 -49.80945841248963 16.478218910720148
    vertex -207.33690071180231 -42.17408410011163 16.478218910720148
  endloop
endfacet
facet normal 0.0 0.0 1.0
  outer loop
    vertex -207.33690071180231 -42.17408410011163 16.478218910720148
    vertex -207.33690071180231 -49.80945841248963 16.478218910720148
    vertex -207.33690071180231 -42.49014880011163 16.478218910720148
  endloop
endfacet
facet normal 0.00015629482869263843 0.0 0.9999999877859633
  outer loop
    vertex -200.17273824324562 -47.10816265290436 13.57912346608484
    vertex -202.10776011180232 -46.796193794020226 13.579425899999999
    vertex -202.10776011180232 -47.10833649402023 13.579425899999999
  endloop
endfacet
facet normal 0.00015629482869263843 0.0 0.9999999877859633
  outer loop
    vertex -202.10776011180232 -46.796193794020226 13.579425899999999
    vertex -200.17273824324562 -47.10816265290436 13.57912346608484
    vertex -200.17273824324562 -46.796019952904366 13.57912346608484
  endloop
endfacet
facet normal 0.0 0.46729152890284026 0.8841032897889513
  outer loop
    vertex -209.39947116811868 -59.917279974595615 7.326539712255334
    vertex -209.72554326811868 -59.125021540673536 6.907792650515526
    vertex -209.72554326811868 -59.917279974595615 7.326539712255334
  endloop
endfacet
facet normal 0.0 0.46729152890284026 0.8841032897889513
  outer loop
    vertex -209.72554326811868 -59.125021540673536 6.907792650515526
    vertex -209.39947116811868 -59.917279974595615 7.326539712255334
    vertex -209.39947116811868 -59.125021540673536 6.907792650515526
  endloop
endfacet
facet normal 1.0 0.0 0.0
  outer loop
    vertex -207.33690071180231 -44.59100539632943 0.3458558999999992
    vertex -207.33690071180231 -46.796193794020226 13.579425899999999
    vertex -207.33690071180231 -46.796193794020226 0.3458558999999992
  endloop
endfacet
facet normal 1.0 0.0 0.0
  outer loop
    vertex -207.33690071180231 -47.10833649402023 0.3458558999999992
    vertex -207.33690071180231 -67.19154124672048 13.582448910720162
    vertex -207.33690071180231 -67.19154124672048 0.3458558999999992
  endloop
endfacet
facet normal 1.0 0.0 0.0
  outer loop
    vertex -207.33690071180231 -67.19154124672048 13.582448910720162
    vertex -207.33690071180231 -47.10833649402023 0.3458558999999992
    vertex -207.33690071180231 -61.29093991770795 16.133838510720164
  endloop
endfacet
facet normal 1.0 0.0 0.0
  outer loop
    vertex -207.33690071180231 -61.29093991770795 16.133838510720164
    vertex -207.33690071180231 -47.10833649402023 0.3458558999999992
    vertex -207.33690071180231 -51.73251200890979 16.133838510720164
  endloop
endfacet
facet normal 1.0 0.0 0.0
  outer loop
    vertex -207.33690071180231 -51.73251200890979 16.133838510720164
    vertex -207.33690071180231 -47.10833649402023 0.3458558999999992
    vertex -207.33690071180231 -47.10833649402023 13.579425899999999
  endloop
endfacet
facet normal 1.0 0.0 0.0
  outer loop
    vertex -207.33690071180231 -51.73251200890979 16.133838510720164
    vertex -207.33690071180231 -47.10833649402023 13.579425899999999
    vertex -207.33690071180231 -42.49014880011163 16.133838510720164
  endloop
endfacet
facet normal 1.0 0.0 0.0
  outer loop
    vertex -207.33690071180231 -42.49014880011163 16.133838510720164
    vertex -207.33690071180231 -47.10833649402023 13.579425899999999
    vertex -207.33690071180231 -46.796193794020226 13.579425899999999
  endloop
endfacet
facet normal 1.0 0.0 0.0
  outer loop
    vertex -207.33690071180231 -42.49014880011163 16.133838510720164
    vertex -207.33690071180231 -46.796193794020226 13.579425899999999
    vertex -207.33690071180231 -44.59100539632943 13.582448910720162
  endloop
endfacet
facet normal 1.0 0.0 0.0
  outer loop
    vertex -207.33690071180231 -44.59100539632943 13.582448910720162
    vertex -207.33690071180231 -46.796193794020226 13.579425899999999
    vertex -207.33690071180231 -44.59100539632943 0.3458558999999992
  endloop
endfacet
facet normal 1.0 0.0 0.0
  outer loop
    vertex -207.33690071180231 -42.49014880011163 16.133838510720164
    vertex -207.33690071180231 -44.59100539632943 13.582448910720162
    vertex -207.33690071180231 -43.100923306439654 13.582448910720162
  endloop
endfacet
facet normal 1.0 0.0 0.0
  outer loop
    vertex -207.33690071180231 -42.49014880011163 16.133838510720164
    vertex -207.33690071180231 -43.100923306439654 13.582448910720162
    vertex -207.33690071180231 -42.49014880011163 14.193223417048182
  endloop
endfacet
facet normal 1.0 0.0 0.0
  outer loop
    vertex -207.33690071180231 -69.08130360011162 13.582448910720162
    vertex -207.33690071180231 -69.69899190011164 16.133838510720164
    vertex -207.33690071180231 -69.69899190011164 14.2016690317764
  endloop
endfacet
facet normal 1.0 0.0 0.0
  outer loop
    vertex -207.33690071180231 -69.69899190011164 16.133838510720164
    vertex -207.33690071180231 -69.08130360011162 13.582448910720162
    vertex -207.33690071180231 -61.29093991770795 16.133838510720164
  endloop
endfacet
facet normal 1.0 0.0 0.0
  outer loop
    vertex -207.33690071180231 -61.29093991770795 16.133838510720164
    vertex -207.33690071180231 -69.08130360011162 13.582448910720162
    vertex -207.33690071180231 -67.58674774672048 13.582448910720162
  endloop
endfacet
facet normal 1.0 0.0 0.0
  outer loop
    vertex -207.33690071180231 -61.29093991770795 16.133838510720164
    vertex -207.33690071180231 -67.58674774672048 13.582448910720162
    vertex -207.33690071180231 -67.19154124672048 13.582448910720162
  endloop
endfacet
facet normal 0.0 -0.46729152890283626 0.8841032897889531
  outer loop
    vertex -209.40026616811866 -53.89843038594421 6.907792650515526
    vertex -209.72554326811868 -53.10617195202212 7.32653971225533
    vertex -209.72554326811868 -53.89843038594421 6.907792650515526
  endloop
endfacet
facet normal 0.0 -0.46729152890283626 0.8841032897889531
  outer loop
    vertex -209.72554326811868 -53.10617195202212 7.32653971225533
    vertex -209.40026616811866 -53.89843038594421 6.907792650515526
    vertex -209.40026616811866 -53.10617195202212 7.32653971225533
  endloop
endfacet
facet normal -1.0 0.0 0.0
  outer loop
    vertex -202.1088633118023 -67.19154124408111 6.160760692162747
    vertex -202.1088633118023 -67.58674774672048 5.280543010372047
    vertex -202.1088633118023 -67.58674774672048 6.160760692162747
  endloop
endfacet
facet normal -1.0 0.0 0.0
  outer loop
    vertex -202.1088633118023 -67.58674774672048 5.280543010372047
    vertex -202.1088633118023 -67.19154124408111 6.160760692162747
    vertex -202.1088633118023 -67.19154124486904 5.280543010372047
  endloop
endfacet
facet normal 0.0 0.5852157704021528 0.8108776122650169
  outer loop
    vertex -209.39947116811868 -60.6439197627463 7.850960484262636
    vertex -209.72554326811868 -59.917279974595615 7.326539712255334
    vertex -209.72554326811868 -60.6439197627463 7.850960484262636
  endloop
endfacet
facet normal 0.0 0.5852157704021528 0.8108776122650169
  outer loop
    vertex -209.72554326811868 -59.917279974595615 7.326539712255334
    vertex -209.39947116811868 -60.6439197627463 7.850960484262636
    vertex -209.39947116811868 -59.917279974595615 7.326539712255334
  endloop
endfacet
facet normal -8.983935200532202e-05 0.9999999959644453 1.440766060860404e-08
  outer loop
    vertex -202.10848812551944 -46.79619378874535 9.10089634622647
    vertex -200.17273824324562 -46.796019952904366 13.57912346608484
    vertex -200.17346625696277 -46.79601994762948 9.100593912311307
  endloop
endfacet
facet normal -8.983935200532202e-05 0.9999999959644453 1.440766060860404e-08
  outer loop
    vertex -200.17273824324562 -46.796019952904366 13.57912346608484
    vertex -202.10848812551944 -46.79619378874535 9.10089634622647
    vertex -202.10776011180232 -46.796193794020226 13.579425899999999
  endloop
endfacet
facet normal 0.9999999953158585 8.983935264216448e-05 -3.601629678896427e-05
  outer loop
    vertex -202.1088633118023 -46.796193794020226 8.263768611952017
    vertex -202.1084320401233 -47.10833648874535 9.100896338146518
    vertex -202.1088633118023 -47.10833649402023 8.263768611952017
  endloop
endfacet
facet normal 0.9999999953158585 8.983935264216448e-05 -3.601629678896427e-05
  outer loop
    vertex -202.1084320401233 -47.10833648874535 9.100896338146518
    vertex -202.1088633118023 -46.796193794020226 8.263768611952017
    vertex -202.10848812551944 -46.79619378874535 9.10089634622647
  endloop
endfacet
facet normal -1.663380277160804e-10 1.0 -5.6278305968732595e-11
  outer loop
    vertex -207.33690071180231 -46.796193794020226 13.579425899999999
    vertex -202.1088633118023 -46.796193794020226 0.3458558999999992
    vertex -207.33690071180231 -46.796193794020226 0.3458558999999992
  endloop
endfacet
facet normal -1.663380277160804e-10 1.0 -5.6278305968732595e-11
  outer loop
    vertex -202.1088633118023 -46.796193794020226 0.3458558999999992
    vertex -207.33690071180231 -46.796193794020226 13.579425899999999
    vertex -202.1088633118023 -46.796193794020226 5.311497500000006
  endloop
endfacet
facet normal -1.663380277160804e-10 1.0 -5.6278305968732595e-11
  outer loop
    vertex -202.1088633118023 -46.796193794020226 5.311497500000006
    vertex -207.33690071180231 -46.796193794020226 13.579425899999999
    vertex -202.1088633118023 -46.796193794020226 6.188778797671622
  endloop
endfacet
facet normal -1.663380277160804e-10 1.0 -5.6278305968732595e-11
  outer loop
    vertex -202.1088633118023 -46.796193794020226 6.188778797671622
    vertex -207.33690071180231 -46.796193794020226 13.579425899999999
    vertex -202.1088633118023 -46.796193794020226 8.263768611952017
  endloop
endfacet
facet normal -1.663380277160804e-10 1.0 -5.6278305968732595e-11
  outer loop
    vertex -202.1088633118023 -46.796193794020226 8.263768611952017
    vertex -207.33690071180231 -46.796193794020226 13.579425899999999
    vertex -202.10848812551944 -46.79619378874535 9.10089634622647
  endloop
endfacet
facet normal -1.663380277160804e-10 1.0 -5.6278305968732595e-11
  outer loop
    vertex -202.10848812551944 -46.79619378874535 9.10089634622647
    vertex -207.33690071180231 -46.796193794020226 13.579425899999999
    vertex -202.10776011180232 -46.796193794020226 13.579425899999999
  endloop
endfacet
facet normal 0.0 1.0 0.0
  outer loop
    vertex -202.1088633118023 -46.796193794020226 5.311497500000006
    vertex -192.1127356681187 -46.796193794020226 0.3458558999999992
    vertex -202.1088633118023 -46.796193794020226 0.3458558999999992
  endloop
endfacet
facet normal 0.0 1.0 0.0
  outer loop
    vertex -192.1127356681187 -46.796193794020226 0.3458558999999992
    vertex -202.1088633118023 -46.796193794020226 5.311497500000006
    vertex -192.1127356681187 -46.796193794020226 5.311497500000006
  endloop
endfacet
facet normal 0.0 -1.0 0.0
  outer loop
    vertex -200.17644491180232 -47.10833649402023 8.263768611952017
    vertex -202.1088633118023 -47.10833649402023 6.188778797671622
    vertex -200.17644491180232 -47.10833649402023 6.188778797671622
  endloop
endfacet
facet normal 0.0 -1.0 0.0
  outer loop
    vertex -202.1088633118023 -47.10833649402023 6.188778797671622
    vertex -200.17644491180232 -47.10833649402023 8.263768611952017
    vertex -202.1088633118023 -47.10833649402023 8.263768611952017
  endloop
endfacet
facet normal 0.0 1.0 0.0
  outer loop
    vertex -207.63240111180232 -42.17408410011163 16.133838510720164
    vertex -207.33690071180231 -42.17408410011163 14.509288117048188
    vertex -207.63240111180232 -42.17408410011163 14.509288117048188
  endloop
endfacet
facet normal 0.0 1.0 0.0
  outer loop
    vertex -207.33690071180231 -42.17408410011163 14.509288117048188
    vertex -207.63240111180232 -42.17408410011163 16.133838510720164
    vertex -207.33690071180231 -42.17408410011163 16.133838510720164
  endloop
endfacet
facet normal 0.9999999837504088 8.983935315986373e-05 -0.00015629482806190213
  outer loop
    vertex -200.17341017156662 -47.108162647629484 9.100593904231355
    vertex -200.17273824324562 -46.796019952904366 13.57912346608484
    vertex -200.17273824324562 -47.10816265290436 13.57912346608484
  endloop
endfacet
facet normal 0.9999999837504088 8.983935315986373e-05 -0.00015629482806190213
  outer loop
    vertex -200.17273824324562 -46.796019952904366 13.57912346608484
    vertex -200.17341017156662 -47.108162647629484 9.100593904231355
    vertex -200.17346625696277 -46.79601994762948 9.100593912311307
  endloop
endfacet
facet normal 0.0 1.0 0.0
  outer loop
    vertex -202.1088633118023 -67.18648184672048 8.232136852432035
    vertex -200.17644491180232 -67.18648184672048 6.160760692162747
    vertex -202.1088633118023 -67.18648184672048 6.160760692162747
  endloop
endfacet
facet normal 0.0 1.0 0.0
  outer loop
    vertex -200.17644491180232 -67.18648184672048 6.160760692162747
    vertex -202.1088633118023 -67.18648184672048 8.232136852432035
    vertex -200.17644491180232 -67.18648184672048 8.235750506443143
  endloop
endfacet
facet normal 0.0 1.0 0.0
  outer loop
    vertex -200.17644491180232 -67.18648184672048 8.235750506443143
    vertex -202.1088633118023 -67.18648184672048 8.232136852432035
    vertex -202.1088633118023 -67.18648184672048 8.235750506443143
  endloop
endfacet
facet normal 0.0 0.0 -1.0
  outer loop
    vertex -200.17644491180232 -67.18648184672048 6.160760692162747
    vertex -202.1088633118023 -67.19154124408111 6.160760692162747
    vertex -202.1088633118023 -67.18648184672048 6.160760692162747
  endloop
endfacet
facet normal 0.0 0.0 -1.0
  outer loop
    vertex -202.1088633118023 -67.19154124408111 6.160760692162747
    vertex -200.17644491180232 -67.18648184672048 6.160760692162747
    vertex -202.1088633118023 -67.58674774672048 6.160760692162747
  endloop
endfacet
facet normal 0.0 0.0 -1.0
  outer loop
    vertex -202.1088633118023 -67.58674774672048 6.160760692162747
    vertex -200.17644491180232 -67.18648184672048 6.160760692162747
    vertex -200.17644491180232 -67.58674774672048 6.160760692162747
  endloop
endfacet
facet normal 0.0 -1.0 0.0
  outer loop
    vertex -207.33690071180231 -70.00585000011162 16.133838510720164
    vertex -207.63240111180232 -70.00585000011162 14.509288117048188
    vertex -207.33690071180231 -70.00585000011162 14.509288117048188
  endloop
endfacet
facet normal 0.0 -1.0 0.0
  outer loop
    vertex -207.63240111180232 -70.00585000011162 14.509288117048188
    vertex -207.33690071180231 -70.00585000011162 16.133838510720164
    vertex -207.63240111180232 -70.00585000011162 16.133838510720164
  endloop
endfacet
facet normal -1.0 0.0 0.0
  outer loop
    vertex -207.33690071180231 -69.69899190011164 16.133838510720164
    vertex -207.33690071180231 -70.00585000011162 14.509288117048188
    vertex -207.33690071180231 -70.00585000011162 16.133838510720164
  endloop
endfacet
facet normal -1.0 0.0 0.0
  outer loop
    vertex -207.33690071180231 -70.00585000011162 14.509288117048188
    vertex -207.33690071180231 -69.69899190011164 16.133838510720164
    vertex -207.33690071180231 -69.69899190011164 14.2016690317764
  endloop
endfacet
facet normal 0.0 0.0 1.0
  outer loop
    vertex -209.39933066811867 -51.111826393357696 16.478218910720148
    vertex -209.72554326811868 -49.11170076223004 16.478218910720148
    vertex -209.72554326811868 -51.111826393357696 16.478218910720148
  endloop
endfacet
facet normal 0.0 0.0 1.0
  outer loop
    vertex -209.72554326811868 -49.11170076223004 16.478218910720148
    vertex -209.39933066811867 -51.111826393357696 16.478218910720148
    vertex -209.72554326811868 -46.68882841554116 16.478218910720148
  endloop
endfacet
facet normal 0.0 0.0 1.0
  outer loop
    vertex -209.72554326811868 -46.68882841554116 16.478218910720148
    vertex -209.39933066811867 -51.111826393357696 16.478218910720148
    vertex -209.39933066811867 -47.11500721833049 16.478218910720148
  endloop
endfacet
facet normal -0.0001172125262480847 -0.0001913138285084804 -0.9999999748301212
  outer loop
    vertex -200.17384144324564 -67.19136740032972 9.104649328997363
    vertex -202.1088633118023 -67.58674774672048 9.104951762912526
    vertex -202.1088633118023 -67.19154124144559 9.104951762912526
  endloop
endfacet
facet normal -0.0001172125262480847 -0.0001913138285084804 -0.9999999748301212
  outer loop
    vertex -202.1088633118023 -67.58674774672048 9.104951762912526
    vertex -200.17384144324564 -67.19136740032972 9.104649328997363
    vertex -200.17384144324564 -67.58674774672048 9.104800545954944
  endloop
endfacet
facet normal 0.0 0.6918640003595579 0.7220278422654279
  outer loop
    vertex -209.39947116811868 -61.29093991770795 8.47095036072015
    vertex -209.72554326811868 -60.6439197627463 7.850960484262636
    vertex -209.72554326811868 -61.29093991770795 8.47095036072015
  endloop
endfacet
facet normal 0.0 0.6918640003595579 0.7220278422654279
  outer loop
    vertex -209.72554326811868 -60.6439197627463 7.850960484262636
    vertex -209.39947116811868 -61.29093991770795 8.47095036072015
    vertex -209.39947116811868 -60.6439197627463 7.850960484262636
  endloop
endfacet
facet normal 0.0 0.20687721510872698 0.9783669137235057
  outer loop
    vertex -209.39947116811868 -58.28240979677053 6.602787770434673
    vertex -209.72554326811868 -57.405680292627636 6.417401944650304
    vertex -209.72554326811868 -58.28240979677053 6.602787770434673
  endloop
endfacet
facet normal 0.0 0.20687721510872698 0.9783669137235057
  outer loop
    vertex -209.72554326811868 -57.405680292627636 6.417401944650304
    vertex -209.39947116811868 -58.28240979677053 6.602787770434673
    vertex -209.39947116811868 -57.405680292627636 6.417401944650304
  endloop
endfacet
facet normal 0.0 0.0 1.0
  outer loop
    vertex -200.17644491180232 -47.10833649402023 8.263768611952017
    vertex -202.1088633118023 -46.796193794020226 8.263768611952017
    vertex -202.1088633118023 -47.10833649402023 8.263768611952017
  endloop
endfacet
facet normal 0.0 0.0 1.0
  outer loop
    vertex -202.1088633118023 -46.796193794020226 8.263768611952017
    vertex -200.17644491180232 -47.10833649402023 8.263768611952017
    vertex -200.17644491180232 -46.796193794020226 8.263768611952017
  endloop
endfacet
facet normal -1.0 0.0 0.0
  outer loop
    vertex -202.1088633118023 -67.1915412422269 8.232136852078261
    vertex -202.1088633118023 -67.18648184672048 6.160760692162747
    vertex -202.1088633118023 -67.19154124408111 6.160760692162747
  endloop
endfacet
facet normal -1.0 0.0 0.0
  outer loop
    vertex -202.1088633118023 -67.18648184672048 6.160760692162747
    vertex -202.1088633118023 -67.1915412422269 8.232136852078261
    vertex -202.1088633118023 -67.18648184672048 8.232136852432035
  endloop
endfacet
facet normal 0.0 0.34036345507390936 0.9402939532136485
  outer loop
    vertex -209.39947116811868 -59.125021540673536 6.907792650515526
    vertex -209.72554326811868 -58.28240979677053 6.602787770434673
    vertex -209.72554326811868 -59.125021540673536 6.907792650515526
  endloop
endfacet
facet normal 0.0 0.34036345507390936 0.9402939532136485
  outer loop
    vertex -209.72554326811868 -58.28240979677053 6.602787770434673
    vertex -209.39947116811868 -59.125021540673536 6.907792650515526
    vertex -209.39947116811868 -58.28240979677053 6.602787770434673
  endloop
endfacet
facet normal -1.0 0.0 0.0
  outer loop
    vertex -202.1088633118023 -67.1915412422269 8.232136852078261
    vertex -202.1088633118023 -67.58674774672048 6.160760692162747
    vertex -202.1088633118023 -67.58674774672048 8.232136852432035
  endloop
endfacet
facet normal -1.0 0.0 0.0
  outer loop
    vertex -202.1088633118023 -67.58674774672048 6.160760692162747
    vertex -202.1088633118023 -67.1915412422269 8.232136852078261
    vertex -202.1088633118023 -67.19154124408111 6.160760692162747
  endloop
endfacet
facet normal 5.443763803225387e-18 -0.06940483877588806 0.9975885766960711
  outer loop
    vertex -209.39933066811867 -56.51172596330887 6.355207210720147
    vertex -209.72554326811868 -55.61777163399011 6.417401944650304
    vertex -209.72554326811868 -56.51172596330887 6.355207210720147
  endloop
endfacet
facet normal 5.443763803225387e-18 -0.06940483877588806 0.9975885766960711
  outer loop
    vertex -209.72554326811868 -55.61777163399011 6.417401944650304
    vertex -209.39933066811867 -56.51172596330887 6.355207210720147
    vertex -209.40026616811866 -55.61777163399011 6.417401944650304
  endloop
endfacet
facet normal -0.0001562948284952248 -2.19740688738574e-09 -0.9999999877859632
  outer loop
    vertex -200.17346625696277 -46.79601994762948 9.100593912311307
    vertex -202.1084320401233 -47.10833648874535 9.100896338146518
    vertex -202.10848812551944 -46.79619378874535 9.10089634622647
  endloop
endfacet
facet normal -0.0001562948284952248 -2.19740688738574e-09 -0.9999999877859632
  outer loop
    vertex -202.1084320401233 -47.10833648874535 9.100896338146518
    vertex -200.17346625696277 -46.79601994762948 9.100593912311307
    vertex -200.17341017156662 -47.108162647629484 9.100593904231355
  endloop
endfacet
facet normal 0.0 -0.20687721510872698 0.9783669137235057
  outer loop
    vertex -209.40026616811866 -55.61777163399011 6.417401944650304
    vertex -209.72554326811868 -54.741042129847216 6.602787770434673
    vertex -209.72554326811868 -55.61777163399011 6.417401944650304
  endloop
endfacet
facet normal 0.0 -0.20687721510872698 0.9783669137235057
  outer loop
    vertex -209.72554326811868 -54.741042129847216 6.602787770434673
    vertex -209.40026616811866 -55.61777163399011 6.417401944650304
    vertex -209.40026616811866 -54.741042129847216 6.602787770434673
  endloop
endfacet
facet normal 1.0 0.0 0.0
  outer loop
    vertex -207.33690071180231 -61.29093991770795 16.133838510720164
    vertex -207.33690071180231 -69.69899190011164 16.478218910720148
    vertex -207.33690071180231 -69.69899190011164 16.133838510720164
  endloop
endfacet
facet normal 1.0 0.0 0.0
  outer loop
    vertex -207.33690071180231 -69.69899190011164 16.478218910720148
    vertex -207.33690071180231 -61.29093991770795 16.133838510720164
    vertex -207.33690071180231 -62.19355825011163 16.478218910720148
  endloop
endfacet
facet normal 0.0 -0.5852157704021503 0.8108776122650185
  outer loop
    vertex -209.40026616811866 -53.10617195202212 7.32653971225533
    vertex -209.72554326811868 -52.37953216387144 7.8509604842626315
    vertex -209.72554326811868 -53.10617195202212 7.32653971225533
  endloop
endfacet
facet normal 0.0 -0.5852157704021503 0.8108776122650185
  outer loop
    vertex -209.72554326811868 -52.37953216387144 7.8509604842626315
    vertex -209.40026616811866 -53.10617195202212 7.32653971225533
    vertex -209.40026616811866 -52.37953216387144 7.8509604842626315
  endloop
endfacet
facet normal 0.0 -0.34036345507390936 0.9402939532136485
  outer loop
    vertex -209.40026616811866 -54.741042129847216 6.602787770434673
    vertex -209.72554326811868 -53.89843038594421 6.907792650515526
    vertex -209.72554326811868 -54.741042129847216 6.602787770434673
  endloop
endfacet
facet normal 0.0 -0.34036345507390936 0.9402939532136485
  outer loop
    vertex -209.72554326811868 -53.89843038594421 6.907792650515526
    vertex -209.40026616811866 -54.741042129847216 6.602787770434673
    vertex -209.40026616811866 -53.89843038594421 6.907792650515526
  endloop
endfacet
facet normal 1.0 0.0 0.0
  outer loop
    vertex -207.33690071180231 -67.19154124672048 0.3458558999999992
    vertex -207.33690071180231 -67.58674774672048 13.582448910720162
    vertex -207.33690071180231 -67.58674774672048 0.3458558999999992
  endloop
endfacet
facet normal 1.0 0.0 0.0
  outer loop
    vertex -207.33690071180231 -67.58674774672048 13.582448910720162
    vertex -207.33690071180231 -67.19154124672048 0.3458558999999992
    vertex -207.33690071180231 -67.19154124672048 13.582448910720162
  endloop
endfacet
facet normal -7.41248652951529e-15 -0.6918640003595599 0.722027842265426
  outer loop
    vertex -209.40026616811866 -52.37953216387144 7.8509604842626315
    vertex -209.72554326811868 -51.73251200890979 8.470950360720146
    vertex -209.72554326811868 -52.37953216387144 7.8509604842626315
  endloop
endfacet
facet normal -7.41248652951529e-15 -0.6918640003595599 0.722027842265426
  outer loop
    vertex -209.72554326811868 -51.73251200890979 8.470950360720146
    vertex -209.40026616811866 -52.37953216387144 7.8509604842626315
    vertex -209.39933066811867 -51.73251200890979 8.470950360720147
  endloop
endfacet
facet normal -1.1720857641623481e-17 0.0694048387758877 0.9975885766960711
  outer loop
    vertex -209.39947116811868 -57.405680292627636 6.417401944650304
    vertex -209.72554326811868 -56.51172596330887 6.355207210720147
    vertex -209.72554326811868 -57.405680292627636 6.417401944650304
  endloop
endfacet
facet normal -1.1720857641623481e-17 0.0694048387758877 0.9975885766960711
  outer loop
    vertex -209.72554326811868 -56.51172596330887 6.355207210720147
    vertex -209.39947116811868 -57.405680292627636 6.417401944650304
    vertex -209.39933066811867 -56.51172596330887 6.355207210720147
  endloop
endfacet
facet normal -7.178197881134671e-10 -1.0 -1.5017252980193394e-11
  outer loop
    vertex -209.39933066811867 -70.00585000011162 13.361624799999985
    vertex -209.72554326811868 -70.00585000011162 0.3539836000000005
    vertex -209.39933066811867 -70.00585000009546 0.35398360000000023
  endloop
endfacet
facet normal -7.178197881134671e-10 -1.0 -1.5017252980193394e-11
  outer loop
    vertex -209.72554326811868 -70.00585000011162 0.3539836000000005
    vertex -209.39933066811867 -70.00585000011162 13.361624799999985
    vertex -209.72554326811868 -70.00585000011162 16.478218910720148
  endloop
endfacet
facet normal -7.178197881134671e-10 -1.0 -1.5017252980193394e-11
  outer loop
    vertex -209.72554326811868 -70.00585000011162 16.478218910720148
    vertex -209.39933066811867 -70.00585000011162 13.361624799999985
    vertex -209.39933066811867 -70.00585000011162 16.133838510720164
  endloop
endfacet
facet normal -7.178197881134671e-10 -1.0 -1.5017252980193394e-11
  outer loop
    vertex -209.72554326811868 -70.00585000011162 16.478218910720148
    vertex -209.39933066811867 -70.00585000011162 16.133838510720164
    vertex -209.39933066811867 -70.00585000011162 16.478218910720148
  endloop
endfacet
facet normal 0.0 1.0 0.0
  outer loop
    vertex -202.1088633118023 -46.796193794020226 8.263768611952017
    vertex -200.17644491180232 -46.796193794020226 6.188778797671622
    vertex -202.1088633118023 -46.796193794020226 6.188778797671622
  endloop
endfacet
facet normal 0.0 1.0 0.0
  outer loop
    vertex -200.17644491180232 -46.796193794020226 6.188778797671622
    vertex -202.1088633118023 -46.796193794020226 8.263768611952017
    vertex -200.17644491180232 -46.796193794020226 8.263768611952017
  endloop
endfacet
facet normal 0.0 0.0 1.0
  outer loop
    vertex -202.10776011180232 -47.10833649402023 13.579425899999999
    vertex -207.33690071180231 -46.796193794020226 13.579425899999999
    vertex -207.33690071180231 -47.10833649402023 13.579425899999999
  endloop
endfacet
facet normal 0.0 0.0 1.0
  outer loop
    vertex -207.33690071180231 -46.796193794020226 13.579425899999999
    vertex -202.10776011180232 -47.10833649402023 13.579425899999999
    vertex -202.10776011180232 -46.796193794020226 13.579425899999999
  endloop
endfacet
facet normal 0.0 0.0 1.0
  outer loop
    vertex -209.39933066811867 -62.19355825011163 16.478218910720148
    vertex -209.72554326811868 -61.29093991770795 16.478218910720148
    vertex -209.72554326811868 -62.19355825011163 16.478218910720148
  endloop
endfacet
facet normal 0.0 0.0 1.0
  outer loop
    vertex -209.72554326811868 -61.29093991770795 16.478218910720148
    vertex -209.39933066811867 -62.19355825011163 16.478218910720148
    vertex -209.39933066811867 -61.29093991770795 16.478218910720148
  endloop
endfacet
facet normal 0.0 0.0 1.0
  outer loop
    vertex -207.33690071180231 -51.111826393357696 16.478218910720148
    vertex -209.39933066811867 -47.11500721833049 16.478218910720148
    vertex -209.39933066811867 -51.111826393357696 16.478218910720148
  endloop
endfacet
facet normal 0.0 0.0 1.0
  outer loop
    vertex -209.39933066811867 -47.11500721833049 16.478218910720148
    vertex -207.33690071180231 -51.111826393357696 16.478218910720148
    vertex -207.33690071180231 -49.80945841248963 16.478218910720148
  endloop
endfacet
facet normal 0.0 0.0 1.0
  outer loop
    vertex -209.39933066811867 -70.00585000011162 16.478218910720148
    vertex -209.72554326811868 -68.96625721284278 16.478218910720148
    vertex -209.72554326811868 -70.00585000011162 16.478218910720148
  endloop
endfacet
facet normal 0.0 0.0 1.0
  outer loop
    vertex -209.72554326811868 -68.96625721284278 16.478218910720148
    vertex -209.39933066811867 -70.00585000011162 16.478218910720148
    vertex -209.72554326811868 -65.4911056846821 16.478218910720148
  endloop
endfacet
facet normal 0.0 0.0 1.0
  outer loop
    vertex -209.72554326811868 -65.4911056846821 16.478218910720148
    vertex -209.39933066811867 -70.00585000011162 16.478218910720148
    vertex -209.72554326811868 -62.92863221043102 16.478218910720148
  endloop
endfacet
facet normal 0.0 0.0 1.0
  outer loop
    vertex -209.72554326811868 -62.92863221043102 16.478218910720148
    vertex -209.39933066811867 -70.00585000011162 16.478218910720148
    vertex -209.72554326811868 -62.19355825011163 16.478218910720148
  endloop
endfacet
facet normal 0.0 0.0 1.0
  outer loop
    vertex -209.72554326811868 -62.19355825011163 16.478218910720148
    vertex -209.39933066811867 -70.00585000011162 16.478218910720148
    vertex -209.39933066811867 -62.19355825011163 16.478218910720148
  endloop
endfacet
facet normal -1.0 0.0 0.0
  outer loop
    vertex -192.1127356681187 -67.19154124579477 5.280543010372047
    vertex -192.1127356681187 -67.58674774672048 3.2122651999999983
    vertex -192.1127356681187 -67.58674774672048 5.280543010372047
  endloop
endfacet
facet normal -1.0 0.0 0.0
  outer loop
    vertex -192.1127356681187 -67.58674774672048 3.2122651999999983
    vertex -192.1127356681187 -67.19154124579477 5.280543010372047
    vertex -192.1127356681187 -67.19154124672048 3.2122651999999983
  endloop
endfacet
facet normal -1.0 0.0 0.0
  outer loop
    vertex -202.1088633118023 -67.19154124144559 9.104951762912526
    vertex -202.1088633118023 -67.58674774672048 8.235750506443143
    vertex -202.1088633118023 -67.58674774672048 9.104951762912526
  endloop
endfacet
facet normal -1.0 0.0 0.0
  outer loop
    vertex -202.1088633118023 -67.58674774672048 8.235750506443143
    vertex -202.1088633118023 -67.19154124144559 9.104951762912526
    vertex -202.1088633118023 -67.19154124222368 8.235750506443143
  endloop
endfacet
facet normal 0.0 -1.0 0.0
  outer loop
    vertex -209.39933066811867 -51.73251200890979 8.470950360720147
    vertex -209.72554326811868 -51.73251200890979 16.478218910720148
    vertex -209.72554326811868 -51.73251200890979 8.470950360720146
  endloop
endfacet
facet normal 0.0 -1.0 0.0
  outer loop
    vertex -209.72554326811868 -51.73251200890979 16.478218910720148
    vertex -209.39933066811867 -51.73251200890979 8.470950360720147
    vertex -209.39933066811867 -51.73251200890979 16.133838510720164
  endloop
endfacet
facet normal 0.0 -1.0 0.0
  outer loop
    vertex -209.72554326811868 -51.73251200890979 16.478218910720148
    vertex -209.39933066811867 -51.73251200890979 16.133838510720164
    vertex -209.39933066811867 -51.73251200890979 16.478218910720148
  endloop
endfacet
facet normal -0.0 1.0 -0.0
  outer loop
    vertex -209.72554326811868 -61.29093991770795 16.478218910720148
    vertex -209.39947116811868 -61.29093991770795 8.47095036072015
    vertex -209.72554326811868 -61.29093991770795 8.47095036072015
  endloop
endfacet
facet normal -0.0 1.0 -0.0
  outer loop
    vertex -209.39947116811868 -61.29093991770795 8.47095036072015
    vertex -209.72554326811868 -61.29093991770795 16.478218910720148
    vertex -209.39933066811867 -61.29093991770795 16.133838510720164
  endloop
endfacet
facet normal -0.0 1.0 -0.0
  outer loop
    vertex -209.39933066811867 -61.29093991770795 16.133838510720164
    vertex -209.72554326811868 -61.29093991770795 16.478218910720148
    vertex -209.39933066811867 -61.29093991770795 16.478218910720148
  endloop
endfacet
facet normal 0.0 0.0 1.0
  outer loop
    vertex -192.1127356681187 -67.58674774672048 5.280543010372047
    vertex -202.1088633118023 -67.19154124486904 5.280543010372047
    vertex -202.1088633118023 -67.58674774672048 5.280543010372047
  endloop
endfacet
facet normal 0.0 0.0 1.0
  outer loop
    vertex -202.1088633118023 -67.19154124486904 5.280543010372047
    vertex -192.1127356681187 -67.58674774672048 5.280543010372047
    vertex -192.1127356681187 -67.19154124579477 5.280543010372047
  endloop
endfacet
facet normal 1.0 0.0 0.0
  outer loop
    vertex -207.33690071180231 -42.17408410011163 14.509288117048188
    vertex -207.33690071180231 -42.49014880011163 16.133838510720164
    vertex -207.33690071180231 -42.49014880011163 14.193223417048182
  endloop
endfacet
facet normal 1.0 0.0 0.0
  outer loop
    vertex -207.33690071180231 -42.49014880011163 16.133838510720164
    vertex -207.33690071180231 -42.17408410011163 14.509288117048188
    vertex -207.33690071180231 -42.17408410011163 16.133838510720164
  endloop
endfacet
facet normal 1.0 0.0 0.0
  outer loop
    vertex -207.33690071180231 -42.17408410011163 16.133838510720164
    vertex -207.33690071180231 -42.49014880011163 16.478218910720148
    vertex -207.33690071180231 -42.49014880011163 16.133838510720164
  endloop
endfacet
facet normal 1.0 0.0 0.0
  outer loop
    vertex -207.33690071180231 -42.49014880011163 16.478218910720148
    vertex -207.33690071180231 -42.17408410011163 16.133838510720164
    vertex -207.33690071180231 -42.17408410011163 16.478218910720148
  endloop
endfacet
facet normal 3.8307873444974303e-32 1.0 -1.0729323152951596e-31
  outer loop
    vertex -207.33690071180231 -67.58674774672048 13.582448910720162
    vertex -202.1088633118023 -67.58674774672048 0.3458558999999992
    vertex -207.33690071180231 -67.58674774672048 0.3458558999999992
  endloop
endfacet
facet normal 3.8307873444974303e-32 1.0 -1.0729323152951596e-31
  outer loop
    vertex -202.1088633118023 -67.58674774672048 0.3458558999999992
    vertex -207.33690071180231 -67.58674774672048 13.582448910720162
    vertex -202.1088633118023 -67.58674774672048 3.2122651999999983
  endloop
endfacet
facet normal 3.8307873444974303e-32 1.0 -1.0729323152951596e-31
  outer loop
    vertex -202.1088633118023 -67.58674774672048 3.2122651999999983
    vertex -207.33690071180231 -67.58674774672048 13.582448910720162
    vertex -202.1088633118023 -67.58674774672048 5.280543010372047
  endloop
endfacet
facet normal 3.8307873444974303e-32 1.0 -1.0729323152951596e-31
  outer loop
    vertex -202.1088633118023 -67.58674774672048 5.280543010372047
    vertex -207.33690071180231 -67.58674774672048 13.582448910720162
    vertex -202.1088633118023 -67.58674774672048 6.160760692162747
  endloop
endfacet
facet normal 3.8307873444974303e-32 1.0 -1.0729323152951596e-31
  outer loop
    vertex -202.1088633118023 -67.58674774672048 6.160760692162747
    vertex -207.33690071180231 -67.58674774672048 13.582448910720162
    vertex -202.1088633118023 -67.58674774672048 8.232136852432035
  endloop
endfacet
facet normal 3.8307873444974303e-32 1.0 -1.0729323152951596e-31
  outer loop
    vertex -202.1088633118023 -67.58674774672048 8.232136852432035
    vertex -207.33690071180231 -67.58674774672048 13.582448910720162
    vertex -202.1088633118023 -67.58674774672048 8.235750506443143
  endloop
endfacet
facet normal 3.8307873444974303e-32 1.0 -1.0729323152951596e-31
  outer loop
    vertex -202.1088633118023 -67.58674774672048 8.235750506443143
    vertex -207.33690071180231 -67.58674774672048 13.582448910720162
    vertex -202.1088633118023 -67.58674774672048 9.104951762912526
  endloop
endfacet
facet normal 3.8307873444974303e-32 1.0 -1.0729323152951596e-31
  outer loop
    vertex -202.1088633118023 -67.58674774672048 9.104951762912526
    vertex -200.17384144324564 -67.58674774672048 13.582448910720162
    vertex -200.17384144324564 -67.58674774672048 9.104800545954944
  endloop
endfacet
facet normal 3.8307873444974303e-32 1.0 -1.0729323152951596e-31
  outer loop
    vertex -200.17384144324564 -67.58674774672048 13.582448910720162
    vertex -202.1088633118023 -67.58674774672048 9.104951762912526
    vertex -207.33690071180231 -67.58674774672048 13.582448910720162
  endloop
endfacet
facet normal 0.0 0.0 -1.0
  outer loop
    vertex -207.63240111180232 -61.29093991770795 16.133838510720164
    vertex -209.39933066811867 -69.69899190011164 16.133838510720164
    vertex -209.39933066811867 -61.29093991770795 16.133838510720164
  endloop
endfacet
facet normal 0.0 0.0 -1.0
  outer loop
    vertex -209.39933066811867 -69.69899190011164 16.133838510720164
    vertex -207.63240111180232 -61.29093991770795 16.133838510720164
    vertex -207.63240111180232 -69.69899190011164 16.133838510720164
  endloop
endfacet
facet normal 0.0 0.0 -1.0
  outer loop
    vertex -207.63240111180232 -42.17408410011163 16.133838510720164
    vertex -209.39933066811867 -42.49014880011163 16.133838510720164
    vertex -209.39933066811867 -42.17408410011163 16.133838510720164
  endloop
endfacet
facet normal 0.0 0.0 -1.0
  outer loop
    vertex -209.39933066811867 -42.49014880011163 16.133838510720164
    vertex -207.63240111180232 -42.17408410011163 16.133838510720164
    vertex -207.63240111180232 -42.49014880011163 16.133838510720164
  endloop
endfacet
facet normal 4.0303510346547056e-05 0.0006158434320152642 -0.9999998095562291
  outer loop
    vertex -200.17311342952843 -67.19136740560461 13.583178882770897
    vertex -207.33690071180231 -67.58674774672048 13.582448910720162
    vertex -207.33690071180231 -67.19154124672048 13.582448910720162
  endloop
endfacet
facet normal 4.0303510346547056e-05 0.0006158434320152642 -0.9999998095562291
  outer loop
    vertex -207.33690071180231 -67.58674774672048 13.582448910720162
    vertex -200.17311342952843 -67.19136740560461 13.583178882770897
    vertex -200.17384144324564 -67.58674774672048 13.582448910720162
  endloop
endfacet
facet normal 0.0 0.0 1.0
  outer loop
    vertex -202.1088633118023 -67.58674774672048 0.3458558999999992
    vertex -207.33690071180231 -67.19154124672048 0.3458558999999992
    vertex -207.33690071180231 -67.58674774672048 0.3458558999999992
  endloop
endfacet
facet normal 0.0 0.0 1.0
  outer loop
    vertex -207.33690071180231 -67.19154124672048 0.3458558999999992
    vertex -202.1088633118023 -67.58674774672048 0.3458558999999992
    vertex -202.1088633118023 -67.19154124672048 0.3458558999999992
  endloop
endfacet
facet normal 2.1720462897488836e-06 -0.9999999999796831 5.9930098298561276e-06
  outer loop
    vertex -200.17311342952843 -67.19136740560461 13.583178882770897
    vertex -202.1088633118023 -67.19154124144559 9.104951762912526
    vertex -200.17384144324564 -67.19136740032972 9.104649328997363
  endloop
endfacet
facet normal 2.1720462897488836e-06 -0.9999999999796831 5.9930098298561276e-06
  outer loop
    vertex -202.1088633118023 -67.19154124144559 9.104951762912526
    vertex -200.17311342952843 -67.19136740560461 13.583178882770897
    vertex -207.33690071180231 -67.19154124672048 13.582448910720162
  endloop
endfacet
facet normal 2.1720462897488836e-06 -0.9999999999796831 5.9930098298561276e-06
  outer loop
    vertex -192.1127356681187 -67.19154124672048 3.2122651999999983
    vertex -202.1088633118023 -67.19154124672048 0.3458558999999992
    vertex -192.1127356681187 -67.19154124672048 0.3458558999999992
  endloop
endfacet
facet normal 2.1720462897488836e-06 -0.9999999999796831 5.9930098298561276e-06
  outer loop
    vertex -202.1088633118023 -67.19154124672048 0.3458558999999992
    vertex -192.1127356681187 -67.19154124672048 3.2122651999999983
    vertex -207.33690071180231 -67.19154124672048 0.3458558999999992
  endloop
endfacet
facet normal 2.1720462897488836e-06 -0.9999999999796831 5.9930098298561276e-06
  outer loop
    vertex -207.33690071180231 -67.19154124672048 0.3458558999999992
    vertex -192.1127356681187 -67.19154124672048 3.2122651999999983
    vertex -202.1088633118023 -67.19154124486904 5.280543010372047
  endloop
endfacet
facet normal 2.1720462897488836e-06 -0.9999999999796831 5.9930098298561276e-06
  outer loop
    vertex -207.33690071180231 -67.19154124672048 0.3458558999999992
    vertex -202.1088633118023 -67.19154124486904 5.280543010372047
    vertex -207.33690071180231 -67.19154124672048 13.582448910720162
  endloop
endfacet
facet normal 2.1720462897488836e-06 -0.9999999999796831 5.9930098298561276e-06
  outer loop
    vertex -202.1088633118023 -67.19154124486904 5.280543010372047
    vertex -192.1127356681187 -67.19154124672048 3.2122651999999983
    vertex -192.1127356681187 -67.19154124579477 5.280543010372047
  endloop
endfacet
facet normal 2.1720462897488836e-06 -0.9999999999796831 5.9930098298561276e-06
  outer loop
    vertex -207.33690071180231 -67.19154124672048 13.582448910720162
    vertex -202.1088633118023 -67.19154124486904 5.280543010372047
    vertex -202.1088633118023 -67.19154124408111 6.160760692162747
  endloop
endfacet
facet normal 2.1720462897488836e-06 -0.9999999999796831 5.9930098298561276e-06
  outer loop
    vertex -207.33690071180231 -67.19154124672048 13.582448910720162
    vertex -202.1088633118023 -67.19154124408111 6.160760692162747
    vertex -202.1088633118023 -67.1915412422269 8.232136852078261
  endloop
endfacet
facet normal 2.1720462897488836e-06 -0.9999999999796831 5.9930098298561276e-06
  outer loop
    vertex -207.33690071180231 -67.19154124672048 13.582448910720162
    vertex -202.1088633118023 -67.1915412422269 8.232136852078261
    vertex -202.1088633118023 -67.19154124222368 8.235750506443143
  endloop
endfacet
facet normal 2.1720462897488836e-06 -0.9999999999796831 5.9930098298561276e-06
  outer loop
    vertex -207.33690071180231 -67.19154124672048 13.582448910720162
    vertex -202.1088633118023 -67.19154124222368 8.235750506443143
    vertex -202.1088633118023 -67.19154124144559 9.104951762912526
  endloop
endfacet
facet normal -6.04192438722077e-17 0.7071067811865476 -0.7071067811865476
  outer loop
    vertex -207.63240111180232 -42.17408410011163 14.509288117048188
    vertex -207.33690071180231 -43.100923306439654 13.582448910720162
    vertex -207.63240111180232 -43.100923306439654 13.582448910720162
  endloop
endfacet
facet normal -6.04192438722077e-17 0.7071067811865476 -0.7071067811865476
  outer loop
    vertex -207.33690071180231 -43.100923306439654 13.582448910720162
    vertex -207.63240111180232 -42.17408410011163 14.509288117048188
    vertex -207.33690071180231 -42.49014880011163 14.193223417048182
  endloop
endfacet
facet normal -6.04192438722077e-17 0.7071067811865476 -0.7071067811865476
  outer loop
    vertex -207.33690071180231 -42.49014880011163 14.193223417048182
    vertex -207.63240111180232 -42.17408410011163 14.509288117048188
    vertex -207.33690071180231 -42.17408410011163 14.509288117048188
  endloop
endfacet
facet normal 0.9999999996401268 8.527721998695002e-06 -2.5436674967333407e-05
  outer loop
    vertex -209.39933066811867 -69.69899190011164 0.3458558999999992
    vertex -209.39947116811868 -60.6439197627463 7.850960484262636
    vertex -209.39933066811867 -69.69899190011164 16.133838510720164
  endloop
endfacet
facet normal 0.9999999996401268 8.527721998695002e-06 -2.5436674967333407e-05
  outer loop
    vertex -209.39947116811868 -60.6439197627463 7.850960484262636
    vertex -209.39933066811867 -69.69899190011164 0.3458558999999992
    vertex -209.39947116811868 -59.917279974595615 7.326539712255334
  endloop
endfacet
facet normal 0.9999999996401268 8.527721998695002e-06 -2.5436674967333407e-05
  outer loop
    vertex -209.39947116811868 -59.917279974595615 7.326539712255334
    vertex -209.39933066811867 -69.69899190011164 0.3458558999999992
    vertex -209.39947116811868 -59.125021540673536 6.907792650515526
  endloop
endfacet
facet normal 0.9999999996401268 8.527721998695002e-06 -2.5436674967333407e-05
  outer loop
    vertex -209.39947116811868 -59.125021540673536 6.907792650515526
    vertex -209.39933066811867 -69.69899190011164 0.3458558999999992
    vertex -209.39933066811867 -42.49014880011163 0.3458558999999992
  endloop
endfacet
facet normal 0.9999999996401268 8.527721998695002e-06 -2.5436674967333407e-05
  outer loop
    vertex -209.39933066811867 -69.69899190011164 16.133838510720164
    vertex -209.39947116811868 -60.6439197627463 7.850960484262636
    vertex -209.39947116811868 -61.29093991770795 8.47095036072015
  endloop
endfacet
facet normal 0.9999999996401268 8.527721998695002e-06 -2.5436674967333407e-05
  outer loop
    vertex -209.39947116811868 -59.125021540673536 6.907792650515526
    vertex -209.39933066811867 -42.49014880011163 0.3458558999999992
    vertex -209.39947116811868 -58.28240979677053 6.602787770434673
  endloop
endfacet
facet normal 0.9999999996401268 8.527721998695002e-06 -2.5436674967333407e-05
  outer loop
    vertex -209.39947116811868 -58.28240979677053 6.602787770434673
    vertex -209.39933066811867 -42.49014880011163 0.3458558999999992
    vertex -209.39947116811868 -57.405680292627636 6.417401944650304
  endloop
endfacet
facet normal 0.9999999996401268 8.527721998695002e-06 -2.5436674967333407e-05
  outer loop
    vertex -209.39947116811868 -57.405680292627636 6.417401944650304
    vertex -209.39933066811867 -42.49014880011163 0.3458558999999992
    vertex -209.39933066811867 -56.51172596330887 6.355207210720147
  endloop
endfacet
facet normal 0.9999999996401268 8.527721998695002e-06 -2.5436674967333407e-05
  outer loop
    vertex -209.39933066811867 -56.51172596330887 6.355207210720147
    vertex -209.39933066811867 -42.49014880011163 0.3458558999999992
    vertex -209.40026616811866 -55.61777163399011 6.417401944650304
  endloop
endfacet
facet normal 0.9999999996401268 8.527721998695002e-06 -2.5436674967333407e-05
  outer loop
    vertex -209.40026616811866 -55.61777163399011 6.417401944650304
    vertex -209.39933066811867 -42.49014880011163 0.3458558999999992
    vertex -209.40026616811866 -54.741042129847216 6.602787770434673
  endloop
endfacet
facet normal 0.9999999996401268 8.527721998695002e-06 -2.5436674967333407e-05
  outer loop
    vertex -209.40026616811866 -54.741042129847216 6.602787770434673
    vertex -209.39933066811867 -42.49014880011163 0.3458558999999992
    vertex -209.40026616811866 -53.89843038594421 6.907792650515526
  endloop
endfacet
facet normal 0.9999999996401268 8.527721998695002e-06 -2.5436674967333407e-05
  outer loop
    vertex -209.40026616811866 -53.89843038594421 6.907792650515526
    vertex -209.39933066811867 -42.49014880011163 0.3458558999999992
    vertex -209.40026616811866 -53.10617195202212 7.32653971225533
  endloop
endfacet
facet normal 0.9999999996401268 8.527721998695002e-06 -2.5436674967333407e-05
  outer loop
    vertex -209.40026616811866 -53.10617195202212 7.32653971225533
    vertex -209.39933066811867 -42.49014880011163 0.3458558999999992
    vertex -209.40026616811866 -52.37953216387144 7.8509604842626315
  endloop
endfacet
facet normal 0.9999999996401268 8.527721998695002e-06 -2.5436674967333407e-05
  outer loop
    vertex -209.40026616811866 -52.37953216387144 7.8509604842626315
    vertex -209.39933066811867 -42.49014880011163 0.3458558999999992
    vertex -209.39933066811867 -51.73251200890979 8.470950360720147
  endloop
endfacet
facet normal 0.9999999996401268 8.527721998695002e-06 -2.5436674967333407e-05
  outer loop
    vertex -209.39933066811867 -51.73251200890979 8.470950360720147
    vertex -209.39933066811867 -42.49014880011163 0.3458558999999992
    vertex -209.39933066811867 -51.73251200890979 16.133838510720164
  endloop
endfacet
facet normal 0.9999999996401268 8.527721998695002e-06 -2.5436674967333407e-05
  outer loop
    vertex -209.39933066811867 -51.73251200890979 16.133838510720164
    vertex -209.39933066811867 -42.49014880011163 0.3458558999999992
    vertex -209.39933066811867 -51.111826393357696 16.133838510720164
  endloop
endfacet
facet normal 0.9999999996401268 8.527721998695002e-06 -2.5436674967333407e-05
  outer loop
    vertex -209.39933066811867 -51.111826393357696 16.133838510720164
    vertex -209.39933066811867 -42.49014880011163 0.3458558999999992
    vertex -209.39933066811867 -42.49014880011163 16.133838510720164
  endloop
endfacet
facet normal 0.9999999996401268 8.527721998695002e-06 -2.5436674967333407e-05
  outer loop
    vertex -209.39933066811867 -61.29093991770795 16.133838510720164
    vertex -209.39933066811867 -69.69899190011164 16.133838510720164
    vertex -209.39947116811868 -61.29093991770795 8.47095036072015
  endloop
endfacet
facet normal 0.0 -1.0 0.0
  outer loop
    vertex -200.17644491180232 -67.58674774672048 8.235750506443143
    vertex -202.1088633118023 -67.58674774672048 6.160760692162747
    vertex -200.17644491180232 -67.58674774672048 6.160760692162747
  endloop
endfacet
facet normal 0.0 -1.0 0.0
  outer loop
    vertex -202.1088633118023 -67.58674774672048 6.160760692162747
    vertex -200.17644491180232 -67.58674774672048 8.235750506443143
    vertex -202.1088633118023 -67.58674774672048 8.232136852432035
  endloop
endfacet
facet normal 0.0 -1.0 0.0
  outer loop
    vertex -202.1088633118023 -67.58674774672048 8.232136852432035
    vertex -200.17644491180232 -67.58674774672048 8.235750506443143
    vertex -202.1088633118023 -67.58674774672048 8.235750506443143
  endloop
endfacet
facet normal 0.999999572952598 -0.0009205899629502173 -8.129416802506554e-05
  outer loop
    vertex -200.17384144324564 -67.19136740032972 9.104649328997363
    vertex -200.17384144324564 -67.58674774672048 13.582448910720162
    vertex -200.17384144324564 -67.58674774672048 9.104800545954944
  endloop
endfacet
facet normal 0.999999572952598 -0.0009205899629502173 -8.129416802506554e-05
  outer loop
    vertex -200.17384144324564 -67.58674774672048 13.582448910720162
    vertex -200.17384144324564 -67.19136740032972 9.104649328997363
    vertex -200.17311342952843 -67.19136740560461 13.583178882770897
  endloop
endfacet
facet normal -1.0 0.0 0.0
  outer loop
    vertex -209.72554326811868 -42.17408410011163 16.478218910720148
    vertex -209.72554326811868 -42.53491420011163 0.3539836000000005
    vertex -209.72554326811868 -42.53491420011163 16.478218910720148
  endloop
endfacet
facet normal -1.0 0.0 0.0
  outer loop
    vertex -209.72554326811868 -42.53491420011163 0.3539836000000005
    vertex -209.72554326811868 -42.17408410011163 16.478218910720148
    vertex -209.72554326811868 -42.17408410011163 0.3539836000000005
  endloop
endfacet
facet normal 1.0 0.0 0.0
  outer loop
    vertex -209.39933066811867 -61.29093991770795 16.478218910720148
    vertex -209.39933066811867 -62.19355825011163 16.478218910720148
    vertex -209.39933066811867 -61.29093991770795 16.133838510720164
  endloop
endfacet
facet normal 0.0 -1.0 0.0
  outer loop
    vertex -207.33690071180231 -70.00585000011162 16.478218910720148
    vertex -207.63240111180232 -70.00585000011162 16.133838510720164
    vertex -207.33690071180231 -70.00585000011162 16.133838510720164
  endloop
endfacet
facet normal 0.0 -1.0 0.0
  outer loop
    vertex -207.63240111180232 -70.00585000011162 16.133838510720164
    vertex -207.33690071180231 -70.00585000011162 16.478218910720148
    vertex -209.39933066811867 -70.00585000011162 16.133838510720164
  endloop
endfacet
facet normal 0.0 -1.0 0.0
  outer loop
    vertex -209.39933066811867 -70.00585000011162 16.133838510720164
    vertex -207.33690071180231 -70.00585000011162 16.478218910720148
    vertex -209.39933066811867 -70.00585000011162 16.478218910720148
  endloop
endfacet
facet normal 0.0 0.0 1.0
  outer loop
    vertex -200.17644491180232 -67.58674774672048 8.235750506443143
    vertex -202.1088633118023 -67.19154124222368 8.235750506443143
    vertex -202.1088633118023 -67.58674774672048 8.235750506443143
  endloop
endfacet
facet normal 0.0 0.0 1.0
  outer loop
    vertex -202.1088633118023 -67.19154124222368 8.235750506443143
    vertex -200.17644491180232 -67.58674774672048 8.235750506443143
    vertex -202.1088633118023 -67.18648184672048 8.235750506443143
  endloop
endfacet
facet normal 0.0 0.0 1.0
  outer loop
    vertex -202.1088633118023 -67.18648184672048 8.235750506443143
    vertex -200.17644491180232 -67.58674774672048 8.235750506443143
    vertex -200.17644491180232 -67.18648184672048 8.235750506443143
  endloop
endfacet
facet normal 1.0 0.0 0.0
  outer loop
    vertex -209.39933066811867 -51.111826393357696 16.478218910720148
    vertex -209.39933066811867 -51.73251200890979 16.133838510720164
    vertex -209.39933066811867 -51.111826393357696 16.133838510720164
  endloop
endfacet
facet normal -1.0 0.0 0.0
  outer loop
    vertex -207.63240111180232 -69.69899190011164 16.133838510720164
    vertex -207.63240111180232 -70.00585000011162 14.509288117048188
    vertex -207.63240111180232 -70.00585000011162 16.133838510720164
  endloop
endfacet
facet normal -1.0 0.0 0.0
  outer loop
    vertex -207.63240111180232 -70.00585000011162 14.509288117048188
    vertex -207.63240111180232 -69.69899190011164 16.133838510720164
    vertex -207.63240111180232 -69.08130360011162 13.582448910720162
  endloop
endfacet
facet normal -1.0 0.0 0.0
  outer loop
    vertex -207.63240111180232 -69.08130360011162 13.582448910720162
    vertex -207.63240111180232 -69.69899190011164 16.133838510720164
    vertex -207.63240111180232 -61.29093991770795 16.133838510720164
  endloop
endfacet
facet normal -1.0 0.0 0.0
  outer loop
    vertex -207.63240111180232 -69.08130360011162 13.582448910720162
    vertex -207.63240111180232 -61.29093991770795 16.133838510720164
    vertex -207.63240111180232 -43.100923306439654 13.582448910720162
  endloop
endfacet
facet normal -1.0 0.0 0.0
  outer loop
    vertex -207.63240111180232 -43.100923306439654 13.582448910720162
    vertex -207.63240111180232 -61.29093991770795 16.133838510720164
    vertex -207.63240111180232 -51.73251200890979 16.133838510720164
  endloop
endfacet
facet normal -1.0 0.0 0.0
  outer loop
    vertex -207.63240111180232 -43.100923306439654 13.582448910720162
    vertex -207.63240111180232 -51.73251200890979 16.133838510720164
    vertex -207.63240111180232 -42.49014880011163 16.133838510720164
  endloop
endfacet
facet normal -1.0 0.0 0.0
  outer loop
    vertex -207.63240111180232 -43.100923306439654 13.582448910720162
    vertex -207.63240111180232 -42.49014880011163 16.133838510720164
    vertex -207.63240111180232 -42.17408410011163 14.509288117048188
  endloop
endfacet
facet normal -1.0 0.0 0.0
  outer loop
    vertex -207.63240111180232 -42.17408410011163 14.509288117048188
    vertex -207.63240111180232 -42.49014880011163 16.133838510720164
    vertex -207.63240111180232 -42.17408410011163 16.133838510720164
  endloop
endfacet
facet normal 1.0 0.0 0.0
  outer loop
    vertex -209.39933066811867 -42.49014880011163 16.133838510720164
    vertex -209.39933066811867 -51.111826393357696 16.478218910720148
    vertex -209.39933066811867 -51.111826393357696 16.133838510720164
  endloop
endfacet
facet normal 1.0 0.0 0.0
  outer loop
    vertex -209.39933066811867 -51.111826393357696 16.478218910720148
    vertex -209.39933066811867 -42.49014880011163 16.133838510720164
    vertex -209.39933066811867 -47.11500721833049 16.478218910720148
  endloop
endfacet
facet normal 1.0 0.0 0.0
  outer loop
    vertex -209.39933066811867 -47.11500721833049 16.478218910720148
    vertex -209.39933066811867 -42.49014880011163 16.133838510720164
    vertex -209.39933066811867 -42.17408410011163 16.478218910720148
  endloop
endfacet
facet normal 1.0 0.0 0.0
  outer loop
    vertex -209.39933066811867 -42.17408410011163 16.478218910720148
    vertex -209.39933066811867 -42.49014880011163 16.133838510720164
    vertex -209.39933066811867 -42.17408410011163 16.133838510720164
  endloop
endfacet
facet normal 1.0 0.0 0.0
  outer loop
    vertex -209.39933066811867 -51.111826393357696 16.478218910720148
    vertex -209.39933066811867 -51.73251200890979 16.478218910720148
    vertex -209.39933066811867 -51.73251200890979 16.133838510720164
  endloop
endfacet
facet normal 5.2774679331798615e-27 -0.7079819385547766 -0.7062305393284974
  outer loop
    vertex -207.33690071180231 -69.69899190011164 14.2016690317764
    vertex -207.63240111180232 -69.08130360011162 13.582448910720162
    vertex -207.33690071180231 -69.08130360011162 13.582448910720162
  endloop
endfacet
facet normal 5.2774679331798615e-27 -0.7079819385547766 -0.7062305393284974
  outer loop
    vertex -207.63240111180232 -69.08130360011162 13.582448910720162
    vertex -207.33690071180231 -69.69899190011164 14.2016690317764
    vertex -207.63240111180232 -70.00585000011162 14.509288117048188
  endloop
endfacet
facet normal 5.2774679331798615e-27 -0.7079819385547766 -0.7062305393284974
  outer loop
    vertex -207.63240111180232 -70.00585000011162 14.509288117048188
    vertex -207.33690071180231 -69.69899190011164 14.2016690317764
    vertex -207.33690071180231 -70.00585000011162 14.509288117048188
  endloop
endfacet
facet normal 1.0 0.0 0.0
  outer loop
    vertex -202.1088633118023 -46.796193794020226 5.311497500000006
    vertex -202.1088633118023 -47.10833649402023 6.188778797671622
    vertex -202.1088633118023 -47.10833649402023 5.311497500000006
  endloop
endfacet
facet normal 1.0 0.0 0.0
  outer loop
    vertex -202.1088633118023 -47.10833649402023 6.188778797671622
    vertex -202.1088633118023 -46.796193794020226 5.311497500000006
    vertex -202.1088633118023 -46.796193794020226 6.188778797671622
  endloop
endfacet
facet normal 0.0 1.0 0.0
  outer loop
    vertex -209.39933066811867 -42.17408410011163 16.478218910720148
    vertex -207.63240111180232 -42.17408410011163 16.133838510720164
    vertex -209.39933066811867 -42.17408410011163 16.133838510720164
  endloop
endfacet
facet normal 0.0 1.0 0.0
  outer loop
    vertex -207.63240111180232 -42.17408410011163 16.133838510720164
    vertex -209.39933066811867 -42.17408410011163 16.478218910720148
    vertex -207.33690071180231 -42.17408410011163 16.133838510720164
  endloop
endfacet
facet normal 0.0 1.0 0.0
  outer loop
    vertex -207.33690071180231 -42.17408410011163 16.133838510720164
    vertex -209.39933066811867 -42.17408410011163 16.478218910720148
    vertex -207.33690071180231 -42.17408410011163 16.478218910720148
  endloop
endfacet
facet normal 1.0 0.0 0.0
  outer loop
    vertex -209.39933066811867 -69.69899190011164 16.133838510720164
    vertex -209.39933066811867 -70.00585000011162 16.478218910720148
    vertex -209.39933066811867 -70.00585000011162 16.133838510720164
  endloop
endfacet
facet normal 1.0 0.0 0.0
  outer loop
    vertex -209.39933066811867 -70.00585000011162 16.478218910720148
    vertex -209.39933066811867 -69.69899190011164 16.133838510720164
    vertex -209.39933066811867 -62.19355825011163 16.478218910720148
  endloop
endfacet
facet normal 1.0 0.0 0.0
  outer loop
    vertex -209.39933066811867 -62.19355825011163 16.478218910720148
    vertex -209.39933066811867 -69.69899190011164 16.133838510720164
    vertex -209.39933066811867 -61.29093991770795 16.133838510720164
  endloop
endfacet
facet normal 0.0 0.0 -1.0
  outer loop
    vertex -207.33690071180231 -51.73251200890979 16.133838510720164
    vertex -207.63240111180232 -61.29093991770795 16.133838510720164
    vertex -207.63240111180232 -51.73251200890979 16.133838510720164
  endloop
endfacet
facet normal 0.0 0.0 -1.0
  outer loop
    vertex -207.63240111180232 -61.29093991770795 16.133838510720164
    vertex -207.33690071180231 -51.73251200890979 16.133838510720164
    vertex -207.33690071180231 -61.29093991770795 16.133838510720164
  endloop
endfacet
facet normal 0.0 0.0 -1.0
  outer loop
    vertex -207.33690071180231 -42.17408410011163 16.133838510720164
    vertex -207.63240111180232 -42.49014880011163 16.133838510720164
    vertex -207.63240111180232 -42.17408410011163 16.133838510720164
  endloop
endfacet
facet normal 0.0 0.0 -1.0
  outer loop
    vertex -207.63240111180232 -42.49014880011163 16.133838510720164
    vertex -207.33690071180231 -42.17408410011163 16.133838510720164
    vertex -207.63240111180232 -51.73251200890979 16.133838510720164
  endloop
endfacet
facet normal 0.0 0.0 -1.0
  outer loop
    vertex -207.63240111180232 -51.73251200890979 16.133838510720164
    vertex -207.33690071180231 -42.17408410011163 16.133838510720164
    vertex -207.33690071180231 -51.73251200890979 16.133838510720164
  endloop
endfacet
facet normal 0.0 0.0 -1.0
  outer loop
    vertex -207.33690071180231 -51.73251200890979 16.133838510720164
    vertex -207.33690071180231 -42.17408410011163 16.133838510720164
    vertex -207.33690071180231 -42.49014880011163 16.133838510720164
  endloop
endfacet
facet normal 1.0 0.0 0.0
  outer loop
    vertex -200.17644491180232 -46.796193794020226 6.188778797671622
    vertex -200.17644491180232 -47.10833649402023 8.263768611952017
    vertex -200.17644491180232 -47.10833649402023 6.188778797671622
  endloop
endfacet
facet normal 1.0 0.0 0.0
  outer loop
    vertex -200.17644491180232 -47.10833649402023 8.263768611952017
    vertex -200.17644491180232 -46.796193794020226 6.188778797671622
    vertex -200.17644491180232 -46.796193794020226 8.263768611952017
  endloop
endfacet
facet normal 0.0 0.0 -1.0
  outer loop
    vertex -207.63240111180232 -42.49014880011163 16.133838510720164
    vertex -209.39933066811867 -51.111826393357696 16.133838510720164
    vertex -209.39933066811867 -42.49014880011163 16.133838510720164
  endloop
endfacet
facet normal 0.0 0.0 -1.0
  outer loop
    vertex -209.39933066811867 -51.111826393357696 16.133838510720164
    vertex -207.63240111180232 -42.49014880011163 16.133838510720164
    vertex -209.39933066811867 -51.73251200890979 16.133838510720164
  endloop
endfacet
facet normal 0.0 0.0 -1.0
  outer loop
    vertex -209.39933066811867 -51.73251200890979 16.133838510720164
    vertex -207.63240111180232 -42.49014880011163 16.133838510720164
    vertex -207.63240111180232 -51.73251200890979 16.133838510720164
  endloop
endfacet
facet normal 0.0 0.0 1.0
  outer loop
    vertex -192.1127356681187 -47.10833649402023 5.311497500000006
    vertex -202.1088633118023 -46.796193794020226 5.311497500000006
    vertex -202.1088633118023 -47.10833649402023 5.311497500000006
  endloop
endfacet
facet normal 0.0 0.0 1.0
  outer loop
    vertex -202.1088633118023 -46.796193794020226 5.311497500000006
    vertex -192.1127356681187 -47.10833649402023 5.311497500000006
    vertex -192.1127356681187 -46.796193794020226 5.311497500000006
  endloop
endfacet
facet normal -7.399128812489327e-18 -0.48516386154144037 0.8744232541819768
  outer loop
    vertex -207.63240111180232 -51.73251200890979 16.133838510720164
    vertex -209.39933066811867 -51.111826393357696 16.478218910720148
    vertex -209.39933066811867 -51.73251200890979 16.133838510720164
  endloop
endfacet
facet normal -7.399128812489327e-18 -0.48516386154144037 0.8744232541819768
  outer loop
    vertex -209.39933066811867 -51.111826393357696 16.478218910720148
    vertex -207.63240111180232 -51.73251200890979 16.133838510720164
    vertex -207.33690071180231 -51.111826393357696 16.478218910720148
  endloop
endfacet
facet normal -7.399128812489327e-18 -0.48516386154144037 0.8744232541819768
  outer loop
    vertex -207.33690071180231 -51.111826393357696 16.478218910720148
    vertex -207.63240111180232 -51.73251200890979 16.133838510720164
    vertex -207.33690071180231 -51.73251200890979 16.133838510720164
  endloop
endfacet
facet normal 0.0 0.3564705628287018 0.9343065545293946
  outer loop
    vertex -207.33690071180231 -62.19355825011163 16.478218910720148
    vertex -209.39933066811867 -61.29093991770795 16.133838510720164
    vertex -209.39933066811867 -62.19355825011163 16.478218910720148
  endloop
endfacet
facet normal 0.0 0.3564705628287018 0.9343065545293946
  outer loop
    vertex -209.39933066811867 -61.29093991770795 16.133838510720164
    vertex -207.33690071180231 -62.19355825011163 16.478218910720148
    vertex -207.63240111180232 -61.29093991770795 16.133838510720164
  endloop
endfacet
facet normal 0.0 0.3564705628287018 0.9343065545293946
  outer loop
    vertex -207.63240111180232 -61.29093991770795 16.133838510720164
    vertex -207.33690071180231 -62.19355825011163 16.478218910720148
    vertex -207.33690071180231 -61.29093991770795 16.133838510720164
  endloop
endfacet
facet normal 0.0 0.0 -1.0
  outer loop
    vertex -200.17644491180232 -46.796193794020226 6.188778797671622
    vertex -202.1088633118023 -47.10833649402023 6.188778797671622
    vertex -202.1088633118023 -46.796193794020226 6.188778797671622
  endloop
endfacet
facet normal 0.0 0.0 -1.0
  outer loop
    vertex -202.1088633118023 -47.10833649402023 6.188778797671622
    vertex -200.17644491180232 -46.796193794020226 6.188778797671622
    vertex -200.17644491180232 -47.10833649402023 6.188778797671622
  endloop
endfacet
facet normal 0.0 0.0 -1.0
  outer loop
    vertex -207.63240111180232 -69.69899190011164 16.133838510720164
    vertex -209.39933066811867 -70.00585000011162 16.133838510720164
    vertex -209.39933066811867 -69.69899190011164 16.133838510720164
  endloop
endfacet
facet normal 0.0 0.0 -1.0
  outer loop
    vertex -209.39933066811867 -70.00585000011162 16.133838510720164
    vertex -207.63240111180232 -69.69899190011164 16.133838510720164
    vertex -207.63240111180232 -70.00585000011162 16.133838510720164
  endloop
endfacet
facet normal -1.0 0.0 0.0
  outer loop
    vertex -202.1088633118023 -67.19154124222368 8.235750506443143
    vertex -202.1088633118023 -67.58674774672048 8.232136852432035
    vertex -202.1088633118023 -67.58674774672048 8.235750506443143
  endloop
endfacet
facet normal -1.0 0.0 0.0
  outer loop
    vertex -202.1088633118023 -67.58674774672048 8.232136852432035
    vertex -202.1088633118023 -67.19154124222368 8.235750506443143
    vertex -202.1088633118023 -67.1915412422269 8.232136852078261
  endloop
endfacet
facet normal 0.0 0.0 1.0
  outer loop
    vertex -207.33690071180231 -70.00585000011162 16.478218910720148
    vertex -209.39933066811867 -62.19355825011163 16.478218910720148
    vertex -209.39933066811867 -70.00585000011162 16.478218910720148
  endloop
endfacet
facet normal 0.0 0.0 1.0
  outer loop
    vertex -209.39933066811867 -62.19355825011163 16.478218910720148
    vertex -207.33690071180231 -70.00585000011162 16.478218910720148
    vertex -207.33690071180231 -62.19355825011163 16.478218910720148
  endloop
endfacet
facet normal 0.0 0.0 1.0
  outer loop
    vertex -207.33690071180231 -62.19355825011163 16.478218910720148
    vertex -207.33690071180231 -70.00585000011162 16.478218910720148
    vertex -207.33690071180231 -69.69899190011164 16.478218910720148
  endloop
endfacet
facet normal 1.0 0.0 0.0
  outer loop
    vertex -200.17644491180232 -67.18648184672048 6.160760692162747
    vertex -200.17644491180232 -67.58674774672048 8.235750506443143
    vertex -200.17644491180232 -67.58674774672048 6.160760692162747
  endloop
endfacet
facet normal 1.0 0.0 0.0
  outer loop
    vertex -200.17644491180232 -67.58674774672048 8.235750506443143
    vertex -200.17644491180232 -67.18648184672048 6.160760692162747
    vertex -200.17644491180232 -67.18648184672048 8.235750506443143
  endloop
endfacet
facet normal 1.0 0.0 0.0
  outer loop
    vertex -207.33690071180231 -69.69899190011164 16.133838510720164
    vertex -207.33690071180231 -70.00585000011162 16.478218910720148
    vertex -207.33690071180231 -70.00585000011162 16.133838510720164
  endloop
endfacet
facet normal 1.0 0.0 0.0
  outer loop
    vertex -207.33690071180231 -70.00585000011162 16.478218910720148
    vertex -207.33690071180231 -69.69899190011164 16.133838510720164
    vertex -207.33690071180231 -69.69899190011164 16.478218910720148
  endloop
endfacet
facet normal 2.7776323952075567e-06 -0.9999999999783733 5.961414022268639e-06
  outer loop
    vertex -200.17273824324562 -47.10816265290436 13.57912346608484
    vertex -202.1084320401233 -47.10833648874535 9.100896338146518
    vertex -200.17341017156662 -47.108162647629484 9.100593904231355
  endloop
endfacet
facet normal 2.7776323952075567e-06 -0.9999999999783733 5.961414022268639e-06
  outer loop
    vertex -192.1127356681187 -47.10833649402023 5.311497500000006
    vertex -207.33690071180231 -47.10833649402023 0.3458558999999992
    vertex -192.1127356681187 -47.10833649402023 0.3458558999999992
  endloop
endfacet
facet normal 2.7776323952075567e-06 -0.9999999999783733 5.961414022268639e-06
  outer loop
    vertex -207.33690071180231 -47.10833649402023 0.3458558999999992
    vertex -192.1127356681187 -47.10833649402023 5.311497500000006
    vertex -202.1088633118023 -47.10833649402023 5.311497500000006
  endloop
endfacet
facet normal 2.7776323952075567e-06 -0.9999999999783733 5.961414022268639e-06
  outer loop
    vertex -207.33690071180231 -47.10833649402023 0.3458558999999992
    vertex -202.1088633118023 -47.10833649402023 5.311497500000006
    vertex -207.33690071180231 -47.10833649402023 13.579425899999999
  endloop
endfacet
facet normal 2.7776323952075567e-06 -0.9999999999783733 5.961414022268639e-06
  outer loop
    vertex -207.33690071180231 -47.10833649402023 13.579425899999999
    vertex -202.1088633118023 -47.10833649402023 5.311497500000006
    vertex -202.1088633118023 -47.10833649402023 6.188778797671622
  endloop
endfacet
facet normal 2.7776323952075567e-06 -0.9999999999783733 5.961414022268639e-06
  outer loop
    vertex -207.33690071180231 -47.10833649402023 13.579425899999999
    vertex -202.1088633118023 -47.10833649402023 6.188778797671622
    vertex -202.1088633118023 -47.10833649402023 8.263768611952017
  endloop
endfacet
facet normal 2.7776323952075567e-06 -0.9999999999783733 5.961414022268639e-06
  outer loop
    vertex -207.33690071180231 -47.10833649402023 13.579425899999999
    vertex -202.1088633118023 -47.10833649402023 8.263768611952017
    vertex -202.1084320401233 -47.10833648874535 9.100896338146518
  endloop
endfacet
facet normal 2.7776323952075567e-06 -0.9999999999783733 5.961414022268639e-06
  outer loop
    vertex -207.33690071180231 -47.10833649402023 13.579425899999999
    vertex -202.1084320401233 -47.10833648874535 9.100896338146518
    vertex -200.17273824324562 -47.10816265290436 13.57912346608484
  endloop
endfacet
facet normal 2.7776323952075567e-06 -0.9999999999783733 5.961414022268639e-06
  outer loop
    vertex -207.33690071180231 -47.10833649402023 13.579425899999999
    vertex -200.17273824324562 -47.10816265290436 13.57912346608484
    vertex -202.10776011180232 -47.10833649402023 13.579425899999999
  endloop
endfacet
facet normal -0.0 1.0 -0.0
  outer loop
    vertex -209.72554326811868 -42.17408410011163 0.3539836000000005
    vertex -209.39933066811867 -42.17408410011163 16.133838510720164
    vertex -209.39933066811867 -42.17408410011163 0.3458558999999992
  endloop
endfacet
facet normal -0.0 1.0 -0.0
  outer loop
    vertex -209.39933066811867 -42.17408410011163 16.133838510720164
    vertex -209.72554326811868 -42.17408410011163 0.3539836000000005
    vertex -209.72554326811868 -42.17408410011163 16.478218910720148
  endloop
endfacet
facet normal -0.0 1.0 -0.0
  outer loop
    vertex -209.39933066811867 -42.17408410011163 16.133838510720164
    vertex -209.72554326811868 -42.17408410011163 16.478218910720148
    vertex -209.39933066811867 -42.17408410011163 16.478218910720148
  endloop
endfacet
facet normal 1.0 0.0 0.0
  outer loop
    vertex -207.33690071180231 -42.49014880011163 16.133838510720164
    vertex -207.33690071180231 -51.111826393357696 16.478218910720148
    vertex -207.33690071180231 -51.73251200890979 16.133838510720164
  endloop
endfacet
facet normal 1.0 0.0 0.0
  outer loop
    vertex -207.33690071180231 -51.111826393357696 16.478218910720148
    vertex -207.33690071180231 -42.49014880011163 16.133838510720164
    vertex -207.33690071180231 -49.80945841248963 16.478218910720148
  endloop
endfacet
facet normal 1.0 0.0 0.0
  outer loop
    vertex -207.33690071180231 -49.80945841248963 16.478218910720148
    vertex -207.33690071180231 -42.49014880011163 16.133838510720164
    vertex -207.33690071180231 -42.49014880011163 16.478218910720148
  endloop
endfacet
facet normal 0.0 0.0 -1.0
  outer loop
    vertex -207.33690071180231 -61.29093991770795 16.133838510720164
    vertex -207.63240111180232 -69.69899190011164 16.133838510720164
    vertex -207.63240111180232 -61.29093991770795 16.133838510720164
  endloop
endfacet
facet normal 0.0 0.0 -1.0
  outer loop
    vertex -207.63240111180232 -69.69899190011164 16.133838510720164
    vertex -207.33690071180231 -61.29093991770795 16.133838510720164
    vertex -207.63240111180232 -70.00585000011162 16.133838510720164
  endloop
endfacet
facet normal 0.0 0.0 -1.0
  outer loop
    vertex -207.63240111180232 -70.00585000011162 16.133838510720164
    vertex -207.33690071180231 -61.29093991770795 16.133838510720164
    vertex -207.33690071180231 -70.00585000011162 16.133838510720164
  endloop
endfacet
facet normal 0.0 0.0 -1.0
  outer loop
    vertex -207.33690071180231 -70.00585000011162 16.133838510720164
    vertex -207.33690071180231 -61.29093991770795 16.133838510720164
    vertex -207.33690071180231 -69.69899190011164 16.133838510720164
  endloop
endfacet
facet normal -1.0 -3.987688673261196e-31 1.840969772213509e-30
  outer loop
    vertex -209.72554326811868 -51.111826393357696 16.478218910720148
    vertex -209.72554326811868 -51.73251200890979 8.470950360720146
    vertex -209.72554326811868 -51.73251200890979 16.478218910720148
  endloop
endfacet
facet normal -1.0 -3.987688673261196e-31 1.840969772213509e-30
  outer loop
    vertex -209.72554326811868 -68.96625721284278 16.478218910720148
    vertex -209.72554326811868 -70.00585000011162 0.3539836000000005
    vertex -209.72554326811868 -70.00585000011162 16.478218910720148
  endloop
endfacet
facet normal -1.0 -3.987688673261196e-31 1.840969772213509e-30
  outer loop
    vertex -209.72554326811868 -70.00585000011162 0.3539836000000005
    vertex -209.72554326811868 -68.96625721284278 16.478218910720148
    vertex -209.72554326811868 -61.29093991770795 8.47095036072015
  endloop
endfacet
facet normal -1.0 -3.987688673261196e-31 1.840969772213509e-30
  outer loop
    vertex -209.72554326811868 -70.00585000011162 0.3539836000000005
    vertex -209.72554326811868 -61.29093991770795 8.47095036072015
    vertex -209.72554326811868 -60.6439197627463 7.850960484262636
  endloop
endfacet
facet normal -1.0 -3.987688673261196e-31 1.840969772213509e-30
  outer loop
    vertex -209.72554326811868 -70.00585000011162 0.3539836000000005
    vertex -209.72554326811868 -60.6439197627463 7.850960484262636
    vertex -209.72554326811868 -59.917279974595615 7.326539712255334
  endloop
endfacet
facet normal -1.0 -3.987688673261196e-31 1.840969772213509e-30
  outer loop
    vertex -209.72554326811868 -70.00585000011162 0.3539836000000005
    vertex -209.72554326811868 -59.917279974595615 7.326539712255334
    vertex -209.72554326811868 -59.125021540673536 6.907792650515526
  endloop
endfacet
facet normal -1.0 -3.987688673261196e-31 1.840969772213509e-30
  outer loop
    vertex -209.72554326811868 -70.00585000011162 0.3539836000000005
    vertex -209.72554326811868 -59.125021540673536 6.907792650515526
    vertex -209.72554326811868 -42.53491420011163 0.3539836000000005
  endloop
endfacet
facet normal -1.0 -3.987688673261196e-31 1.840969772213509e-30
  outer loop
    vertex -209.72554326811868 -61.29093991770795 8.47095036072015
    vertex -209.72554326811868 -68.96625721284278 16.478218910720148
    vertex -209.72554326811868 -65.4911056846821 16.478218910720148
  endloop
endfacet
facet normal -1.0 -3.987688673261196e-31 1.840969772213509e-30
  outer loop
    vertex -209.72554326811868 -61.29093991770795 8.47095036072015
    vertex -209.72554326811868 -65.4911056846821 16.478218910720148
    vertex -209.72554326811868 -62.92863221043102 16.478218910720148
  endloop
endfacet
facet normal -1.0 -3.987688673261196e-31 1.840969772213509e-30
  outer loop
    vertex -209.72554326811868 -61.29093991770795 8.47095036072015
    vertex -209.72554326811868 -62.92863221043102 16.478218910720148
    vertex -209.72554326811868 -62.19355825011163 16.478218910720148
  endloop
endfacet
facet normal -1.0 -3.987688673261196e-31 1.840969772213509e-30
  outer loop
    vertex -209.72554326811868 -61.29093991770795 8.47095036072015
    vertex -209.72554326811868 -62.19355825011163 16.478218910720148
    vertex -209.72554326811868 -61.29093991770795 16.478218910720148
  endloop
endfacet
facet normal -1.0 -3.987688673261196e-31 1.840969772213509e-30
  outer loop
    vertex -209.72554326811868 -42.53491420011163 0.3539836000000005
    vertex -209.72554326811868 -59.125021540673536 6.907792650515526
    vertex -209.72554326811868 -58.28240979677053 6.602787770434673
  endloop
endfacet
facet normal -1.0 -3.987688673261196e-31 1.840969772213509e-30
  outer loop
    vertex -209.72554326811868 -42.53491420011163 0.3539836000000005
    vertex -209.72554326811868 -58.28240979677053 6.602787770434673
    vertex -209.72554326811868 -57.405680292627636 6.417401944650304
  endloop
endfacet
facet normal -1.0 -3.987688673261196e-31 1.840969772213509e-30
  outer loop
    vertex -209.72554326811868 -42.53491420011163 0.3539836000000005
    vertex -209.72554326811868 -57.405680292627636 6.417401944650304
    vertex -209.72554326811868 -56.51172596330887 6.355207210720147
  endloop
endfacet
facet normal -1.0 -3.987688673261196e-31 1.840969772213509e-30
  outer loop
    vertex -209.72554326811868 -42.53491420011163 0.3539836000000005
    vertex -209.72554326811868 -56.51172596330887 6.355207210720147
    vertex -209.72554326811868 -55.61777163399011 6.417401944650304
  endloop
endfacet
facet normal -1.0 -3.987688673261196e-31 1.840969772213509e-30
  outer loop
    vertex -209.72554326811868 -42.53491420011163 0.3539836000000005
    vertex -209.72554326811868 -55.61777163399011 6.417401944650304
    vertex -209.72554326811868 -54.741042129847216 6.602787770434673
  endloop
endfacet
facet normal -1.0 -3.987688673261196e-31 1.840969772213509e-30
  outer loop
    vertex -209.72554326811868 -42.53491420011163 0.3539836000000005
    vertex -209.72554326811868 -54.741042129847216 6.602787770434673
    vertex -209.72554326811868 -53.89843038594421 6.907792650515526
  endloop
endfacet
facet normal -1.0 -3.987688673261196e-31 1.840969772213509e-30
  outer loop
    vertex -209.72554326811868 -42.53491420011163 0.3539836000000005
    vertex -209.72554326811868 -53.89843038594421 6.907792650515526
    vertex -209.72554326811868 -53.10617195202212 7.32653971225533
  endloop
endfacet
facet normal -1.0 -3.987688673261196e-31 1.840969772213509e-30
  outer loop
    vertex -209.72554326811868 -42.53491420011163 0.3539836000000005
    vertex -209.72554326811868 -53.10617195202212 7.32653971225533
    vertex -209.72554326811868 -52.37953216387144 7.8509604842626315
  endloop
endfacet
facet normal -1.0 -3.987688673261196e-31 1.840969772213509e-30
  outer loop
    vertex -209.72554326811868 -42.53491420011163 0.3539836000000005
    vertex -209.72554326811868 -52.37953216387144 7.8509604842626315
    vertex -209.72554326811868 -51.73251200890979 8.470950360720146
  endloop
endfacet
facet normal -1.0 -3.987688673261196e-31 1.840969772213509e-30
  outer loop
    vertex -209.72554326811868 -42.53491420011163 0.3539836000000005
    vertex -209.72554326811868 -51.73251200890979 8.470950360720146
    vertex -209.72554326811868 -51.111826393357696 16.478218910720148
  endloop
endfacet
facet normal -1.0 -3.987688673261196e-31 1.840969772213509e-30
  outer loop
    vertex -209.72554326811868 -42.53491420011163 0.3539836000000005
    vertex -209.72554326811868 -51.111826393357696 16.478218910720148
    vertex -209.72554326811868 -49.11170076223004 16.478218910720148
  endloop
endfacet
facet normal -1.0 -3.987688673261196e-31 1.840969772213509e-30
  outer loop
    vertex -209.72554326811868 -42.53491420011163 0.3539836000000005
    vertex -209.72554326811868 -49.11170076223004 16.478218910720148
    vertex -209.72554326811868 -46.68882841554116 16.478218910720148
  endloop
endfacet
facet normal -1.0 -3.987688673261196e-31 1.840969772213509e-30
  outer loop
    vertex -209.72554326811868 -42.53491420011163 0.3539836000000005
    vertex -209.72554326811868 -46.68882841554116 16.478218910720148
    vertex -209.72554326811868 -43.16410079123309 16.478218910720148
  endloop
endfacet
facet normal -1.0 -3.987688673261196e-31 1.840969772213509e-30
  outer loop
    vertex -209.72554326811868 -42.53491420011163 0.3539836000000005
    vertex -209.72554326811868 -43.16410079123309 16.478218910720148
    vertex -209.72554326811868 -42.53491420011163 16.478218910720148
  endloop
endfacet
facet normal 0.0 0.0 1.0
  outer loop
    vertex -209.39933066811867 -51.73251200890979 16.478218910720148
    vertex -209.72554326811868 -51.111826393357696 16.478218910720148
    vertex -209.72554326811868 -51.73251200890979 16.478218910720148
  endloop
endfacet
facet normal 0.0 0.0 1.0
  outer loop
    vertex -209.72554326811868 -51.111826393357696 16.478218910720148
    vertex -209.39933066811867 -51.73251200890979 16.478218910720148
    vertex -209.39933066811867 -51.111826393357696 16.478218910720148
  endloop
endfacet
facet normal 0.0 -1.0 0.0
  outer loop
    vertex -192.1127356681187 -67.58674774672048 3.2122651999999983
    vertex -202.1088633118023 -67.58674774672048 0.3458558999999992
    vertex -192.1127356681187 -67.58674774672048 0.3458558999999992
  endloop
endfacet
facet normal 0.0 -1.0 0.0
  outer loop
    vertex -202.1088633118023 -67.58674774672048 0.3458558999999992
    vertex -192.1127356681187 -67.58674774672048 3.2122651999999983
    vertex -202.1088633118023 -67.58674774672048 3.2122651999999983
  endloop
endfacet
facet normal 0.0 -1.0 0.0
  outer loop
    vertex -202.1088633118023 -67.58674774672048 3.2122651999999983
    vertex -192.1127356681187 -67.58674774672048 3.2122651999999983
    vertex -192.1127356681187 -67.58674774672048 5.280543010372047
  endloop
endfacet
facet normal 0.0 -1.0 0.0
  outer loop
    vertex -202.1088633118023 -67.58674774672048 3.2122651999999983
    vertex -192.1127356681187 -67.58674774672048 5.280543010372047
    vertex -202.1088633118023 -67.58674774672048 5.280543010372047
  endloop
endfacet
facet normal 1.0 0.0 0.0
  outer loop
    vertex -207.33690071180231 -46.796193794020226 0.3458558999999992
    vertex -207.33690071180231 -47.10833649402023 13.579425899999999
    vertex -207.33690071180231 -47.10833649402023 0.3458558999999992
  endloop
endfacet
facet normal 1.0 0.0 0.0
  outer loop
    vertex -207.33690071180231 -47.10833649402023 13.579425899999999
    vertex -207.33690071180231 -46.796193794020226 0.3458558999999992
    vertex -207.33690071180231 -46.796193794020226 13.579425899999999
  endloop
endfacet
facet normal 0.0 0.0 1.0
  outer loop
    vertex -209.39933066811867 -47.11500721833049 16.478218910720148
    vertex -209.72554326811868 -43.16410079123309 16.478218910720148
    vertex -209.72554326811868 -46.68882841554116 16.478218910720148
  endloop
endfacet
facet normal 0.0 0.0 1.0
  outer loop
    vertex -209.72554326811868 -43.16410079123309 16.478218910720148
    vertex -209.39933066811867 -47.11500721833049 16.478218910720148
    vertex -209.72554326811868 -42.53491420011163 16.478218910720148
  endloop
endfacet
facet normal 0.0 0.0 1.0
  outer loop
    vertex -209.72554326811868 -42.53491420011163 16.478218910720148
    vertex -209.39933066811867 -47.11500721833049 16.478218910720148
    vertex -209.72554326811868 -42.17408410011163 16.478218910720148
  endloop
endfacet
facet normal 0.0 0.0 1.0
  outer loop
    vertex -209.72554326811868 -42.17408410011163 16.478218910720148
    vertex -209.39933066811867 -47.11500721833049 16.478218910720148
    vertex -209.39933066811867 -42.17408410011163 16.478218910720148
  endloop
endfacet
endsolid Liquid Galaxy Voice
