<?xml version="1.0" encoding="UTF-8" standalone="no"?>
<!-- Created with Inkscape (http://www.inkscape.org/) -->

<svg
   xmlns:dc="http://purl.org/dc/elements/1.1/"
   xmlns:cc="http://creativecommons.org/ns#"
   xmlns:rdf="http://www.w3.org/1999/02/22-rdf-syntax-ns#"
   xmlns:svg="http://www.w3.org/2000/svg"
   xmlns="http://www.w3.org/2000/svg"
   xmlns:sodipodi="http://sodipodi.sourceforge.net/DTD/sodipodi-0.dtd"
   xmlns:inkscape="http://www.inkscape.org/namespaces/inkscape"
   width="210mm"
   height="297mm"
   viewBox="0 0 210 297"
   version="1.1"
   id="svg1573"
   inkscape:version="0.92.3 (2405546, 2018-03-11)"
   sodipodi:docname="logo_lg_eu_3.svg">
  <defs
     id="defs1567" />
  <sodipodi:namedview
     id="base"
     pagecolor="#ffffff"
     bordercolor="#666666"
     borderopacity="1.0"
     inkscape:pageopacity="0.0"
     inkscape:pageshadow="2"
     inkscape:zoom="1.4"
     inkscape:cx="378.93748"
     inkscape:cy="961.0263"
     inkscape:document-units="mm"
     inkscape:current-layer="layer1"
     showgrid="false"
     inkscape:window-width="1853"
     inkscape:window-height="1025"
     inkscape:window-x="67"
     inkscape:window-y="27"
     inkscape:window-maximized="1" />
  <metadata
     id="metadata1570">
    <rdf:RDF>
      <cc:Work
         rdf:about="">
        <dc:format>image/svg+xml</dc:format>
        <dc:type
           rdf:resource="http://purl.org/dc/dcmitype/StillImage" />
        <dc:title></dc:title>
      </cc:Work>
    </rdf:RDF>
  </metadata>
  <g
     inkscape:label="Layer 1"
     inkscape:groupmode="layer"
     id="layer1">
    <g
       id="g2170"
       transform="matrix(0.14895167,0,0,0.14895167,93.05331,43.445531)">
      <text
         xml:space="preserve"
         style="font-style:normal;font-variant:normal;font-weight:bold;font-stretch:normal;font-size:10.58333302px;line-height:1.25;font-family:sans-serif;-inkscape-font-specification:'sans-serif Bold';letter-spacing:0px;word-spacing:0px;fill:#82ff6a;fill-opacity:1;stroke:none;stroke-width:0.26458332"
         x="-278.33829"
         y="82.351532"
         id="text831-3"
         inkscape:export-xdpi="192"
         inkscape:export-ydpi="192"><tspan
           sodipodi:role="line"
           x="-278.33829"
           y="82.351532"
           style="font-style:normal;font-variant:normal;font-weight:bold;font-stretch:normal;font-size:144.63890076px;line-height:0.875;font-family:sans-serif;-inkscape-font-specification:'sans-serif Bold';letter-spacing:-13.22916698px;fill:#82ff6a;fill-opacity:1;stroke-width:0.26458332"
           id="tspan829-6">LIQUID</tspan></text>
      <text
         xml:space="preserve"
         style="font-style:normal;font-variant:normal;font-weight:bold;font-stretch:normal;font-size:326.31945801px;line-height:1.25;font-family:sans-serif;-inkscape-font-specification:'sans-serif Bold';letter-spacing:-0.01058333px;word-spacing:0px;fill:#d18600;fill-opacity:1;stroke:none;stroke-width:0.26458332"
         x="251.83154"
         y="211.48997"
         id="text835-7"
         inkscape:export-xdpi="192"
         inkscape:export-ydpi="192"><tspan
           sodipodi:role="line"
           id="tspan833-5"
           x="251.83154"
           y="211.48997"
           style="font-style:normal;font-variant:normal;font-weight:bold;font-stretch:normal;font-size:326.31945801px;font-family:sans-serif;-inkscape-font-specification:'sans-serif Bold';letter-spacing:-26.45833397px;fill:#d18600;fill-opacity:1;stroke-width:0.26458332">EU</tspan></text>
      <text
         id="text845-3"
         y="76.433807"
         x="-283.49979"
         style="font-style:normal;font-variant:normal;font-weight:bold;font-stretch:normal;font-size:10.58333302px;line-height:1.25;font-family:sans-serif;-inkscape-font-specification:'sans-serif Bold';letter-spacing:0px;word-spacing:0px;fill:#5fbbd8;fill-opacity:1;stroke:none;stroke-width:0.26458332"
         xml:space="preserve"
         inkscape:export-xdpi="192"
         inkscape:export-ydpi="192"><tspan
           style="font-style:normal;font-variant:normal;font-weight:bold;font-stretch:normal;font-size:141.1111145px;line-height:0.875;font-family:sans-serif;-inkscape-font-specification:'sans-serif Bold';letter-spacing:-13.22916698px;fill:#5fbbd8;fill-opacity:1;stroke-width:0.26458332"
           y="85.797577"
           x="-283.49979"
           id="tspan837-5"
           sodipodi:role="line" /><tspan
           id="tspan843-6"
           style="font-style:normal;font-variant:normal;font-weight:bold;font-stretch:normal;font-size:141.1111145px;line-height:0.875;font-family:sans-serif;-inkscape-font-specification:'sans-serif Bold';letter-spacing:-13.22916698px;fill:#5fbbd8;fill-opacity:1;stroke-width:0.26458332"
           y="206.50339"
           x="-283.49979"
           sodipodi:role="line"><tspan
   id="tspan841-2"
   style="line-height:0.875;letter-spacing:-26.45833397px;fill:#5fbbd8;fill-opacity:1;stroke-width:0.26458332"><tspan
   style="font-size:167.56944275px;fill:#5fbbd8;fill-opacity:1;stroke-width:0.26458332"
   id="tspan839-9">G</tspan>A</tspan>LAXY</tspan></text>
      <circle
         r="135.46666"
         style="fill:#5fbbd8;fill-opacity:1;stroke-width:0.26458332"
         cy="88.533295"
         cx="-412.39725"
         id="circle1163-2-7-1"
         inkscape:export-xdpi="192"
         inkscape:export-ydpi="192" />
      <path
         id="path1140-0-2-8-5"
         d="m -308.43445,1.8544829 c -0.372,0.332298 -0.7399,0.6727 -1.124,0.979799 -0.5935,0.474499 -1.201,0.9196 -1.8216,1.3379 -0.6206,0.418299 -1.2543,0.8098 -1.8996,1.1767 -0.6453,0.3668 -1.3022,0.7091 -1.9699,1.029399 -0.6678,0.320302 -1.3462,0.618501 -2.034,0.897101 -0.6879,0.278501 -1.3852,0.537599 -2.0909,0.779201 -1.4112,0.483299 -2.8558,0.8973 -4.3242,1.261999 -1.4684,0.364601 -2.9606,0.679601 -4.4675,0.9643001 -1.5069,0.2846 -3.0284,0.5391 -4.5552,0.782299 -3.0537,0.486601 -6.1287,0.929101 -9.1504,1.482101 -2.5967,-0.141999 -5.1841,-0.265999 -7.7328,-0.3121 -1.2744,-0.02299 -2.5388,-0.027 -3.79,0 -1.2511,0.02299 -2.4889,0.074 -3.7093,0.158599 -1.2205,0.085 -2.4237,0.2042 -3.606,0.3654 -1.1822,0.1612 -2.3438,0.364001 -3.4804,0.616501 -1.1366,0.2525 -2.2482,0.554799 -3.3316,0.913601 -1.0834,0.358899 -2.1388,0.774599 -3.1616,1.254799 -0.4641,0.4009 -0.9315,0.7488 -1.4019,1.048401 -0.4705,0.299699 -0.944,0.550598 -1.4201,0.758698 -0.4761,0.208002 -0.9548,0.372901 -1.4361,0.499102 -0.4813,0.1264 -0.9648,0.214498 -1.4506,0.268798 -0.4857,0.054 -0.9738,0.075 -1.4634,0.067 -0.4897,-0.01 -0.9809,-0.045 -1.4738,-0.104899 -0.9859,-0.1206 -1.9777,-0.3359 -2.973,-0.607201 -0.9953,-0.271399 -1.9943,-0.5984 -2.9941,-0.942099 -0.9998,-0.343799 -2.0004,-0.704501 -2.9998,-1.042299 -0.9995,-0.337802 -1.9974,-0.652902 -2.9916,-0.906402 -0.9942,-0.2535 -1.9848,-0.445 -2.9688,-0.5359 -1.3932,-0.072 -2.7801,-0.118801 -4.161,-0.138499 -1.3808,-0.02 -2.7551,-0.01201 -4.1227,0.024 -1.3676,0.037 -2.7285,0.102198 -4.0819,0.198999 -1.3535,0.097 -2.6997,0.225002 -4.038,0.386 -1.3384,0.160999 -2.6687,0.355302 -3.991,0.584499 -1.3223,0.229201 -2.6366,0.493501 -3.9419,0.794801 -1.3053,0.301202 -2.6017,0.639601 -3.8892,1.016899 -1.2874,0.377402 -2.5658,0.793703 -3.8344,1.251202 -0.5088,0.3259 -1.024,0.626901 -1.5451,0.904801 -0.521,0.2779 -1.0481,0.532699 -1.5808,0.764799 -0.5326,0.2321 -1.0706,0.441399 -1.6143,0.629899 -0.5437,0.1886 -1.0928,0.356499 -1.647,0.503901 -1.1082,0.294699 -2.2372,0.509501 -3.3837,0.653198 -1.1466,0.143701 -2.3111,0.216303 -3.4913,0.227402 -1.1802,0.01101 -2.3761,-0.04 -3.5853,-0.1432 -1.2092,-0.103299 -2.4314,-0.2592 -3.6649,-0.458399 -1.2335,-0.199202 -2.4779,-0.441902 -3.731,-0.718802 -1.2532,-0.276899 -2.5151,-0.587801 -3.7833,-0.923898 -2.5363,-0.672402 -5.0982,-1.445101 -7.6667,-2.244402 -2.5685,-0.799299 -5.1435,-1.6251 -7.707,-2.404499 -2.5635,-0.779301 -5.115,-1.5118 -7.6362,-2.1243 -1.2606,-0.3063 -2.5138,-0.582599 -3.7569,-0.8196 -1.2431,-0.237103 -2.4761,-0.435003 -3.6969,-0.584504 l -38.4618,-0.328697 a 135.46666,135.46666 0 0 0 -24.5949,77.333308 135.46666,135.46666 0 0 0 135.4667,135.466701 135.46666,135.46666 0 0 0 135.4667,-135.466701 135.46666,135.46666 0 0 0 -31.504,-86.5730081 z"
         style="fill:#5cafc9;fill-opacity:1;stroke-width:0.26458332"
         inkscape:connector-curvature="0" />
      <path
         id="path1161-9-8-4-5"
         d="m -277.57336,101.69189 c -0.13488,-0.027 -0.2817,-0.069 -0.41597,-0.096 -1.55271,-0.3054 -3.0539,-0.5482 -4.50411,-0.7281 -1.4504,-0.1799 -2.84971,-0.2972 -4.19761,-0.3519 -1.348,-0.055 -2.6449,-0.047 -3.8908,0.023 -1.2458,0.07 -2.4408,0.2033 -3.5847,0.39839 -1.144,0.19511 -2.2368,0.45241 -3.2789,0.77211 -1.0422,0.3196 -2.0335,0.7016 -2.974,1.14559 -0.525,0.41961 -1.0516,0.80121 -1.5803,1.14771 -0.5286,0.3466 -1.0591,0.6581 -1.5911,0.938 -0.5319,0.2799 -1.0654,0.5281 -1.6004,0.7477 -0.535,0.2196 -1.0715,0.4105 -1.6092,0.5762 -0.5377,0.1657 -1.0764,0.3061 -1.6164,0.4243 -0.5401,0.1182 -1.0816,0.2144 -1.6237,0.2914 -1.0842,0.1542 -2.1718,0.2324 -3.2624,0.2605 -1.0905,0.028 -2.1835,0.01 -3.2778,-0.041 -1.0942,-0.047 -2.1896,-0.1184 -3.2851,-0.1892 -1.0954,-0.071 -2.191,-0.1405 -3.285,-0.1839 -1.0941,-0.044 -2.1872,-0.061 -3.2773,-0.026 -2.9676,0.4765 -5.6931,0.8523 -8.214,1.1426 -2.5209,0.2903 -4.8367,0.4953 -6.9851,0.6305 -2.1484,0.1351 -4.1293,0.2005 -5.9795,0.2113 -1.8502,0.011 -3.5699,-0.033 -5.1961,-0.1152 -1.6261,-0.082 -3.1585,-0.204 -4.6348,-0.3488 -1.4764,-0.1449 -2.8966,-0.3131 -4.2974,-0.4894 -2.8017,-0.3527 -5.5264,-0.7379 -8.4714,-1.031 -1.8651,-0.4589 -3.5856,-1.03731 -5.3521,-1.57761 -0.8833,-0.27019 -1.7778,-0.53119 -2.7083,-0.76229 -0.9306,-0.2311 -1.8971,-0.43251 -2.9229,-0.58491 -1.0258,-0.15249 -2.1113,-0.25579 -3.2804,-0.28999 -1.169,-0.034 -2.4215,0 -3.7817,0.1246 -1.3602,0.1238 -2.8278,0.3365 -4.4271,0.65779 -1.5993,0.3214 -3.3303,0.75151 -5.2167,1.31001 -0.783,0.359 -1.5574,0.6774 -2.3234,0.9581 -0.766,0.28069 -1.5239,0.5238 -2.2743,0.7328 -0.7504,0.2089 -1.4931,0.3839 -2.2293,0.5276 -0.7362,0.1437 -1.4656,0.25609 -2.189,0.34109 -0.7235,0.085 -1.4413,0.14241 -2.1534,0.17511 -0.7121,0.033 -1.4186,0.041 -2.1208,0.028 -1.4043,-0.026 -2.79,-0.137 -4.163,-0.3069 -1.373,-0.1699 -2.7331,-0.3991 -4.0861,-0.661 -1.353,-0.2618 -2.6993,-0.5561 -4.0437,-0.8578 -1.3443,-0.3016 -2.6868,-0.61021 -4.0338,-0.8997 -1.347,-0.2895 -2.6982,-0.5602 -4.0592,-0.7854 -0.818,-0.2809 -1.6176,-0.53021 -2.3999,-0.74991 -0.7822,-0.21969 -1.5476,-0.40959 -2.2965,-0.572 -0.7488,-0.16249 -1.4811,-0.29719 -2.1988,-0.40619 -0.7177,-0.109 -1.4207,-0.1923 -2.1094,-0.2517 -0.6888,-0.059 -1.3637,-0.095 -2.0258,-0.10851 -0.662,-0.014 -1.3111,0 -1.9487,0.023 -1.2751,0.057 -2.5036,0.1933 -3.6943,0.3948 -1.1907,0.2015 -2.3433,0.4678 -3.4675,0.7834 -1.1241,0.3156 -2.2199,0.681 -3.2954,1.08 -1.0755,0.3991 -2.1308,0.8319 -3.1755,1.2837 -1.0447,0.4518 -2.0786,0.9224 -3.1104,1.3963 -0.9294,0.2267 -1.8404,0.4245 -2.7342,0.5953 -0.8939,0.1708 -1.7704,0.3146 -2.6309,0.4331 -0.8604,0.1184 -1.7048,0.2116 -2.5342,0.2811 -0.8293,0.07 -1.6438,0.1154 -2.4443,0.1395 -1.6009,0.048 -3.1465,0.01 -4.6452,-0.1034 -1.4987,-0.1124 -2.9508,-0.2985 -4.3651,-0.5436 -1.4143,-0.2451 -2.7906,-0.5494 -4.1382,-0.8992 -1.3477,-0.3498 -2.6663,-0.7449 -3.9651,-1.1715 -1.2989,-0.4265 -2.578,-0.8843 -3.8458,-1.3596 -1.2678,-0.4752 -2.5245,-0.9679 -3.7791,-1.464 -1.2224,-0.5238 -2.4446,-0.9937 -3.667,-1.4149 -1.2224,-0.4211 -2.4451,-0.7933 -3.6675,-1.1219 -1.2223,-0.3285 -2.4445,-0.6133 -3.6669,-0.8594 -1.2224,-0.2459 -2.4446,-0.453301 -3.667,-0.626801 -1.2224,-0.1735 -2.4451,-0.3131 -3.6675,-0.4242 -1.2223,-0.1112 -2.4445,-0.1935 -3.6669,-0.2522 -2.4448,-0.1175 -4.8897,-0.1406 -7.3345,-0.1091 -2.4447,0.032 -4.8896,0.1175 -7.3344,0.2176 -2.4447,0.1001 -4.8891,0.2146 -7.3339,0.3028 -2.2798,0.082 -4.5596,0.132 -6.8394,0.1364 a 135.46665,135.46665 0 0 0 134.9261,124.672011 135.46665,135.46665 0 0 0 134.72149,-122.54031 z"
         style="fill:#4b98b0;fill-opacity:1;stroke-width:0.26458332"
         inkscape:connector-curvature="0" />
      <path
         id="path1183-3-9-5-4"
         d="m -314.05075,181.93428 c -0.3643,-0.068 -0.7317,-0.1164 -1.0955,-0.1876 -1.6952,-0.3317 -3.386,-0.6896 -5.0799,-1.03039 -1.6937,-0.3409 -3.3901,-0.6647 -5.0952,-0.9287 -0.8526,-0.13201 -1.7075,-0.2485 -2.5653,-0.3452 -0.8577,-0.097 -1.7182,-0.17321 -2.5827,-0.2237 -0.8646,-0.051 -1.7327,-0.075 -2.6056,-0.069 -0.8728,0.01 -1.7506,0.044 -2.6334,0.1178 -0.8828,0.074 -1.7712,0.18379 -2.6655,0.336 -0.8943,0.15209 -1.7947,0.3463 -2.7021,0.58749 -0.9074,0.2412 -1.8214,0.52971 -2.7435,0.8708 -0.9222,0.341 -1.8522,0.7348 -2.7906,1.18641 -1.5373,0.94139 -2.9666,1.73309 -4.3082,2.4035 -1.3417,0.6704 -2.5958,1.2194 -3.7822,1.67479 -1.1865,0.45561 -2.3054,0.81751 -3.3771,1.1142 -1.0717,0.29671 -2.0963,0.528 -3.0939,0.7219 -1.995,0.3878 -3.8818,0.62591 -5.8229,0.93901 -0.9705,0.1565 -1.9546,0.33149 -2.9724,0.55339 -1.0177,0.22191 -2.069,0.4907 -3.1745,0.8341 -0.7624,0.1256 -1.4992,0.22051 -2.2122,0.2868 -0.7131,0.066 -1.4023,0.10421 -2.0702,0.1163 -0.6678,0.012 -1.3141,0 -1.941,-0.039 -0.6268,-0.037 -1.2341,-0.098 -1.8241,-0.1793 -0.59,-0.081 -1.1625,-0.18339 -1.7198,-0.3039 -0.5574,-0.12049 -1.0995,-0.25919 -1.6283,-0.41389 -1.0578,-0.30941 -2.0629,-0.68231 -3.0319,-1.0981 -0.969,-0.41591 -1.9021,-0.8749 -2.8159,-1.357 -0.9137,-0.4822 -1.8085,-0.98731 -2.7006,-1.4956 -0.892,-0.50821 -1.7813,-1.0194 -2.6851,-1.51361 -0.9037,-0.49409 -1.8219,-0.97129 -2.7709,-1.41129 -2.8198,0.56769 -5.1964,0.9841 -7.2129,1.27699 -2.0166,0.29291 -3.6732,0.4625 -5.0514,0.5369 -0.6892,0.037 -1.3087,0.05 -1.8692,0.043 -0.5604,-0.01 -1.0616,-0.034 -1.5141,-0.078 -0.4524,-0.044 -0.8561,-0.10481 -1.2211,-0.1788 -0.365,-0.074 -0.6914,-0.16091 -0.9896,-0.2579 -0.5964,-0.194 -1.0798,-0.4274 -1.5327,-0.67131 -0.453,-0.2439 -0.8759,-0.4983 -1.3503,-0.7358 -0.4744,-0.23759 -1.0006,-0.4581 -1.6614,-0.63309 -0.3304,-0.088 -0.6944,-0.16351 -1.1023,-0.2248 -0.4079,-0.061 -0.8597,-0.1078 -1.3658,-0.13591 -1.3535,0.071 -2.6688,0.17451 -3.9434,0.3121 -1.2746,0.1377 -2.5087,0.31 -3.699,0.51841 -1.1904,0.20829 -2.3371,0.4528 -3.438,0.73629 -1.101,0.2835 -2.156,0.60591 -3.1621,0.96901 -1.0062,0.363 -1.9634,0.7668 -2.8696,1.2139 -0.9063,0.44699 -1.7611,0.9373 -2.5621,1.4727 -0.801,0.53539 -1.5481,1.1159 -2.2387,1.7441 -0.6905,0.6282 -1.3247,1.30399 -1.8996,2.02929 -0.8485,0.7734 -1.6979,1.45511 -2.5487,2.0521 -0.8507,0.59711 -1.7026,1.10971 -2.5554,1.5441 -0.8528,0.43451 -1.7069,0.7908 -2.5616,1.07641 -0.8546,0.2857 -1.7099,0.5005 -2.5662,0.6511 -0.8564,0.1508 -1.7135,0.2377 -2.5714,0.2672 -0.8579,0.03 -1.7168,0 -2.5761,-0.076 -0.8593,-0.078 -1.7192,-0.20589 -2.5797,-0.37729 -0.8605,-0.17141 -1.7213,-0.3865 -2.5828,-0.63771 -0.8614,-0.2511 -1.7236,-0.53859 -2.5859,-0.85569 -0.8623,-0.31721 -1.725,-0.6642 -2.5879,-1.0336 -1.726,-0.7386 -3.4531,-1.5678 -5.1806,-2.4324 -1.7275,-0.8645 -3.4554,-1.7643 -5.1831,-2.64431 -1.7277,-0.87999 -3.4551,-1.73979 -5.1816,-2.5249 l -16.9659,0.96541 a 135.46664,135.46664 0 0 0 93.154,37.41161 135.46664,135.46664 0 0 0 98.2467,-42.46971 z"
         style="fill:#40879e;fill-opacity:1;stroke-width:0.26458332"
         inkscape:connector-curvature="0" />
      <path
         id="path1347-4-6-7"
         d="m -487.24505,201.95309 11.897,-10.8312 16.6687,-3.96881 7.9375,-17.1979 14.0229,-8.99579 0.5333,-17.18711 -7.1478,-12.44629 -8.9959,-14.28751 -18.5208,-17.462501 -7.1438,-17.4625 6.35,-21.4312 19.8438,-17.462497 13.2292,-23.283299 22.225,-8.7313 3.9687,-17.1979011 7.1438,-12.9646009 -8.4667,-15.874999 -15.6104,-7.6729 -16.4042,3.4396 -13.8653,0.3302 a 135.46666,135.46666 0 0 0 -89.3237,127.238597 135.46666,135.46666 0 0 0 61.6587,113.449911 z"
         style="fill:#82ff6a;fill-opacity:1;stroke-width:0.26458332"
         inkscape:connector-curvature="0" />
      <path
         id="path1453-1-6"
         d="m -276.77725,91.136079 -8.9725,2.7445 -10.1028,-1.30969 -5.0513,-7.29661 -8.7933,-0.9353 -9.3545,15.154 0.5612,13.657811 -2.4319,11.22489 -9.449,5.07211 -9.8211,14.9465 -14.0317,6.73549 -4.3031,15.90231 1.6841,14.5928 v 15.71599 l -1.9099,16.55 a 135.46666,135.46666 0 0 0 81.9758,-122.754801 z"
         style="fill:#82ff6a;fill-opacity:1;stroke-width:0.26458332"
         inkscape:connector-curvature="0" />
    </g>
  </g>
</svg>
